<?xml version="1.0" encoding="utf-8" standalone="no"?>
<!DOCTYPE svg PUBLIC "-//W3C//DTD SVG 1.1//EN"
  "http://www.w3.org/Graphics/SVG/1.1/DTD/svg11.dtd">
<!-- Created with matplotlib (https://matplotlib.org/) -->
<svg height="535.469062pt" version="1.1" viewBox="0 0 716.202812 535.469062" width="716.202812pt" xmlns="http://www.w3.org/2000/svg" xmlns:xlink="http://www.w3.org/1999/xlink">
 <metadata>
  <rdf:RDF xmlns:cc="http://creativecommons.org/ns#" xmlns:dc="http://purl.org/dc/elements/1.1/" xmlns:rdf="http://www.w3.org/1999/02/22-rdf-syntax-ns#">
   <cc:Work>
    <dc:type rdf:resource="http://purl.org/dc/dcmitype/StillImage"/>
    <dc:date>2022-05-30T15:02:08.968493</dc:date>
    <dc:format>image/svg+xml</dc:format>
    <dc:creator>
     <cc:Agent>
      <dc:title>Matplotlib v3.3.4, https://matplotlib.org/</dc:title>
     </cc:Agent>
    </dc:creator>
   </cc:Work>
  </rdf:RDF>
 </metadata>
 <defs>
  <style type="text/css">*{stroke-linecap:butt;stroke-linejoin:round;}</style>
 </defs>
 <g id="figure_1">
  <g id="patch_1">
   <path d="M 0 535.469062 
L 716.202812 535.469062 
L 716.202812 0 
L 0 0 
z
" style="fill:none;"/>
  </g>
  <g id="axes_1">
   <g id="patch_2">
    <path d="M 47.282813 102.4 
L 353.322812 102.4 
L 353.322812 7.2 
L 47.282813 7.2 
z
" style="fill:#ffffff;"/>
   </g>
   <g id="matplotlib.axis_1">
    <g id="xtick_1">
     <g id="line2d_1">
      <defs>
       <path d="M 0 0 
L 0 3.5 
" id="m351a1a0e35" style="stroke:#000000;stroke-width:0.8;"/>
      </defs>
      <g>
       <use style="stroke:#000000;stroke-width:0.8;" x="92.106853" xlink:href="#m351a1a0e35" y="102.4"/>
      </g>
     </g>
     <g id="text_1">
      <!-- 2 -->
      <g transform="translate(90.106853 114.955)scale(0.08 -0.08)">
       <defs>
        <path d="M 45.84375 12.75 
L 41.21875 0 
L 2.15625 0 
L 2.15625 1.8125 
Q 19.390625 17.53125 26.421875 27.484375 
Q 33.453125 37.453125 33.453125 45.703125 
Q 33.453125 52 29.59375 56.046875 
Q 25.734375 60.109375 20.359375 60.109375 
Q 15.484375 60.109375 11.59375 57.25 
Q 7.71875 54.390625 5.859375 48.875 
L 4.046875 48.875 
Q 5.28125 57.90625 10.328125 62.734375 
Q 15.375 67.578125 22.953125 67.578125 
Q 31 67.578125 36.390625 62.40625 
Q 41.796875 57.234375 41.796875 50.203125 
Q 41.796875 45.171875 39.453125 40.140625 
Q 35.84375 32.234375 27.734375 23.390625 
Q 15.578125 10.109375 12.546875 7.375 
L 29.828125 7.375 
Q 35.109375 7.375 37.234375 7.765625 
Q 39.359375 8.15625 41.0625 9.34375 
Q 42.78125 10.546875 44.046875 12.75 
z
" id="TimesNewRomanPSMT-50"/>
       </defs>
       <use xlink:href="#TimesNewRomanPSMT-50"/>
      </g>
     </g>
    </g>
    <g id="xtick_2">
     <g id="line2d_2">
      <g>
       <use style="stroke:#000000;stroke-width:0.8;" x="153.933116" xlink:href="#m351a1a0e35" y="102.4"/>
      </g>
     </g>
     <g id="text_2">
      <!-- 4 -->
      <g transform="translate(151.933116 114.955)scale(0.08 -0.08)">
       <defs>
        <path d="M 46.53125 24.421875 
L 46.53125 17.484375 
L 37.640625 17.484375 
L 37.640625 0 
L 29.59375 0 
L 29.59375 17.484375 
L 1.5625 17.484375 
L 1.5625 23.734375 
L 32.28125 67.578125 
L 37.640625 67.578125 
L 37.640625 24.421875 
z
M 29.59375 24.421875 
L 29.59375 57.28125 
L 6.34375 24.421875 
z
" id="TimesNewRomanPSMT-52"/>
       </defs>
       <use xlink:href="#TimesNewRomanPSMT-52"/>
      </g>
     </g>
    </g>
    <g id="xtick_3">
     <g id="line2d_3">
      <g>
       <use style="stroke:#000000;stroke-width:0.8;" x="215.759378" xlink:href="#m351a1a0e35" y="102.4"/>
      </g>
     </g>
     <g id="text_3">
      <!-- 6 -->
      <g transform="translate(213.759378 114.955)scale(0.08 -0.08)">
       <defs>
        <path d="M 44.828125 67.578125 
L 44.828125 65.765625 
Q 38.375 65.140625 34.296875 63.203125 
Q 30.21875 61.28125 26.234375 57.328125 
Q 22.265625 53.375 19.65625 48.515625 
Q 17.046875 43.65625 15.28125 36.96875 
Q 22.3125 41.796875 29.390625 41.796875 
Q 36.1875 41.796875 41.15625 36.328125 
Q 46.140625 30.859375 46.140625 22.265625 
Q 46.140625 13.96875 41.109375 7.125 
Q 35.0625 -1.171875 25.09375 -1.171875 
Q 18.3125 -1.171875 13.578125 3.328125 
Q 4.296875 12.0625 4.296875 25.984375 
Q 4.296875 34.859375 7.859375 42.859375 
Q 11.421875 50.875 18.03125 57.078125 
Q 24.65625 63.28125 30.703125 65.421875 
Q 36.765625 67.578125 42 67.578125 
z
M 14.453125 33.40625 
Q 13.578125 26.8125 13.578125 22.75 
Q 13.578125 18.0625 15.3125 12.5625 
Q 17.046875 7.078125 20.453125 3.859375 
Q 22.953125 1.5625 26.515625 1.5625 
Q 30.765625 1.5625 34.109375 5.5625 
Q 37.453125 9.578125 37.453125 17 
Q 37.453125 25.34375 34.125 31.4375 
Q 30.8125 37.546875 24.703125 37.546875 
Q 22.859375 37.546875 20.734375 36.765625 
Q 18.609375 35.984375 14.453125 33.40625 
z
" id="TimesNewRomanPSMT-54"/>
       </defs>
       <use xlink:href="#TimesNewRomanPSMT-54"/>
      </g>
     </g>
    </g>
    <g id="xtick_4">
     <g id="line2d_4">
      <g>
       <use style="stroke:#000000;stroke-width:0.8;" x="277.585641" xlink:href="#m351a1a0e35" y="102.4"/>
      </g>
     </g>
     <g id="text_4">
      <!-- 8 -->
      <g transform="translate(275.585641 114.955)scale(0.08 -0.08)">
       <defs>
        <path d="M 19.1875 33.34375 
Q 11.328125 39.796875 9.046875 43.703125 
Q 6.78125 47.609375 6.78125 51.8125 
Q 6.78125 58.25 11.765625 62.90625 
Q 16.75 67.578125 25 67.578125 
Q 33.015625 67.578125 37.890625 63.234375 
Q 42.78125 58.890625 42.78125 53.328125 
Q 42.78125 49.609375 40.140625 45.75 
Q 37.5 41.890625 29.15625 36.671875 
Q 37.75 30.03125 40.53125 26.21875 
Q 44.234375 21.234375 44.234375 15.71875 
Q 44.234375 8.734375 38.90625 3.78125 
Q 33.59375 -1.171875 24.953125 -1.171875 
Q 15.53125 -1.171875 10.25 4.734375 
Q 6.0625 9.46875 6.0625 15.09375 
Q 6.0625 19.484375 9.015625 23.796875 
Q 11.96875 28.125 19.1875 33.34375 
z
M 26.859375 38.578125 
Q 32.71875 43.84375 34.28125 46.890625 
Q 35.84375 49.953125 35.84375 53.8125 
Q 35.84375 58.9375 32.953125 61.84375 
Q 30.078125 64.75 25.09375 64.75 
Q 20.125 64.75 17 61.859375 
Q 13.875 58.984375 13.875 55.125 
Q 13.875 52.59375 15.15625 50.046875 
Q 16.453125 47.515625 18.84375 45.21875 
z
M 21.484375 31.5 
Q 17.4375 28.078125 15.484375 24.046875 
Q 13.53125 20.015625 13.53125 15.328125 
Q 13.53125 9.03125 16.96875 5.25 
Q 20.40625 1.46875 25.734375 1.46875 
Q 31 1.46875 34.171875 4.4375 
Q 37.359375 7.421875 37.359375 11.671875 
Q 37.359375 15.1875 35.5 17.96875 
Q 32.03125 23.140625 21.484375 31.5 
z
" id="TimesNewRomanPSMT-56"/>
       </defs>
       <use xlink:href="#TimesNewRomanPSMT-56"/>
      </g>
     </g>
    </g>
    <g id="xtick_5">
     <g id="line2d_5">
      <g>
       <use style="stroke:#000000;stroke-width:0.8;" x="339.411903" xlink:href="#m351a1a0e35" y="102.4"/>
      </g>
     </g>
     <g id="text_5">
      <!-- 10 -->
      <g transform="translate(335.411903 114.955)scale(0.08 -0.08)">
       <defs>
        <path d="M 11.71875 59.71875 
L 27.828125 67.578125 
L 29.4375 67.578125 
L 29.4375 11.671875 
Q 29.4375 6.109375 29.90625 4.734375 
Q 30.375 3.375 31.828125 2.640625 
Q 33.296875 1.90625 37.796875 1.8125 
L 37.796875 0 
L 12.890625 0 
L 12.890625 1.8125 
Q 17.578125 1.90625 18.9375 2.609375 
Q 20.3125 3.328125 20.84375 4.515625 
Q 21.390625 5.71875 21.390625 11.671875 
L 21.390625 47.40625 
Q 21.390625 54.640625 20.90625 56.6875 
Q 20.5625 58.25 19.65625 58.984375 
Q 18.75 59.71875 17.484375 59.71875 
Q 15.671875 59.71875 12.453125 58.203125 
z
" id="TimesNewRomanPSMT-49"/>
        <path d="M 3.609375 32.71875 
Q 3.609375 44.046875 7.03125 52.21875 
Q 10.453125 60.40625 16.109375 64.40625 
Q 20.515625 67.578125 25.203125 67.578125 
Q 32.8125 67.578125 38.875 59.8125 
Q 46.4375 50.203125 46.4375 33.734375 
Q 46.4375 22.21875 43.109375 14.15625 
Q 39.796875 6.109375 34.640625 2.46875 
Q 29.5 -1.171875 24.703125 -1.171875 
Q 15.234375 -1.171875 8.9375 10.015625 
Q 3.609375 19.4375 3.609375 32.71875 
z
M 13.1875 31.5 
Q 13.1875 17.828125 16.546875 9.1875 
Q 19.34375 1.90625 24.859375 1.90625 
Q 27.484375 1.90625 30.3125 4.265625 
Q 33.15625 6.640625 34.625 12.203125 
Q 36.859375 20.609375 36.859375 35.890625 
Q 36.859375 47.21875 34.515625 54.78125 
Q 32.765625 60.40625 29.984375 62.75 
Q 27.984375 64.359375 25.140625 64.359375 
Q 21.828125 64.359375 19.234375 61.375 
Q 15.71875 57.328125 14.453125 48.625 
Q 13.1875 39.9375 13.1875 31.5 
z
" id="TimesNewRomanPSMT-48"/>
       </defs>
       <use xlink:href="#TimesNewRomanPSMT-49"/>
       <use x="50" xlink:href="#TimesNewRomanPSMT-48"/>
      </g>
     </g>
    </g>
    <g id="text_6">
     <!-- X label -->
     <g transform="translate(185.724687 127.61)scale(0.1 -0.1)">
      <defs>
       <path d="M 40.828125 36.671875 
L 55.03125 15.484375 
Q 60.9375 6.6875 63.796875 4.359375 
Q 66.65625 2.046875 71.046875 1.8125 
L 71.046875 0 
L 42.625 0 
L 42.625 1.8125 
Q 45.453125 1.859375 46.828125 2.390625 
Q 47.859375 2.828125 48.515625 3.734375 
Q 49.171875 4.640625 49.171875 5.5625 
Q 49.171875 6.6875 48.734375 7.8125 
Q 48.390625 8.640625 46.046875 12.109375 
L 34.8125 29.109375 
L 20.953125 11.328125 
Q 18.75 8.5 18.3125 7.546875 
Q 17.875 6.59375 17.875 5.5625 
Q 17.875 4 19.1875 2.96875 
Q 20.515625 1.953125 24.21875 1.8125 
L 24.21875 0 
L 0.734375 0 
L 0.734375 1.8125 
Q 3.21875 2.046875 5.03125 2.828125 
Q 8.0625 4.109375 10.796875 6.25 
Q 13.53125 8.40625 17.046875 12.84375 
L 32.671875 32.5625 
L 19.625 51.65625 
Q 14.3125 59.421875 10.59375 61.84375 
Q 6.890625 64.265625 2.046875 64.40625 
L 2.046875 66.21875 
L 32.671875 66.21875 
L 32.671875 64.40625 
Q 28.765625 64.265625 27.3125 63.140625 
Q 25.875 62.015625 25.875 60.640625 
Q 25.875 58.84375 28.21875 55.375 
L 38.375 40.1875 
L 50.140625 55.078125 
Q 52.203125 57.71875 52.65625 58.6875 
Q 53.125 59.671875 53.125 60.6875 
Q 53.125 61.71875 52.546875 62.5 
Q 51.8125 63.53125 50.6875 63.9375 
Q 49.5625 64.359375 46.046875 64.40625 
L 46.046875 66.21875 
L 69.53125 66.21875 
L 69.53125 64.40625 
Q 66.75 64.265625 64.984375 63.53125 
Q 62.359375 62.40625 60.15625 60.5 
Q 57.953125 58.59375 53.953125 53.46875 
z
" id="TimesNewRomanPSMT-88"/>
       <path id="TimesNewRomanPSMT-32"/>
       <path d="M 18.5 69.4375 
L 18.5 10.109375 
Q 18.5 5.90625 19.109375 4.53125 
Q 19.734375 3.171875 21 2.46875 
Q 22.265625 1.765625 25.734375 1.765625 
L 25.734375 0 
L 3.8125 0 
L 3.8125 1.765625 
Q 6.890625 1.765625 8 2.390625 
Q 9.125 3.03125 9.765625 4.484375 
Q 10.40625 5.953125 10.40625 10.109375 
L 10.40625 50.734375 
Q 10.40625 58.296875 10.0625 60.03125 
Q 9.71875 61.765625 8.953125 62.390625 
Q 8.203125 63.03125 7.03125 63.03125 
Q 5.765625 63.03125 3.8125 62.25 
L 2.984375 63.96875 
L 16.3125 69.4375 
z
" id="TimesNewRomanPSMT-108"/>
       <path d="M 28.46875 6.453125 
Q 21.578125 1.125 19.828125 0.296875 
Q 17.1875 -0.921875 14.203125 -0.921875 
Q 9.578125 -0.921875 6.5625 2.25 
Q 3.5625 5.421875 3.5625 10.59375 
Q 3.5625 13.875 5.03125 16.265625 
Q 7.03125 19.578125 11.984375 22.5 
Q 16.9375 25.4375 28.46875 29.640625 
L 28.46875 31.390625 
Q 28.46875 38.09375 26.34375 40.578125 
Q 24.21875 43.0625 20.171875 43.0625 
Q 17.09375 43.0625 15.28125 41.40625 
Q 13.421875 39.75 13.421875 37.59375 
L 13.53125 34.765625 
Q 13.53125 32.515625 12.375 31.296875 
Q 11.234375 30.078125 9.375 30.078125 
Q 7.5625 30.078125 6.421875 31.34375 
Q 5.28125 32.625 5.28125 34.8125 
Q 5.28125 39.015625 9.578125 42.53125 
Q 13.875 46.046875 21.625 46.046875 
Q 27.59375 46.046875 31.390625 44.046875 
Q 34.28125 42.53125 35.640625 39.3125 
Q 36.53125 37.203125 36.53125 30.71875 
L 36.53125 15.53125 
Q 36.53125 9.125 36.765625 7.6875 
Q 37.015625 6.25 37.578125 5.765625 
Q 38.140625 5.28125 38.875 5.28125 
Q 39.65625 5.28125 40.234375 5.609375 
Q 41.265625 6.25 44.1875 9.1875 
L 44.1875 6.453125 
Q 38.71875 -0.875 33.734375 -0.875 
Q 31.34375 -0.875 29.921875 0.78125 
Q 28.515625 2.4375 28.46875 6.453125 
z
M 28.46875 9.625 
L 28.46875 26.65625 
Q 21.09375 23.734375 18.953125 22.515625 
Q 15.09375 20.359375 13.421875 18.015625 
Q 11.765625 15.671875 11.765625 12.890625 
Q 11.765625 9.375 13.859375 7.046875 
Q 15.96875 4.734375 18.703125 4.734375 
Q 22.40625 4.734375 28.46875 9.625 
z
" id="TimesNewRomanPSMT-97"/>
       <path d="M 15.375 37.015625 
Q 21.875 46.046875 29.390625 46.046875 
Q 36.28125 46.046875 41.40625 40.15625 
Q 46.53125 34.28125 46.53125 24.078125 
Q 46.53125 12.15625 38.625 4.890625 
Q 31.84375 -1.375 23.484375 -1.375 
Q 19.578125 -1.375 15.546875 0.046875 
Q 11.53125 1.46875 7.328125 4.296875 
L 7.328125 50.640625 
Q 7.328125 58.25 6.953125 60 
Q 6.59375 61.765625 5.8125 62.390625 
Q 5.03125 63.03125 3.859375 63.03125 
Q 2.484375 63.03125 0.4375 62.25 
L -0.25 63.96875 
L 13.1875 69.4375 
L 15.375 69.4375 
z
M 15.375 33.890625 
L 15.375 7.125 
Q 17.875 4.6875 20.53125 3.4375 
Q 23.1875 2.203125 25.984375 2.203125 
Q 30.421875 2.203125 34.25 7.078125 
Q 38.09375 11.96875 38.09375 21.296875 
Q 38.09375 29.890625 34.25 34.5 
Q 30.421875 39.109375 25.53125 39.109375 
Q 22.953125 39.109375 20.359375 37.796875 
Q 18.40625 36.8125 15.375 33.890625 
z
" id="TimesNewRomanPSMT-98"/>
       <path d="M 10.640625 27.875 
Q 10.59375 17.921875 15.484375 12.25 
Q 20.359375 6.59375 26.953125 6.59375 
Q 31.34375 6.59375 34.59375 9 
Q 37.84375 11.421875 40.046875 17.28125 
L 41.546875 16.3125 
Q 40.53125 9.625 35.59375 4.125 
Q 30.671875 -1.375 23.25 -1.375 
Q 15.1875 -1.375 9.453125 4.90625 
Q 3.71875 11.1875 3.71875 21.78125 
Q 3.71875 33.25 9.59375 39.671875 
Q 15.484375 46.09375 24.359375 46.09375 
Q 31.890625 46.09375 36.71875 41.140625 
Q 41.546875 36.1875 41.546875 27.875 
z
M 10.640625 30.71875 
L 31.34375 30.71875 
Q 31.109375 35.015625 30.328125 36.765625 
Q 29.109375 39.5 26.6875 41.0625 
Q 24.265625 42.625 21.625 42.625 
Q 17.578125 42.625 14.375 39.46875 
Q 11.1875 36.328125 10.640625 30.71875 
z
" id="TimesNewRomanPSMT-101"/>
      </defs>
      <use xlink:href="#TimesNewRomanPSMT-88"/>
      <use x="72.216797" xlink:href="#TimesNewRomanPSMT-32"/>
      <use x="97.216797" xlink:href="#TimesNewRomanPSMT-108"/>
      <use x="125" xlink:href="#TimesNewRomanPSMT-97"/>
      <use x="169.384766" xlink:href="#TimesNewRomanPSMT-98"/>
      <use x="219.384766" xlink:href="#TimesNewRomanPSMT-101"/>
      <use x="263.769531" xlink:href="#TimesNewRomanPSMT-108"/>
     </g>
    </g>
   </g>
   <g id="matplotlib.axis_2">
    <g id="ytick_1">
     <g id="line2d_6">
      <defs>
       <path d="M 0 0 
L -3.5 0 
" id="m97da6c18e3" style="stroke:#000000;stroke-width:0.8;"/>
      </defs>
      <g>
       <use style="stroke:#000000;stroke-width:0.8;" x="47.282813" xlink:href="#m97da6c18e3" y="98.105512"/>
      </g>
     </g>
     <g id="text_7">
      <!-- −1.0 -->
      <g transform="translate(25.771563 100.883012)scale(0.08 -0.08)">
       <defs>
        <path d="M 54.4375 31.25 
L 1.8125 31.25 
L 1.8125 35.25 
L 54.4375 35.25 
z
" id="TimesNewRomanPSMT-8722"/>
        <path d="M 12.5 9.46875 
Q 14.796875 9.46875 16.359375 7.875 
Q 17.921875 6.296875 17.921875 4.046875 
Q 17.921875 1.8125 16.328125 0.21875 
Q 14.75 -1.375 12.5 -1.375 
Q 10.25 -1.375 8.65625 0.21875 
Q 7.078125 1.8125 7.078125 4.046875 
Q 7.078125 6.34375 8.65625 7.90625 
Q 10.25 9.46875 12.5 9.46875 
z
" id="TimesNewRomanPSMT-46"/>
       </defs>
       <use xlink:href="#TimesNewRomanPSMT-8722"/>
       <use x="56.396484" xlink:href="#TimesNewRomanPSMT-49"/>
       <use x="106.396484" xlink:href="#TimesNewRomanPSMT-46"/>
       <use x="131.396484" xlink:href="#TimesNewRomanPSMT-48"/>
      </g>
     </g>
    </g>
    <g id="ytick_2">
     <g id="line2d_7">
      <g>
       <use style="stroke:#000000;stroke-width:0.8;" x="47.282813" xlink:href="#m97da6c18e3" y="76.458836"/>
      </g>
     </g>
     <g id="text_8">
      <!-- −0.5 -->
      <g transform="translate(25.771563 79.236336)scale(0.08 -0.08)">
       <defs>
        <path d="M 43.40625 66.21875 
L 39.59375 57.90625 
L 19.671875 57.90625 
L 15.328125 49.03125 
Q 28.265625 47.125 35.84375 39.40625 
Q 42.328125 32.765625 42.328125 23.78125 
Q 42.328125 18.5625 40.203125 14.109375 
Q 38.09375 9.671875 34.859375 6.546875 
Q 31.640625 3.421875 27.6875 1.515625 
Q 22.078125 -1.171875 16.15625 -1.171875 
Q 10.203125 -1.171875 7.484375 0.84375 
Q 4.78125 2.875 4.78125 5.328125 
Q 4.78125 6.6875 5.90625 7.734375 
Q 7.03125 8.796875 8.734375 8.796875 
Q 10.015625 8.796875 10.96875 8.40625 
Q 11.921875 8.015625 14.203125 6.390625 
Q 17.875 3.859375 21.625 3.859375 
Q 27.34375 3.859375 31.65625 8.171875 
Q 35.984375 12.5 35.984375 18.703125 
Q 35.984375 24.703125 32.125 29.90625 
Q 28.265625 35.109375 21.484375 37.9375 
Q 16.15625 40.140625 6.984375 40.484375 
L 19.671875 66.21875 
z
" id="TimesNewRomanPSMT-53"/>
       </defs>
       <use xlink:href="#TimesNewRomanPSMT-8722"/>
       <use x="56.396484" xlink:href="#TimesNewRomanPSMT-48"/>
       <use x="106.396484" xlink:href="#TimesNewRomanPSMT-46"/>
       <use x="131.396484" xlink:href="#TimesNewRomanPSMT-53"/>
      </g>
     </g>
    </g>
    <g id="ytick_3">
     <g id="line2d_8">
      <g>
       <use style="stroke:#000000;stroke-width:0.8;" x="47.282813" xlink:href="#m97da6c18e3" y="54.81216"/>
      </g>
     </g>
     <g id="text_9">
      <!-- 0.0 -->
      <g transform="translate(30.282813 57.58966)scale(0.08 -0.08)">
       <use xlink:href="#TimesNewRomanPSMT-48"/>
       <use x="50" xlink:href="#TimesNewRomanPSMT-46"/>
       <use x="75" xlink:href="#TimesNewRomanPSMT-48"/>
      </g>
     </g>
    </g>
    <g id="ytick_4">
     <g id="line2d_9">
      <g>
       <use style="stroke:#000000;stroke-width:0.8;" x="47.282813" xlink:href="#m97da6c18e3" y="33.165483"/>
      </g>
     </g>
     <g id="text_10">
      <!-- 0.5 -->
      <g transform="translate(30.282813 35.942983)scale(0.08 -0.08)">
       <use xlink:href="#TimesNewRomanPSMT-48"/>
       <use x="50" xlink:href="#TimesNewRomanPSMT-46"/>
       <use x="75" xlink:href="#TimesNewRomanPSMT-53"/>
      </g>
     </g>
    </g>
    <g id="ytick_5">
     <g id="line2d_10">
      <g>
       <use style="stroke:#000000;stroke-width:0.8;" x="47.282813" xlink:href="#m97da6c18e3" y="11.518807"/>
      </g>
     </g>
     <g id="text_11">
      <!-- 1.0 -->
      <g transform="translate(30.282813 14.296307)scale(0.08 -0.08)">
       <use xlink:href="#TimesNewRomanPSMT-49"/>
       <use x="50" xlink:href="#TimesNewRomanPSMT-46"/>
       <use x="75" xlink:href="#TimesNewRomanPSMT-48"/>
      </g>
     </g>
    </g>
    <g id="text_12">
     <!-- Y label -->
     <g transform="translate(19.6325 69.190625)rotate(-90)scale(0.1 -0.1)">
      <defs>
       <path d="M 47.65625 66.21875 
L 70.75 66.21875 
L 70.75 64.40625 
L 69.484375 64.40625 
Q 68.21875 64.40625 65.765625 63.28125 
Q 63.328125 62.15625 61.328125 60.046875 
Q 59.328125 57.953125 56.390625 53.21875 
L 40.4375 28.078125 
L 40.4375 11.46875 
Q 40.4375 5.375 41.796875 3.859375 
Q 43.65625 1.8125 47.65625 1.8125 
L 49.8125 1.8125 
L 49.8125 0 
L 21.6875 0 
L 21.6875 1.8125 
L 24.03125 1.8125 
Q 28.21875 1.8125 29.984375 4.34375 
Q 31.0625 5.90625 31.0625 11.46875 
L 31.0625 27.15625 
L 12.890625 54.890625 
Q 9.671875 59.765625 8.515625 60.984375 
Q 7.375 62.203125 3.765625 63.921875 
Q 2.78125 64.40625 0.921875 64.40625 
L 0.921875 66.21875 
L 29.25 66.21875 
L 29.25 64.40625 
L 27.78125 64.40625 
Q 25.484375 64.40625 23.546875 63.328125 
Q 21.625 62.25 21.625 60.109375 
Q 21.625 58.34375 24.609375 53.765625 
L 38.421875 32.421875 
L 51.421875 52.828125 
Q 54.34375 57.421875 54.34375 59.671875 
Q 54.34375 61.03125 53.640625 62.109375 
Q 52.9375 63.1875 51.609375 63.796875 
Q 50.296875 64.40625 47.65625 64.40625 
z
" id="TimesNewRomanPSMT-89"/>
      </defs>
      <use xlink:href="#TimesNewRomanPSMT-89"/>
      <use x="68.466797" xlink:href="#TimesNewRomanPSMT-32"/>
      <use x="93.466797" xlink:href="#TimesNewRomanPSMT-108"/>
      <use x="121.25" xlink:href="#TimesNewRomanPSMT-97"/>
      <use x="165.634766" xlink:href="#TimesNewRomanPSMT-98"/>
      <use x="215.634766" xlink:href="#TimesNewRomanPSMT-101"/>
      <use x="260.019531" xlink:href="#TimesNewRomanPSMT-108"/>
     </g>
    </g>
   </g>
   <g id="line2d_11">
    <path clip-path="url(#p0f812b0b0f)" d="M 61.193722 18.38206 
L 66.871644 14.722555 
L 72.549566 12.411713 
L 78.227488 11.527273 
L 83.90541 12.098989 
L 89.583332 14.107627 
L 95.261254 17.485615 
L 100.939176 22.119313 
L 106.617098 27.852838 
L 112.29502 34.493307 
L 117.972942 41.817327 
L 123.650864 49.578509 
L 129.328787 57.515757 
L 135.006709 65.362052 
L 140.684631 72.853437 
L 146.362553 79.737891 
L 152.040475 85.783814 
L 157.718397 90.787812 
L 163.396319 94.581547 
L 169.074241 97.037391 
L 174.752163 98.072727 
L 180.430085 97.652726 
L 186.108007 95.791516 
L 191.785929 92.551712 
L 197.463851 88.042303 
L 203.141774 82.414992 
L 208.819696 75.859088 
L 214.497618 68.595141 
L 220.17554 60.867517 
L 225.853462 52.936184 
L 231.531384 45.067961 
L 237.209306 37.527544 
L 242.887228 30.568603 
L 248.56515 24.425244 
L 254.243072 19.304138 
L 259.920994 15.377565 
L 265.598916 12.777618 
L 271.276838 11.591765 
L 276.954761 11.859898 
L 282.632683 13.572997 
L 288.310605 16.673431 
L 293.988527 21.056898 
L 299.666449 26.575932 
L 305.344371 33.044868 
L 311.022293 40.246081 
L 316.700215 47.937315 
L 322.378137 55.859827 
L 328.056059 63.747094 
L 333.733981 71.333779 
L 339.411903 78.364657 
" style="fill:none;stroke:#1f77b3;stroke-linecap:square;stroke-width:1.5;"/>
   </g>
   <g id="patch_3">
    <path d="M 47.282813 102.4 
L 47.282813 7.2 
" style="fill:none;stroke:#000000;stroke-linecap:square;stroke-linejoin:miter;stroke-width:0.8;"/>
   </g>
   <g id="patch_4">
    <path d="M 353.322812 102.4 
L 353.322812 7.2 
" style="fill:none;stroke:#000000;stroke-linecap:square;stroke-linejoin:miter;stroke-width:0.8;"/>
   </g>
   <g id="patch_5">
    <path d="M 47.282813 102.4 
L 353.322812 102.4 
" style="fill:none;stroke:#000000;stroke-linecap:square;stroke-linejoin:miter;stroke-width:0.8;"/>
   </g>
   <g id="patch_6">
    <path d="M 47.282813 7.2 
L 353.322812 7.2 
" style="fill:none;stroke:#000000;stroke-linecap:square;stroke-linejoin:miter;stroke-width:0.8;"/>
   </g>
   <g id="legend_1">
    <g id="line2d_12">
     <path d="M 319.722812 17.2 
L 335.722812 17.2 
" style="fill:none;stroke:#1f77b3;stroke-linecap:square;stroke-width:1.5;"/>
    </g>
    <g id="line2d_13"/>
    <g id="text_13">
     <!-- 0 -->
     <g transform="translate(342.122812 20)scale(0.08 -0.08)">
      <use xlink:href="#TimesNewRomanPSMT-48"/>
     </g>
    </g>
   </g>
  </g>
  <g id="axes_2">
   <g id="patch_7">
    <path d="M 402.962812 102.4 
L 709.002812 102.4 
L 709.002812 7.2 
L 402.962812 7.2 
z
" style="fill:#ffffff;"/>
   </g>
   <g id="matplotlib.axis_3">
    <g id="xtick_6">
     <g id="line2d_14">
      <g>
       <use style="stroke:#000000;stroke-width:0.8;" x="447.786853" xlink:href="#m351a1a0e35" y="102.4"/>
      </g>
     </g>
     <g id="text_14">
      <!-- 2 -->
      <g transform="translate(445.786853 114.955)scale(0.08 -0.08)">
       <use xlink:href="#TimesNewRomanPSMT-50"/>
      </g>
     </g>
    </g>
    <g id="xtick_7">
     <g id="line2d_15">
      <g>
       <use style="stroke:#000000;stroke-width:0.8;" x="509.613116" xlink:href="#m351a1a0e35" y="102.4"/>
      </g>
     </g>
     <g id="text_15">
      <!-- 4 -->
      <g transform="translate(507.613116 114.955)scale(0.08 -0.08)">
       <use xlink:href="#TimesNewRomanPSMT-52"/>
      </g>
     </g>
    </g>
    <g id="xtick_8">
     <g id="line2d_16">
      <g>
       <use style="stroke:#000000;stroke-width:0.8;" x="571.439378" xlink:href="#m351a1a0e35" y="102.4"/>
      </g>
     </g>
     <g id="text_16">
      <!-- 6 -->
      <g transform="translate(569.439378 114.955)scale(0.08 -0.08)">
       <use xlink:href="#TimesNewRomanPSMT-54"/>
      </g>
     </g>
    </g>
    <g id="xtick_9">
     <g id="line2d_17">
      <g>
       <use style="stroke:#000000;stroke-width:0.8;" x="633.265641" xlink:href="#m351a1a0e35" y="102.4"/>
      </g>
     </g>
     <g id="text_17">
      <!-- 8 -->
      <g transform="translate(631.265641 114.955)scale(0.08 -0.08)">
       <use xlink:href="#TimesNewRomanPSMT-56"/>
      </g>
     </g>
    </g>
    <g id="xtick_10">
     <g id="line2d_18">
      <g>
       <use style="stroke:#000000;stroke-width:0.8;" x="695.091903" xlink:href="#m351a1a0e35" y="102.4"/>
      </g>
     </g>
     <g id="text_18">
      <!-- 10 -->
      <g transform="translate(691.091903 114.955)scale(0.08 -0.08)">
       <use xlink:href="#TimesNewRomanPSMT-49"/>
       <use x="50" xlink:href="#TimesNewRomanPSMT-48"/>
      </g>
     </g>
    </g>
    <g id="text_19">
     <!-- X label -->
     <g transform="translate(541.404687 127.61)scale(0.1 -0.1)">
      <use xlink:href="#TimesNewRomanPSMT-88"/>
      <use x="72.216797" xlink:href="#TimesNewRomanPSMT-32"/>
      <use x="97.216797" xlink:href="#TimesNewRomanPSMT-108"/>
      <use x="125" xlink:href="#TimesNewRomanPSMT-97"/>
      <use x="169.384766" xlink:href="#TimesNewRomanPSMT-98"/>
      <use x="219.384766" xlink:href="#TimesNewRomanPSMT-101"/>
      <use x="263.769531" xlink:href="#TimesNewRomanPSMT-108"/>
     </g>
    </g>
   </g>
   <g id="matplotlib.axis_4">
    <g id="ytick_6">
     <g id="line2d_19">
      <g>
       <use style="stroke:#000000;stroke-width:0.8;" x="402.962812" xlink:href="#m97da6c18e3" y="98.085407"/>
      </g>
     </g>
     <g id="text_20">
      <!-- −1.0 -->
      <g transform="translate(381.451562 100.862907)scale(0.08 -0.08)">
       <use xlink:href="#TimesNewRomanPSMT-8722"/>
       <use x="56.396484" xlink:href="#TimesNewRomanPSMT-49"/>
       <use x="106.396484" xlink:href="#TimesNewRomanPSMT-46"/>
       <use x="131.396484" xlink:href="#TimesNewRomanPSMT-48"/>
      </g>
     </g>
    </g>
    <g id="ytick_7">
     <g id="line2d_20">
      <g>
       <use style="stroke:#000000;stroke-width:0.8;" x="402.962812" xlink:href="#m97da6c18e3" y="76.435706"/>
      </g>
     </g>
     <g id="text_21">
      <!-- −0.5 -->
      <g transform="translate(381.451562 79.213206)scale(0.08 -0.08)">
       <use xlink:href="#TimesNewRomanPSMT-8722"/>
       <use x="56.396484" xlink:href="#TimesNewRomanPSMT-48"/>
       <use x="106.396484" xlink:href="#TimesNewRomanPSMT-46"/>
       <use x="131.396484" xlink:href="#TimesNewRomanPSMT-53"/>
      </g>
     </g>
    </g>
    <g id="ytick_8">
     <g id="line2d_21">
      <g>
       <use style="stroke:#000000;stroke-width:0.8;" x="402.962812" xlink:href="#m97da6c18e3" y="54.786005"/>
      </g>
     </g>
     <g id="text_22">
      <!-- 0.0 -->
      <g transform="translate(385.962812 57.563505)scale(0.08 -0.08)">
       <use xlink:href="#TimesNewRomanPSMT-48"/>
       <use x="50" xlink:href="#TimesNewRomanPSMT-46"/>
       <use x="75" xlink:href="#TimesNewRomanPSMT-48"/>
      </g>
     </g>
    </g>
    <g id="ytick_9">
     <g id="line2d_22">
      <g>
       <use style="stroke:#000000;stroke-width:0.8;" x="402.962812" xlink:href="#m97da6c18e3" y="33.136304"/>
      </g>
     </g>
     <g id="text_23">
      <!-- 0.5 -->
      <g transform="translate(385.962812 35.913804)scale(0.08 -0.08)">
       <use xlink:href="#TimesNewRomanPSMT-48"/>
       <use x="50" xlink:href="#TimesNewRomanPSMT-46"/>
       <use x="75" xlink:href="#TimesNewRomanPSMT-53"/>
      </g>
     </g>
    </g>
    <g id="ytick_10">
     <g id="line2d_23">
      <g>
       <use style="stroke:#000000;stroke-width:0.8;" x="402.962812" xlink:href="#m97da6c18e3" y="11.486603"/>
      </g>
     </g>
     <g id="text_24">
      <!-- 1.0 -->
      <g transform="translate(385.962812 14.264103)scale(0.08 -0.08)">
       <use xlink:href="#TimesNewRomanPSMT-49"/>
       <use x="50" xlink:href="#TimesNewRomanPSMT-46"/>
       <use x="75" xlink:href="#TimesNewRomanPSMT-48"/>
      </g>
     </g>
    </g>
    <g id="text_25">
     <!-- Y label -->
     <g transform="translate(375.3125 69.190625)rotate(-90)scale(0.1 -0.1)">
      <use xlink:href="#TimesNewRomanPSMT-89"/>
      <use x="68.466797" xlink:href="#TimesNewRomanPSMT-32"/>
      <use x="93.466797" xlink:href="#TimesNewRomanPSMT-108"/>
      <use x="121.25" xlink:href="#TimesNewRomanPSMT-97"/>
      <use x="165.634766" xlink:href="#TimesNewRomanPSMT-98"/>
      <use x="215.634766" xlink:href="#TimesNewRomanPSMT-101"/>
      <use x="260.019531" xlink:href="#TimesNewRomanPSMT-108"/>
     </g>
    </g>
   </g>
   <g id="line2d_24">
    <path clip-path="url(#p125132985a)" d="M 416.873722 31.391239 
L 422.551644 38.439366 
L 428.229566 46.037414 
L 433.907488 53.929776 
L 439.58541 61.850942 
L 445.263332 69.534435 
L 450.941254 76.721773 
L 456.619176 83.171165 
L 462.297098 88.665646 
L 467.97502 93.020376 
L 473.652942 96.088854 
L 479.330864 97.767856 
L 485.008787 98.000895 
L 490.686709 96.780134 
L 496.364631 94.14664 
L 502.042553 90.189006 
L 507.720475 85.040373 
L 513.398397 78.873946 
L 519.076319 71.897172 
L 524.754241 64.344757 
L 530.432163 56.470775 
L 536.110085 48.540115 
L 541.788007 40.819574 
L 547.465929 33.568881 
L 553.143851 27.031957 
L 558.821774 21.428713 
L 564.499696 16.947649 
L 570.177618 13.739513 
L 575.85554 11.91223 
L 581.533462 11.527273 
L 587.211384 12.597592 
L 592.889306 15.087179 
L 598.567228 18.912284 
L 604.24515 23.944223 
L 609.923072 30.013718 
L 615.600994 36.916582 
L 621.278916 44.420595 
L 626.956838 52.273313 
L 632.634761 60.210561 
L 638.312683 67.96532 
L 643.990605 75.276712 
L 649.668527 81.898771 
L 655.346449 87.608724 
L 661.024371 92.214481 
L 666.702293 95.561099 
L 672.380215 97.535994 
L 678.058137 98.072727 
L 683.736059 97.153243 
L 689.413981 94.808474 
L 695.091903 91.117301 
" style="fill:none;stroke:#fe7f0e;stroke-linecap:square;stroke-width:1.5;"/>
   </g>
   <g id="patch_8">
    <path d="M 402.962812 102.4 
L 402.962812 7.2 
" style="fill:none;stroke:#000000;stroke-linecap:square;stroke-linejoin:miter;stroke-width:0.8;"/>
   </g>
   <g id="patch_9">
    <path d="M 709.002812 102.4 
L 709.002812 7.2 
" style="fill:none;stroke:#000000;stroke-linecap:square;stroke-linejoin:miter;stroke-width:0.8;"/>
   </g>
   <g id="patch_10">
    <path d="M 402.962812 102.4 
L 709.002812 102.4 
" style="fill:none;stroke:#000000;stroke-linecap:square;stroke-linejoin:miter;stroke-width:0.8;"/>
   </g>
   <g id="patch_11">
    <path d="M 402.962812 7.2 
L 709.002812 7.2 
" style="fill:none;stroke:#000000;stroke-linecap:square;stroke-linejoin:miter;stroke-width:0.8;"/>
   </g>
   <g id="legend_2">
    <g id="line2d_25">
     <path d="M 675.402812 17.2 
L 691.402812 17.2 
" style="fill:none;stroke:#fe7f0e;stroke-linecap:square;stroke-width:1.5;"/>
    </g>
    <g id="line2d_26"/>
    <g id="text_26">
     <!-- 1 -->
     <g transform="translate(697.802812 20)scale(0.08 -0.08)">
      <use xlink:href="#TimesNewRomanPSMT-49"/>
     </g>
    </g>
   </g>
  </g>
  <g id="axes_3">
   <g id="patch_12">
    <path d="M 47.282813 235.24 
L 353.322812 235.24 
L 353.322812 140.04 
L 47.282813 140.04 
z
" style="fill:#ffffff;"/>
   </g>
   <g id="matplotlib.axis_5">
    <g id="xtick_11">
     <g id="line2d_27">
      <g>
       <use style="stroke:#000000;stroke-width:0.8;" x="92.106853" xlink:href="#m351a1a0e35" y="235.24"/>
      </g>
     </g>
     <g id="text_27">
      <!-- 2 -->
      <g transform="translate(90.106853 247.795)scale(0.08 -0.08)">
       <use xlink:href="#TimesNewRomanPSMT-50"/>
      </g>
     </g>
    </g>
    <g id="xtick_12">
     <g id="line2d_28">
      <g>
       <use style="stroke:#000000;stroke-width:0.8;" x="153.933116" xlink:href="#m351a1a0e35" y="235.24"/>
      </g>
     </g>
     <g id="text_28">
      <!-- 4 -->
      <g transform="translate(151.933116 247.795)scale(0.08 -0.08)">
       <use xlink:href="#TimesNewRomanPSMT-52"/>
      </g>
     </g>
    </g>
    <g id="xtick_13">
     <g id="line2d_29">
      <g>
       <use style="stroke:#000000;stroke-width:0.8;" x="215.759378" xlink:href="#m351a1a0e35" y="235.24"/>
      </g>
     </g>
     <g id="text_29">
      <!-- 6 -->
      <g transform="translate(213.759378 247.795)scale(0.08 -0.08)">
       <use xlink:href="#TimesNewRomanPSMT-54"/>
      </g>
     </g>
    </g>
    <g id="xtick_14">
     <g id="line2d_30">
      <g>
       <use style="stroke:#000000;stroke-width:0.8;" x="277.585641" xlink:href="#m351a1a0e35" y="235.24"/>
      </g>
     </g>
     <g id="text_30">
      <!-- 8 -->
      <g transform="translate(275.585641 247.795)scale(0.08 -0.08)">
       <use xlink:href="#TimesNewRomanPSMT-56"/>
      </g>
     </g>
    </g>
    <g id="xtick_15">
     <g id="line2d_31">
      <g>
       <use style="stroke:#000000;stroke-width:0.8;" x="339.411903" xlink:href="#m351a1a0e35" y="235.24"/>
      </g>
     </g>
     <g id="text_31">
      <!-- 10 -->
      <g transform="translate(335.411903 247.795)scale(0.08 -0.08)">
       <use xlink:href="#TimesNewRomanPSMT-49"/>
       <use x="50" xlink:href="#TimesNewRomanPSMT-48"/>
      </g>
     </g>
    </g>
    <g id="text_32">
     <!-- X label -->
     <g transform="translate(185.724687 260.45)scale(0.1 -0.1)">
      <use xlink:href="#TimesNewRomanPSMT-88"/>
      <use x="72.216797" xlink:href="#TimesNewRomanPSMT-32"/>
      <use x="97.216797" xlink:href="#TimesNewRomanPSMT-108"/>
      <use x="125" xlink:href="#TimesNewRomanPSMT-97"/>
      <use x="169.384766" xlink:href="#TimesNewRomanPSMT-98"/>
      <use x="219.384766" xlink:href="#TimesNewRomanPSMT-101"/>
      <use x="263.769531" xlink:href="#TimesNewRomanPSMT-108"/>
     </g>
    </g>
   </g>
   <g id="matplotlib.axis_6">
    <g id="ytick_11">
     <g id="line2d_32">
      <g>
       <use style="stroke:#000000;stroke-width:0.8;" x="47.282813" xlink:href="#m97da6c18e3" y="219.192784"/>
      </g>
     </g>
     <g id="text_33">
      <!-- 0 -->
      <g transform="translate(36.282813 221.970284)scale(0.08 -0.08)">
       <use xlink:href="#TimesNewRomanPSMT-48"/>
      </g>
     </g>
    </g>
    <g id="ytick_12">
     <g id="line2d_33">
      <g>
       <use style="stroke:#000000;stroke-width:0.8;" x="47.282813" xlink:href="#m97da6c18e3" y="189.594061"/>
      </g>
     </g>
     <g id="text_34">
      <!-- 20 -->
      <g transform="translate(32.282813 192.371561)scale(0.08 -0.08)">
       <use xlink:href="#TimesNewRomanPSMT-50"/>
       <use x="50" xlink:href="#TimesNewRomanPSMT-48"/>
      </g>
     </g>
    </g>
    <g id="ytick_13">
     <g id="line2d_34">
      <g>
       <use style="stroke:#000000;stroke-width:0.8;" x="47.282813" xlink:href="#m97da6c18e3" y="159.995338"/>
      </g>
     </g>
     <g id="text_35">
      <!-- 40 -->
      <g transform="translate(32.282813 162.772838)scale(0.08 -0.08)">
       <use xlink:href="#TimesNewRomanPSMT-52"/>
       <use x="50" xlink:href="#TimesNewRomanPSMT-48"/>
      </g>
     </g>
    </g>
    <g id="text_36">
     <!-- Y label -->
     <g transform="translate(26.14375 202.030625)rotate(-90)scale(0.1 -0.1)">
      <use xlink:href="#TimesNewRomanPSMT-89"/>
      <use x="68.466797" xlink:href="#TimesNewRomanPSMT-32"/>
      <use x="93.466797" xlink:href="#TimesNewRomanPSMT-108"/>
      <use x="121.25" xlink:href="#TimesNewRomanPSMT-97"/>
      <use x="165.634766" xlink:href="#TimesNewRomanPSMT-98"/>
      <use x="215.634766" xlink:href="#TimesNewRomanPSMT-101"/>
      <use x="260.019531" xlink:href="#TimesNewRomanPSMT-108"/>
     </g>
    </g>
   </g>
   <g id="line2d_35">
    <path clip-path="url(#pfc82b2e88e)" d="M 61.193722 216.88792 
L 66.871644 215.562781 
L 72.549566 212.019203 
L 78.227488 144.367273 
L 83.90541 228.141427 
L 89.583332 223.277864 
L 95.261254 221.711438 
L 100.939176 220.897551 
L 106.617098 220.37059 
L 112.29502 219.979374 
L 117.972942 219.658471 
L 123.650864 219.373012 
L 129.328787 219.100183 
L 135.006709 218.820938 
L 140.684631 218.514348 
L 146.362553 218.150679 
L 152.040475 217.677549 
L 157.718397 216.982171 
L 163.396319 215.752669 
L 169.074241 212.654338 
L 174.752163 181.186506 
L 180.430085 229.345085 
L 186.108007 223.535719 
L 191.785929 221.825559 
L 197.463851 220.96497 
L 203.141774 220.417587 
L 208.819696 220.016087 
L 214.497618 219.6898 
L 220.17554 219.401834 
L 225.853462 219.128595 
L 231.531384 218.850917 
L 237.209306 218.548339 
L 242.887228 218.192499 
L 248.56515 217.73447 
L 254.243072 217.071181 
L 259.920994 215.926375 
L 265.598916 213.190404 
L 271.276838 193.733096 
L 276.954761 230.912727 
L 282.632683 223.824273 
L 288.310605 221.947729 
L 293.988527 221.035554 
L 299.666449 220.466098 
L 305.344371 220.053591 
L 311.022293 219.721535 
L 316.700215 219.430813 
L 322.378137 219.15696 
L 328.056059 218.880632 
L 333.733981 218.581768 
L 339.411903 218.233251 
" style="fill:none;stroke:#2c9f2c;stroke-linecap:square;stroke-width:1.5;"/>
   </g>
   <g id="patch_13">
    <path d="M 47.282813 235.24 
L 47.282813 140.04 
" style="fill:none;stroke:#000000;stroke-linecap:square;stroke-linejoin:miter;stroke-width:0.8;"/>
   </g>
   <g id="patch_14">
    <path d="M 353.322812 235.24 
L 353.322812 140.04 
" style="fill:none;stroke:#000000;stroke-linecap:square;stroke-linejoin:miter;stroke-width:0.8;"/>
   </g>
   <g id="patch_15">
    <path d="M 47.282813 235.24 
L 353.322812 235.24 
" style="fill:none;stroke:#000000;stroke-linecap:square;stroke-linejoin:miter;stroke-width:0.8;"/>
   </g>
   <g id="patch_16">
    <path d="M 47.282813 140.04 
L 353.322812 140.04 
" style="fill:none;stroke:#000000;stroke-linecap:square;stroke-linejoin:miter;stroke-width:0.8;"/>
   </g>
   <g id="legend_3">
    <g id="line2d_36">
     <path d="M 319.722812 150.04 
L 335.722812 150.04 
" style="fill:none;stroke:#2c9f2c;stroke-linecap:square;stroke-width:1.5;"/>
    </g>
    <g id="line2d_37"/>
    <g id="text_37">
     <!-- 2 -->
     <g transform="translate(342.122812 152.84)scale(0.08 -0.08)">
      <use xlink:href="#TimesNewRomanPSMT-50"/>
     </g>
    </g>
   </g>
  </g>
  <g id="axes_4">
   <g id="patch_17">
    <path d="M 402.962812 235.24 
L 709.002812 235.24 
L 709.002812 140.04 
L 402.962812 140.04 
z
" style="fill:#ffffff;"/>
   </g>
   <g id="matplotlib.axis_7">
    <g id="xtick_16">
     <g id="line2d_38">
      <g>
       <use style="stroke:#000000;stroke-width:0.8;" x="447.786853" xlink:href="#m351a1a0e35" y="235.24"/>
      </g>
     </g>
     <g id="text_38">
      <!-- 2 -->
      <g transform="translate(445.786853 247.795)scale(0.08 -0.08)">
       <use xlink:href="#TimesNewRomanPSMT-50"/>
      </g>
     </g>
    </g>
    <g id="xtick_17">
     <g id="line2d_39">
      <g>
       <use style="stroke:#000000;stroke-width:0.8;" x="509.613116" xlink:href="#m351a1a0e35" y="235.24"/>
      </g>
     </g>
     <g id="text_39">
      <!-- 4 -->
      <g transform="translate(507.613116 247.795)scale(0.08 -0.08)">
       <use xlink:href="#TimesNewRomanPSMT-52"/>
      </g>
     </g>
    </g>
    <g id="xtick_18">
     <g id="line2d_40">
      <g>
       <use style="stroke:#000000;stroke-width:0.8;" x="571.439378" xlink:href="#m351a1a0e35" y="235.24"/>
      </g>
     </g>
     <g id="text_40">
      <!-- 6 -->
      <g transform="translate(569.439378 247.795)scale(0.08 -0.08)">
       <use xlink:href="#TimesNewRomanPSMT-54"/>
      </g>
     </g>
    </g>
    <g id="xtick_19">
     <g id="line2d_41">
      <g>
       <use style="stroke:#000000;stroke-width:0.8;" x="633.265641" xlink:href="#m351a1a0e35" y="235.24"/>
      </g>
     </g>
     <g id="text_41">
      <!-- 8 -->
      <g transform="translate(631.265641 247.795)scale(0.08 -0.08)">
       <use xlink:href="#TimesNewRomanPSMT-56"/>
      </g>
     </g>
    </g>
    <g id="xtick_20">
     <g id="line2d_42">
      <g>
       <use style="stroke:#000000;stroke-width:0.8;" x="695.091903" xlink:href="#m351a1a0e35" y="235.24"/>
      </g>
     </g>
     <g id="text_42">
      <!-- 10 -->
      <g transform="translate(691.091903 247.795)scale(0.08 -0.08)">
       <use xlink:href="#TimesNewRomanPSMT-49"/>
       <use x="50" xlink:href="#TimesNewRomanPSMT-48"/>
      </g>
     </g>
    </g>
    <g id="text_43">
     <!-- X label -->
     <g transform="translate(541.404687 260.45)scale(0.1 -0.1)">
      <use xlink:href="#TimesNewRomanPSMT-88"/>
      <use x="72.216797" xlink:href="#TimesNewRomanPSMT-32"/>
      <use x="97.216797" xlink:href="#TimesNewRomanPSMT-108"/>
      <use x="125" xlink:href="#TimesNewRomanPSMT-97"/>
      <use x="169.384766" xlink:href="#TimesNewRomanPSMT-98"/>
      <use x="219.384766" xlink:href="#TimesNewRomanPSMT-101"/>
      <use x="263.769531" xlink:href="#TimesNewRomanPSMT-108"/>
     </g>
    </g>
   </g>
   <g id="matplotlib.axis_8">
    <g id="ytick_14">
     <g id="line2d_43">
      <g>
       <use style="stroke:#000000;stroke-width:0.8;" x="402.962812" xlink:href="#m97da6c18e3" y="230.921963"/>
      </g>
     </g>
     <g id="text_44">
      <!-- 0 -->
      <g transform="translate(391.962812 233.699463)scale(0.08 -0.08)">
       <use xlink:href="#TimesNewRomanPSMT-48"/>
      </g>
     </g>
    </g>
    <g id="ytick_15">
     <g id="line2d_44">
      <g>
       <use style="stroke:#000000;stroke-width:0.8;" x="402.962812" xlink:href="#m97da6c18e3" y="211.274079"/>
      </g>
     </g>
     <g id="text_45">
      <!-- 2500 -->
      <g transform="translate(379.962812 214.051579)scale(0.08 -0.08)">
       <use xlink:href="#TimesNewRomanPSMT-50"/>
       <use x="50" xlink:href="#TimesNewRomanPSMT-53"/>
       <use x="100" xlink:href="#TimesNewRomanPSMT-48"/>
       <use x="150" xlink:href="#TimesNewRomanPSMT-48"/>
      </g>
     </g>
    </g>
    <g id="ytick_16">
     <g id="line2d_45">
      <g>
       <use style="stroke:#000000;stroke-width:0.8;" x="402.962812" xlink:href="#m97da6c18e3" y="191.626195"/>
      </g>
     </g>
     <g id="text_46">
      <!-- 5000 -->
      <g transform="translate(379.962812 194.403695)scale(0.08 -0.08)">
       <use xlink:href="#TimesNewRomanPSMT-53"/>
       <use x="50" xlink:href="#TimesNewRomanPSMT-48"/>
       <use x="100" xlink:href="#TimesNewRomanPSMT-48"/>
       <use x="150" xlink:href="#TimesNewRomanPSMT-48"/>
      </g>
     </g>
    </g>
    <g id="ytick_17">
     <g id="line2d_46">
      <g>
       <use style="stroke:#000000;stroke-width:0.8;" x="402.962812" xlink:href="#m97da6c18e3" y="171.97831"/>
      </g>
     </g>
     <g id="text_47">
      <!-- 7500 -->
      <g transform="translate(379.962812 174.75581)scale(0.08 -0.08)">
       <defs>
        <path d="M 10.0625 66.21875 
L 45.5625 66.21875 
L 45.5625 64.359375 
L 23.484375 -1.375 
L 18.015625 -1.375 
L 37.796875 58.25 
L 19.578125 58.25 
Q 14.0625 58.25 11.71875 56.9375 
Q 7.625 54.6875 5.125 50 
L 3.71875 50.53125 
z
" id="TimesNewRomanPSMT-55"/>
       </defs>
       <use xlink:href="#TimesNewRomanPSMT-55"/>
       <use x="50" xlink:href="#TimesNewRomanPSMT-53"/>
       <use x="100" xlink:href="#TimesNewRomanPSMT-48"/>
       <use x="150" xlink:href="#TimesNewRomanPSMT-48"/>
      </g>
     </g>
    </g>
    <g id="ytick_18">
     <g id="line2d_47">
      <g>
       <use style="stroke:#000000;stroke-width:0.8;" x="402.962812" xlink:href="#m97da6c18e3" y="152.330426"/>
      </g>
     </g>
     <g id="text_48">
      <!-- 10000 -->
      <g transform="translate(375.962812 155.107926)scale(0.08 -0.08)">
       <use xlink:href="#TimesNewRomanPSMT-49"/>
       <use x="50" xlink:href="#TimesNewRomanPSMT-48"/>
       <use x="100" xlink:href="#TimesNewRomanPSMT-48"/>
       <use x="150" xlink:href="#TimesNewRomanPSMT-48"/>
       <use x="200" xlink:href="#TimesNewRomanPSMT-48"/>
      </g>
     </g>
    </g>
    <g id="text_49">
     <!-- Y label -->
     <g transform="translate(369.82375 202.030625)rotate(-90)scale(0.1 -0.1)">
      <use xlink:href="#TimesNewRomanPSMT-89"/>
      <use x="68.466797" xlink:href="#TimesNewRomanPSMT-32"/>
      <use x="93.466797" xlink:href="#TimesNewRomanPSMT-108"/>
      <use x="121.25" xlink:href="#TimesNewRomanPSMT-97"/>
      <use x="165.634766" xlink:href="#TimesNewRomanPSMT-98"/>
      <use x="215.634766" xlink:href="#TimesNewRomanPSMT-101"/>
      <use x="260.019531" xlink:href="#TimesNewRomanPSMT-108"/>
     </g>
    </g>
   </g>
   <g id="line2d_48">
    <path clip-path="url(#pc78a53187a)" d="M 416.873722 230.912727 
L 422.551644 230.910331 
L 428.229566 230.907541 
L 433.907488 230.904264 
L 439.58541 230.900387 
L 445.263332 230.895781 
L 450.941254 230.890288 
L 456.619176 230.883725 
L 462.297098 230.875867 
L 467.97502 230.86645 
L 473.652942 230.855155 
L 479.330864 230.8416 
L 485.008787 230.825326 
L 490.686709 230.805783 
L 496.364631 230.782309 
L 502.042553 230.754111 
L 507.720475 230.720234 
L 513.398397 230.679532 
L 519.076319 230.630629 
L 524.754241 230.571869 
L 530.432163 230.501266 
L 536.110085 230.41643 
L 541.788007 230.314491 
L 547.465929 230.192001 
L 553.143851 230.044816 
L 558.821774 229.867956 
L 564.499696 229.655438 
L 570.177618 229.400073 
L 575.85554 229.09322 
L 581.533462 228.7245 
L 587.211384 228.281437 
L 592.889306 227.749043 
L 598.567228 227.109306 
L 604.24515 226.340584 
L 609.923072 225.416869 
L 615.600994 224.306912 
L 621.278916 222.973162 
L 626.956838 221.370497 
L 632.634761 219.444697 
L 638.312683 217.130612 
L 643.990605 214.349952 
L 649.668527 211.008647 
L 655.346449 206.993656 
L 661.024371 202.169149 
L 666.702293 196.371909 
L 672.380215 189.40581 
L 678.058137 181.035182 
L 683.736059 170.97684 
L 689.413981 158.890501 
L 695.091903 144.367273 
" style="fill:none;stroke:#d52728;stroke-linecap:square;stroke-width:1.5;"/>
   </g>
   <g id="patch_18">
    <path d="M 402.962812 235.24 
L 402.962812 140.04 
" style="fill:none;stroke:#000000;stroke-linecap:square;stroke-linejoin:miter;stroke-width:0.8;"/>
   </g>
   <g id="patch_19">
    <path d="M 709.002812 235.24 
L 709.002812 140.04 
" style="fill:none;stroke:#000000;stroke-linecap:square;stroke-linejoin:miter;stroke-width:0.8;"/>
   </g>
   <g id="patch_20">
    <path d="M 402.962812 235.24 
L 709.002812 235.24 
" style="fill:none;stroke:#000000;stroke-linecap:square;stroke-linejoin:miter;stroke-width:0.8;"/>
   </g>
   <g id="patch_21">
    <path d="M 402.962812 140.04 
L 709.002812 140.04 
" style="fill:none;stroke:#000000;stroke-linecap:square;stroke-linejoin:miter;stroke-width:0.8;"/>
   </g>
   <g id="legend_4">
    <g id="line2d_49">
     <path d="M 410.162812 150.04 
L 426.162812 150.04 
" style="fill:none;stroke:#d52728;stroke-linecap:square;stroke-width:1.5;"/>
    </g>
    <g id="line2d_50"/>
    <g id="text_50">
     <!-- 3 -->
     <g transform="translate(432.562812 152.84)scale(0.08 -0.08)">
      <defs>
       <path d="M 5.078125 53.609375 
Q 7.90625 60.296875 12.21875 63.9375 
Q 16.546875 67.578125 23 67.578125 
Q 30.953125 67.578125 35.203125 62.40625 
Q 38.421875 58.546875 38.421875 54.15625 
Q 38.421875 46.921875 29.34375 39.203125 
Q 35.453125 36.8125 38.578125 32.375 
Q 41.703125 27.9375 41.703125 21.921875 
Q 41.703125 13.328125 36.234375 7.03125 
Q 29.109375 -1.171875 15.578125 -1.171875 
Q 8.890625 -1.171875 6.46875 0.484375 
Q 4.046875 2.15625 4.046875 4.046875 
Q 4.046875 5.46875 5.1875 6.546875 
Q 6.34375 7.625 7.953125 7.625 
Q 9.1875 7.625 10.453125 7.234375 
Q 11.28125 6.984375 14.203125 5.4375 
Q 17.140625 3.90625 18.265625 3.609375 
Q 20.0625 3.078125 22.125 3.078125 
Q 27.09375 3.078125 30.78125 6.9375 
Q 34.46875 10.796875 34.46875 16.0625 
Q 34.46875 19.921875 32.765625 23.578125 
Q 31.5 26.3125 29.984375 27.734375 
Q 27.875 29.6875 24.21875 31.265625 
Q 20.5625 32.859375 16.75 32.859375 
L 15.1875 32.859375 
L 15.1875 34.328125 
Q 19.046875 34.8125 22.921875 37.109375 
Q 26.8125 39.40625 28.5625 42.625 
Q 30.328125 45.84375 30.328125 49.703125 
Q 30.328125 54.734375 27.171875 57.828125 
Q 24.03125 60.9375 19.34375 60.9375 
Q 11.765625 60.9375 6.6875 52.828125 
z
" id="TimesNewRomanPSMT-51"/>
      </defs>
      <use xlink:href="#TimesNewRomanPSMT-51"/>
     </g>
    </g>
   </g>
  </g>
  <g id="axes_5">
   <g id="patch_22">
    <path d="M 47.282813 368.08 
L 353.322812 368.08 
L 353.322812 272.88 
L 47.282813 272.88 
z
" style="fill:#ffffff;"/>
   </g>
   <g id="matplotlib.axis_9">
    <g id="xtick_21">
     <g id="line2d_51">
      <g>
       <use style="stroke:#000000;stroke-width:0.8;" x="92.106853" xlink:href="#m351a1a0e35" y="368.08"/>
      </g>
     </g>
     <g id="text_51">
      <!-- 2 -->
      <g transform="translate(90.106853 380.635)scale(0.08 -0.08)">
       <use xlink:href="#TimesNewRomanPSMT-50"/>
      </g>
     </g>
    </g>
    <g id="xtick_22">
     <g id="line2d_52">
      <g>
       <use style="stroke:#000000;stroke-width:0.8;" x="153.933116" xlink:href="#m351a1a0e35" y="368.08"/>
      </g>
     </g>
     <g id="text_52">
      <!-- 4 -->
      <g transform="translate(151.933116 380.635)scale(0.08 -0.08)">
       <use xlink:href="#TimesNewRomanPSMT-52"/>
      </g>
     </g>
    </g>
    <g id="xtick_23">
     <g id="line2d_53">
      <g>
       <use style="stroke:#000000;stroke-width:0.8;" x="215.759378" xlink:href="#m351a1a0e35" y="368.08"/>
      </g>
     </g>
     <g id="text_53">
      <!-- 6 -->
      <g transform="translate(213.759378 380.635)scale(0.08 -0.08)">
       <use xlink:href="#TimesNewRomanPSMT-54"/>
      </g>
     </g>
    </g>
    <g id="xtick_24">
     <g id="line2d_54">
      <g>
       <use style="stroke:#000000;stroke-width:0.8;" x="277.585641" xlink:href="#m351a1a0e35" y="368.08"/>
      </g>
     </g>
     <g id="text_54">
      <!-- 8 -->
      <g transform="translate(275.585641 380.635)scale(0.08 -0.08)">
       <use xlink:href="#TimesNewRomanPSMT-56"/>
      </g>
     </g>
    </g>
    <g id="xtick_25">
     <g id="line2d_55">
      <g>
       <use style="stroke:#000000;stroke-width:0.8;" x="339.411903" xlink:href="#m351a1a0e35" y="368.08"/>
      </g>
     </g>
     <g id="text_55">
      <!-- 10 -->
      <g transform="translate(335.411903 380.635)scale(0.08 -0.08)">
       <use xlink:href="#TimesNewRomanPSMT-49"/>
       <use x="50" xlink:href="#TimesNewRomanPSMT-48"/>
      </g>
     </g>
    </g>
    <g id="text_56">
     <!-- X label -->
     <g transform="translate(185.724687 393.29)scale(0.1 -0.1)">
      <use xlink:href="#TimesNewRomanPSMT-88"/>
      <use x="72.216797" xlink:href="#TimesNewRomanPSMT-32"/>
      <use x="97.216797" xlink:href="#TimesNewRomanPSMT-108"/>
      <use x="125" xlink:href="#TimesNewRomanPSMT-97"/>
      <use x="169.384766" xlink:href="#TimesNewRomanPSMT-98"/>
      <use x="219.384766" xlink:href="#TimesNewRomanPSMT-101"/>
      <use x="263.769531" xlink:href="#TimesNewRomanPSMT-108"/>
     </g>
    </g>
   </g>
   <g id="matplotlib.axis_10">
    <g id="ytick_19">
     <g id="line2d_56">
      <g>
       <use style="stroke:#000000;stroke-width:0.8;" x="47.282813" xlink:href="#m97da6c18e3" y="363.764855"/>
      </g>
     </g>
     <g id="text_57">
      <!-- 0 -->
      <g transform="translate(36.282813 366.542355)scale(0.08 -0.08)">
       <use xlink:href="#TimesNewRomanPSMT-48"/>
      </g>
     </g>
    </g>
    <g id="ytick_20">
     <g id="line2d_57">
      <g>
       <use style="stroke:#000000;stroke-width:0.8;" x="47.282813" xlink:href="#m97da6c18e3" y="344.116314"/>
      </g>
     </g>
     <g id="text_58">
      <!-- 2500 -->
      <g transform="translate(24.282813 346.893814)scale(0.08 -0.08)">
       <use xlink:href="#TimesNewRomanPSMT-50"/>
       <use x="50" xlink:href="#TimesNewRomanPSMT-53"/>
       <use x="100" xlink:href="#TimesNewRomanPSMT-48"/>
       <use x="150" xlink:href="#TimesNewRomanPSMT-48"/>
      </g>
     </g>
    </g>
    <g id="ytick_21">
     <g id="line2d_58">
      <g>
       <use style="stroke:#000000;stroke-width:0.8;" x="47.282813" xlink:href="#m97da6c18e3" y="324.467774"/>
      </g>
     </g>
     <g id="text_59">
      <!-- 5000 -->
      <g transform="translate(24.282813 327.245274)scale(0.08 -0.08)">
       <use xlink:href="#TimesNewRomanPSMT-53"/>
       <use x="50" xlink:href="#TimesNewRomanPSMT-48"/>
       <use x="100" xlink:href="#TimesNewRomanPSMT-48"/>
       <use x="150" xlink:href="#TimesNewRomanPSMT-48"/>
      </g>
     </g>
    </g>
    <g id="ytick_22">
     <g id="line2d_59">
      <g>
       <use style="stroke:#000000;stroke-width:0.8;" x="47.282813" xlink:href="#m97da6c18e3" y="304.819233"/>
      </g>
     </g>
     <g id="text_60">
      <!-- 7500 -->
      <g transform="translate(24.282813 307.596733)scale(0.08 -0.08)">
       <use xlink:href="#TimesNewRomanPSMT-55"/>
       <use x="50" xlink:href="#TimesNewRomanPSMT-53"/>
       <use x="100" xlink:href="#TimesNewRomanPSMT-48"/>
       <use x="150" xlink:href="#TimesNewRomanPSMT-48"/>
      </g>
     </g>
    </g>
    <g id="ytick_23">
     <g id="line2d_60">
      <g>
       <use style="stroke:#000000;stroke-width:0.8;" x="47.282813" xlink:href="#m97da6c18e3" y="285.170692"/>
      </g>
     </g>
     <g id="text_61">
      <!-- 10000 -->
      <g transform="translate(20.282813 287.948192)scale(0.08 -0.08)">
       <use xlink:href="#TimesNewRomanPSMT-49"/>
       <use x="50" xlink:href="#TimesNewRomanPSMT-48"/>
       <use x="100" xlink:href="#TimesNewRomanPSMT-48"/>
       <use x="150" xlink:href="#TimesNewRomanPSMT-48"/>
       <use x="200" xlink:href="#TimesNewRomanPSMT-48"/>
      </g>
     </g>
    </g>
    <g id="text_62">
     <!-- Y label -->
     <g transform="translate(14.14375 334.870625)rotate(-90)scale(0.1 -0.1)">
      <use xlink:href="#TimesNewRomanPSMT-89"/>
      <use x="68.466797" xlink:href="#TimesNewRomanPSMT-32"/>
      <use x="93.466797" xlink:href="#TimesNewRomanPSMT-108"/>
      <use x="121.25" xlink:href="#TimesNewRomanPSMT-97"/>
      <use x="165.634766" xlink:href="#TimesNewRomanPSMT-98"/>
      <use x="215.634766" xlink:href="#TimesNewRomanPSMT-101"/>
      <use x="260.019531" xlink:href="#TimesNewRomanPSMT-108"/>
     </g>
    </g>
   </g>
   <g id="line2d_61">
    <path clip-path="url(#padb4cbbb4c)" d="M 61.193722 363.752727 
L 66.871644 363.750816 
L 72.549566 363.74843 
L 78.227488 363.745488 
L 83.90541 363.741891 
L 89.583332 363.737517 
L 95.261254 363.732219 
L 100.939176 363.725816 
L 106.617098 363.718092 
L 112.29502 363.708786 
L 117.972942 363.697584 
L 123.650864 363.684106 
L 129.328787 363.667895 
L 135.006709 363.648405 
L 140.684631 363.624975 
L 146.362553 363.596813 
L 152.040475 363.562966 
L 157.718397 363.522288 
L 163.396319 363.473405 
L 169.074241 363.414661 
L 174.752163 363.34407 
L 180.430085 363.259244 
L 186.108007 363.157312 
L 191.785929 363.034826 
L 197.463851 362.887643 
L 203.141774 362.710783 
L 208.819696 362.498263 
L 214.497618 362.242893 
L 220.17554 361.936034 
L 225.853462 361.567304 
L 231.531384 361.124229 
L 237.209306 360.591819 
L 242.887228 359.952062 
L 248.56515 359.183315 
L 254.243072 358.259571 
L 259.920994 357.149578 
L 265.598916 355.815784 
L 271.276838 354.213066 
L 276.954761 352.287203 
L 282.632683 349.97304 
L 288.310605 347.192288 
L 293.988527 343.850872 
L 299.666449 339.835747 
L 305.344371 335.011079 
L 311.022293 329.213646 
L 316.700215 322.247314 
L 322.378137 313.876407 
L 328.056059 303.817729 
L 333.733981 291.730986 
L 339.411903 277.207273 
" style="fill:none;stroke:#9367bc;stroke-linecap:square;stroke-width:1.5;"/>
   </g>
   <g id="patch_23">
    <path d="M 47.282813 368.08 
L 47.282813 272.88 
" style="fill:none;stroke:#000000;stroke-linecap:square;stroke-linejoin:miter;stroke-width:0.8;"/>
   </g>
   <g id="patch_24">
    <path d="M 353.322812 368.08 
L 353.322812 272.88 
" style="fill:none;stroke:#000000;stroke-linecap:square;stroke-linejoin:miter;stroke-width:0.8;"/>
   </g>
   <g id="patch_25">
    <path d="M 47.282813 368.08 
L 353.322812 368.08 
" style="fill:none;stroke:#000000;stroke-linecap:square;stroke-linejoin:miter;stroke-width:0.8;"/>
   </g>
   <g id="patch_26">
    <path d="M 47.282813 272.88 
L 353.322812 272.88 
" style="fill:none;stroke:#000000;stroke-linecap:square;stroke-linejoin:miter;stroke-width:0.8;"/>
   </g>
   <g id="legend_5">
    <g id="line2d_62">
     <path d="M 54.482813 282.88 
L 70.482813 282.88 
" style="fill:none;stroke:#9367bc;stroke-linecap:square;stroke-width:1.5;"/>
    </g>
    <g id="line2d_63"/>
    <g id="text_63">
     <!-- 4 -->
     <g transform="translate(76.882812 285.68)scale(0.08 -0.08)">
      <use xlink:href="#TimesNewRomanPSMT-52"/>
     </g>
    </g>
   </g>
  </g>
  <g id="axes_6">
   <g id="patch_27">
    <path d="M 402.962812 368.08 
L 709.002812 368.08 
L 709.002812 272.88 
L 402.962812 272.88 
z
" style="fill:#ffffff;"/>
   </g>
   <g id="matplotlib.axis_11">
    <g id="xtick_26">
     <g id="line2d_64">
      <g>
       <use style="stroke:#000000;stroke-width:0.8;" x="447.786853" xlink:href="#m351a1a0e35" y="368.08"/>
      </g>
     </g>
     <g id="text_64">
      <!-- 2 -->
      <g transform="translate(445.786853 380.635)scale(0.08 -0.08)">
       <use xlink:href="#TimesNewRomanPSMT-50"/>
      </g>
     </g>
    </g>
    <g id="xtick_27">
     <g id="line2d_65">
      <g>
       <use style="stroke:#000000;stroke-width:0.8;" x="509.613116" xlink:href="#m351a1a0e35" y="368.08"/>
      </g>
     </g>
     <g id="text_65">
      <!-- 4 -->
      <g transform="translate(507.613116 380.635)scale(0.08 -0.08)">
       <use xlink:href="#TimesNewRomanPSMT-52"/>
      </g>
     </g>
    </g>
    <g id="xtick_28">
     <g id="line2d_66">
      <g>
       <use style="stroke:#000000;stroke-width:0.8;" x="571.439378" xlink:href="#m351a1a0e35" y="368.08"/>
      </g>
     </g>
     <g id="text_66">
      <!-- 6 -->
      <g transform="translate(569.439378 380.635)scale(0.08 -0.08)">
       <use xlink:href="#TimesNewRomanPSMT-54"/>
      </g>
     </g>
    </g>
    <g id="xtick_29">
     <g id="line2d_67">
      <g>
       <use style="stroke:#000000;stroke-width:0.8;" x="633.265641" xlink:href="#m351a1a0e35" y="368.08"/>
      </g>
     </g>
     <g id="text_67">
      <!-- 8 -->
      <g transform="translate(631.265641 380.635)scale(0.08 -0.08)">
       <use xlink:href="#TimesNewRomanPSMT-56"/>
      </g>
     </g>
    </g>
    <g id="xtick_30">
     <g id="line2d_68">
      <g>
       <use style="stroke:#000000;stroke-width:0.8;" x="695.091903" xlink:href="#m351a1a0e35" y="368.08"/>
      </g>
     </g>
     <g id="text_68">
      <!-- 10 -->
      <g transform="translate(691.091903 380.635)scale(0.08 -0.08)">
       <use xlink:href="#TimesNewRomanPSMT-49"/>
       <use x="50" xlink:href="#TimesNewRomanPSMT-48"/>
      </g>
     </g>
    </g>
    <g id="text_69">
     <!-- X label -->
     <g transform="translate(541.404687 393.29)scale(0.1 -0.1)">
      <use xlink:href="#TimesNewRomanPSMT-88"/>
      <use x="72.216797" xlink:href="#TimesNewRomanPSMT-32"/>
      <use x="97.216797" xlink:href="#TimesNewRomanPSMT-108"/>
      <use x="125" xlink:href="#TimesNewRomanPSMT-97"/>
      <use x="169.384766" xlink:href="#TimesNewRomanPSMT-98"/>
      <use x="219.384766" xlink:href="#TimesNewRomanPSMT-101"/>
      <use x="263.769531" xlink:href="#TimesNewRomanPSMT-108"/>
     </g>
    </g>
   </g>
   <g id="matplotlib.axis_12">
    <g id="ytick_24">
     <g id="line2d_69">
      <g>
       <use style="stroke:#000000;stroke-width:0.8;" x="402.962812" xlink:href="#m97da6c18e3" y="349.81074"/>
      </g>
     </g>
     <g id="text_70">
      <!-- 0.8 -->
      <g transform="translate(385.962812 352.58824)scale(0.08 -0.08)">
       <use xlink:href="#TimesNewRomanPSMT-48"/>
       <use x="50" xlink:href="#TimesNewRomanPSMT-46"/>
       <use x="75" xlink:href="#TimesNewRomanPSMT-56"/>
      </g>
     </g>
    </g>
    <g id="ytick_25">
     <g id="line2d_70">
      <g>
       <use style="stroke:#000000;stroke-width:0.8;" x="402.962812" xlink:href="#m97da6c18e3" y="313.509006"/>
      </g>
     </g>
     <g id="text_71">
      <!-- 0.9 -->
      <g transform="translate(385.962812 316.286506)scale(0.08 -0.08)">
       <defs>
        <path d="M 5.28125 -1.375 
L 5.28125 0.4375 
Q 11.625 0.53125 17.09375 3.390625 
Q 22.5625 6.25 27.65625 13.375 
Q 32.765625 20.515625 34.765625 29.046875 
Q 27.09375 24.125 20.90625 24.125 
Q 13.921875 24.125 8.9375 29.515625 
Q 3.953125 34.90625 3.953125 43.84375 
Q 3.953125 52.546875 8.9375 59.328125 
Q 14.9375 67.578125 24.609375 67.578125 
Q 32.765625 67.578125 38.578125 60.84375 
Q 45.703125 52.484375 45.703125 40.234375 
Q 45.703125 29.203125 40.28125 19.65625 
Q 34.859375 10.109375 25.203125 3.8125 
Q 17.328125 -1.375 8.0625 -1.375 
z
M 35.546875 32.671875 
Q 36.421875 39.015625 36.421875 42.828125 
Q 36.421875 47.5625 34.8125 53.046875 
Q 33.203125 58.546875 30.25 61.46875 
Q 27.296875 64.40625 23.53125 64.40625 
Q 19.1875 64.40625 15.90625 60.5 
Q 12.640625 56.59375 12.640625 48.875 
Q 12.640625 38.578125 17 32.765625 
Q 20.171875 28.5625 24.8125 28.5625 
Q 27.046875 28.5625 30.125 29.640625 
Q 33.203125 30.71875 35.546875 32.671875 
z
" id="TimesNewRomanPSMT-57"/>
       </defs>
       <use xlink:href="#TimesNewRomanPSMT-48"/>
       <use x="50" xlink:href="#TimesNewRomanPSMT-46"/>
       <use x="75" xlink:href="#TimesNewRomanPSMT-57"/>
      </g>
     </g>
    </g>
    <g id="ytick_26">
     <g id="line2d_71">
      <g>
       <use style="stroke:#000000;stroke-width:0.8;" x="402.962812" xlink:href="#m97da6c18e3" y="277.207271"/>
      </g>
     </g>
     <g id="text_72">
      <!-- 1.0 -->
      <g transform="translate(385.962812 279.984771)scale(0.08 -0.08)">
       <use xlink:href="#TimesNewRomanPSMT-49"/>
       <use x="50" xlink:href="#TimesNewRomanPSMT-46"/>
       <use x="75" xlink:href="#TimesNewRomanPSMT-48"/>
      </g>
     </g>
    </g>
    <g id="text_73">
     <!-- Y label -->
     <g transform="translate(379.82375 334.870625)rotate(-90)scale(0.1 -0.1)">
      <use xlink:href="#TimesNewRomanPSMT-89"/>
      <use x="68.466797" xlink:href="#TimesNewRomanPSMT-32"/>
      <use x="93.466797" xlink:href="#TimesNewRomanPSMT-108"/>
      <use x="121.25" xlink:href="#TimesNewRomanPSMT-97"/>
      <use x="165.634766" xlink:href="#TimesNewRomanPSMT-98"/>
      <use x="215.634766" xlink:href="#TimesNewRomanPSMT-101"/>
      <use x="260.019531" xlink:href="#TimesNewRomanPSMT-108"/>
     </g>
    </g>
   </g>
   <g id="line2d_72">
    <path clip-path="url(#p26d552d4ff)" d="M 416.873722 363.752727 
L 422.551644 339.42611 
L 428.229566 321.464113 
L 433.907488 308.443572 
L 439.58541 299.130546 
L 445.263332 292.532929 
L 450.941254 287.890681 
L 456.619176 284.639897 
L 462.297098 282.371132 
L 467.97502 280.79144 
L 473.652942 279.693329 
L 479.330864 278.930853 
L 485.008787 278.401843 
L 490.686709 278.035014 
L 496.364631 277.780741 
L 502.042553 277.604535 
L 507.720475 277.482451 
L 513.398397 277.397874 
L 519.076319 277.339288 
L 524.754241 277.298707 
L 530.432163 277.270599 
L 536.110085 277.251131 
L 541.788007 277.237648 
L 547.465929 277.22831 
L 553.143851 277.221842 
L 558.821774 277.217362 
L 564.499696 277.21426 
L 570.177618 277.212112 
L 575.85554 277.210623 
L 581.533462 277.209593 
L 587.211384 277.208879 
L 592.889306 277.208385 
L 598.567228 277.208042 
L 604.24515 277.207805 
L 609.923072 277.207641 
L 615.600994 277.207527 
L 621.278916 277.207449 
L 626.956838 277.207394 
L 632.634761 277.207356 
L 638.312683 277.20733 
L 643.990605 277.207312 
L 649.668527 277.2073 
L 655.346449 277.207291 
L 661.024371 277.207285 
L 666.702293 277.207281 
L 672.380215 277.207278 
L 678.058137 277.207276 
L 683.736059 277.207274 
L 689.413981 277.207273 
L 695.091903 277.207273 
" style="fill:none;stroke:#8b564b;stroke-linecap:square;stroke-width:1.5;"/>
   </g>
   <g id="patch_28">
    <path d="M 402.962812 368.08 
L 402.962812 272.88 
" style="fill:none;stroke:#000000;stroke-linecap:square;stroke-linejoin:miter;stroke-width:0.8;"/>
   </g>
   <g id="patch_29">
    <path d="M 709.002812 368.08 
L 709.002812 272.88 
" style="fill:none;stroke:#000000;stroke-linecap:square;stroke-linejoin:miter;stroke-width:0.8;"/>
   </g>
   <g id="patch_30">
    <path d="M 402.962812 368.08 
L 709.002812 368.08 
" style="fill:none;stroke:#000000;stroke-linecap:square;stroke-linejoin:miter;stroke-width:0.8;"/>
   </g>
   <g id="patch_31">
    <path d="M 402.962812 272.88 
L 709.002812 272.88 
" style="fill:none;stroke:#000000;stroke-linecap:square;stroke-linejoin:miter;stroke-width:0.8;"/>
   </g>
   <g id="legend_6">
    <g id="line2d_73">
     <path d="M 410.162812 282.88 
L 426.162812 282.88 
" style="fill:none;stroke:#8b564b;stroke-linecap:square;stroke-width:1.5;"/>
    </g>
    <g id="line2d_74"/>
    <g id="text_74">
     <!-- 5 -->
     <g transform="translate(432.562812 285.68)scale(0.08 -0.08)">
      <use xlink:href="#TimesNewRomanPSMT-53"/>
     </g>
    </g>
   </g>
  </g>
  <g id="axes_7">
   <g id="patch_32">
    <path d="M 47.282813 500.92 
L 353.322812 500.92 
L 353.322812 405.72 
L 47.282813 405.72 
z
" style="fill:#ffffff;"/>
   </g>
   <g id="matplotlib.axis_13">
    <g id="xtick_31">
     <g id="line2d_75">
      <g>
       <use style="stroke:#000000;stroke-width:0.8;" x="92.106853" xlink:href="#m351a1a0e35" y="500.92"/>
      </g>
     </g>
     <g id="text_75">
      <!-- 2 -->
      <g transform="translate(90.106853 513.475)scale(0.08 -0.08)">
       <use xlink:href="#TimesNewRomanPSMT-50"/>
      </g>
     </g>
    </g>
    <g id="xtick_32">
     <g id="line2d_76">
      <g>
       <use style="stroke:#000000;stroke-width:0.8;" x="153.933116" xlink:href="#m351a1a0e35" y="500.92"/>
      </g>
     </g>
     <g id="text_76">
      <!-- 4 -->
      <g transform="translate(151.933116 513.475)scale(0.08 -0.08)">
       <use xlink:href="#TimesNewRomanPSMT-52"/>
      </g>
     </g>
    </g>
    <g id="xtick_33">
     <g id="line2d_77">
      <g>
       <use style="stroke:#000000;stroke-width:0.8;" x="215.759378" xlink:href="#m351a1a0e35" y="500.92"/>
      </g>
     </g>
     <g id="text_77">
      <!-- 6 -->
      <g transform="translate(213.759378 513.475)scale(0.08 -0.08)">
       <use xlink:href="#TimesNewRomanPSMT-54"/>
      </g>
     </g>
    </g>
    <g id="xtick_34">
     <g id="line2d_78">
      <g>
       <use style="stroke:#000000;stroke-width:0.8;" x="277.585641" xlink:href="#m351a1a0e35" y="500.92"/>
      </g>
     </g>
     <g id="text_78">
      <!-- 8 -->
      <g transform="translate(275.585641 513.475)scale(0.08 -0.08)">
       <use xlink:href="#TimesNewRomanPSMT-56"/>
      </g>
     </g>
    </g>
    <g id="xtick_35">
     <g id="line2d_79">
      <g>
       <use style="stroke:#000000;stroke-width:0.8;" x="339.411903" xlink:href="#m351a1a0e35" y="500.92"/>
      </g>
     </g>
     <g id="text_79">
      <!-- 10 -->
      <g transform="translate(335.411903 513.475)scale(0.08 -0.08)">
       <use xlink:href="#TimesNewRomanPSMT-49"/>
       <use x="50" xlink:href="#TimesNewRomanPSMT-48"/>
      </g>
     </g>
    </g>
    <g id="text_80">
     <!-- X label -->
     <g transform="translate(185.724687 526.13)scale(0.1 -0.1)">
      <use xlink:href="#TimesNewRomanPSMT-88"/>
      <use x="72.216797" xlink:href="#TimesNewRomanPSMT-32"/>
      <use x="97.216797" xlink:href="#TimesNewRomanPSMT-108"/>
      <use x="125" xlink:href="#TimesNewRomanPSMT-97"/>
      <use x="169.384766" xlink:href="#TimesNewRomanPSMT-98"/>
      <use x="219.384766" xlink:href="#TimesNewRomanPSMT-101"/>
      <use x="263.769531" xlink:href="#TimesNewRomanPSMT-108"/>
     </g>
    </g>
   </g>
   <g id="matplotlib.axis_14">
    <g id="ytick_27">
     <g id="line2d_80">
      <g>
       <use style="stroke:#000000;stroke-width:0.8;" x="47.282813" xlink:href="#m97da6c18e3" y="496.603409"/>
      </g>
     </g>
     <g id="text_81">
      <!-- 0 -->
      <g transform="translate(36.282813 499.380909)scale(0.08 -0.08)">
       <use xlink:href="#TimesNewRomanPSMT-48"/>
      </g>
     </g>
    </g>
    <g id="ytick_28">
     <g id="line2d_81">
      <g>
       <use style="stroke:#000000;stroke-width:0.8;" x="47.282813" xlink:href="#m97da6c18e3" y="476.955197"/>
      </g>
     </g>
     <g id="text_82">
      <!-- 5000 -->
      <g transform="translate(24.282813 479.732697)scale(0.08 -0.08)">
       <use xlink:href="#TimesNewRomanPSMT-53"/>
       <use x="50" xlink:href="#TimesNewRomanPSMT-48"/>
       <use x="100" xlink:href="#TimesNewRomanPSMT-48"/>
       <use x="150" xlink:href="#TimesNewRomanPSMT-48"/>
      </g>
     </g>
    </g>
    <g id="ytick_29">
     <g id="line2d_82">
      <g>
       <use style="stroke:#000000;stroke-width:0.8;" x="47.282813" xlink:href="#m97da6c18e3" y="457.306984"/>
      </g>
     </g>
     <g id="text_83">
      <!-- 10000 -->
      <g transform="translate(20.282813 460.084484)scale(0.08 -0.08)">
       <use xlink:href="#TimesNewRomanPSMT-49"/>
       <use x="50" xlink:href="#TimesNewRomanPSMT-48"/>
       <use x="100" xlink:href="#TimesNewRomanPSMT-48"/>
       <use x="150" xlink:href="#TimesNewRomanPSMT-48"/>
       <use x="200" xlink:href="#TimesNewRomanPSMT-48"/>
      </g>
     </g>
    </g>
    <g id="ytick_30">
     <g id="line2d_83">
      <g>
       <use style="stroke:#000000;stroke-width:0.8;" x="47.282813" xlink:href="#m97da6c18e3" y="437.658771"/>
      </g>
     </g>
     <g id="text_84">
      <!-- 15000 -->
      <g transform="translate(20.282813 440.436271)scale(0.08 -0.08)">
       <use xlink:href="#TimesNewRomanPSMT-49"/>
       <use x="50" xlink:href="#TimesNewRomanPSMT-53"/>
       <use x="100" xlink:href="#TimesNewRomanPSMT-48"/>
       <use x="150" xlink:href="#TimesNewRomanPSMT-48"/>
       <use x="200" xlink:href="#TimesNewRomanPSMT-48"/>
      </g>
     </g>
    </g>
    <g id="ytick_31">
     <g id="line2d_84">
      <g>
       <use style="stroke:#000000;stroke-width:0.8;" x="47.282813" xlink:href="#m97da6c18e3" y="418.010559"/>
      </g>
     </g>
     <g id="text_85">
      <!-- 20000 -->
      <g transform="translate(20.282813 420.788059)scale(0.08 -0.08)">
       <use xlink:href="#TimesNewRomanPSMT-50"/>
       <use x="50" xlink:href="#TimesNewRomanPSMT-48"/>
       <use x="100" xlink:href="#TimesNewRomanPSMT-48"/>
       <use x="150" xlink:href="#TimesNewRomanPSMT-48"/>
       <use x="200" xlink:href="#TimesNewRomanPSMT-48"/>
      </g>
     </g>
    </g>
    <g id="text_86">
     <!-- Y label -->
     <g transform="translate(14.14375 467.710625)rotate(-90)scale(0.1 -0.1)">
      <use xlink:href="#TimesNewRomanPSMT-89"/>
      <use x="68.466797" xlink:href="#TimesNewRomanPSMT-32"/>
      <use x="93.466797" xlink:href="#TimesNewRomanPSMT-108"/>
      <use x="121.25" xlink:href="#TimesNewRomanPSMT-97"/>
      <use x="165.634766" xlink:href="#TimesNewRomanPSMT-98"/>
      <use x="215.634766" xlink:href="#TimesNewRomanPSMT-101"/>
      <use x="260.019531" xlink:href="#TimesNewRomanPSMT-108"/>
     </g>
    </g>
   </g>
   <g id="line2d_85">
    <path clip-path="url(#pe8adede55c)" d="M 61.193722 496.592727 
L 66.871644 496.590574 
L 72.549566 496.587986 
L 78.227488 496.584876 
L 83.90541 496.581139 
L 89.583332 496.576649 
L 95.261254 496.571253 
L 100.939176 496.56477 
L 106.617098 496.55698 
L 112.29502 496.547618 
L 117.972942 496.53637 
L 123.650864 496.522853 
L 129.328787 496.506611 
L 135.006709 496.487094 
L 140.684631 496.463642 
L 146.362553 496.435462 
L 152.040475 496.4016 
L 157.718397 496.36091 
L 163.396319 496.312017 
L 169.074241 496.253265 
L 174.752163 496.182668 
L 180.430085 496.097837 
L 186.108007 495.995901 
L 191.785929 495.873414 
L 197.463851 495.72623 
L 203.141774 495.54937 
L 208.819696 495.336851 
L 214.497618 495.081483 
L 220.17554 494.774627 
L 225.853462 494.405902 
L 231.531384 493.962833 
L 237.209306 493.430431 
L 242.887228 492.790684 
L 248.56515 492.021949 
L 254.243072 491.09822 
L 259.920994 489.988245 
L 265.598916 488.654473 
L 271.276838 487.051782 
L 276.954761 485.12595 
L 282.632683 482.811826 
L 288.310605 480.03112 
L 293.988527 476.689759 
L 299.666449 472.674702 
L 305.344371 467.850114 
L 311.022293 462.052777 
L 316.700215 455.086562 
L 322.378137 446.715794 
L 328.056059 436.657284 
L 333.733981 424.570743 
L 339.411903 410.047273 
" style="fill:none;stroke:#e277c1;stroke-linecap:square;stroke-width:1.5;"/>
   </g>
   <g id="patch_33">
    <path d="M 47.282813 500.92 
L 47.282813 405.72 
" style="fill:none;stroke:#000000;stroke-linecap:square;stroke-linejoin:miter;stroke-width:0.8;"/>
   </g>
   <g id="patch_34">
    <path d="M 353.322812 500.92 
L 353.322812 405.72 
" style="fill:none;stroke:#000000;stroke-linecap:square;stroke-linejoin:miter;stroke-width:0.8;"/>
   </g>
   <g id="patch_35">
    <path d="M 47.282813 500.92 
L 353.322812 500.92 
" style="fill:none;stroke:#000000;stroke-linecap:square;stroke-linejoin:miter;stroke-width:0.8;"/>
   </g>
   <g id="patch_36">
    <path d="M 47.282813 405.72 
L 353.322812 405.72 
" style="fill:none;stroke:#000000;stroke-linecap:square;stroke-linejoin:miter;stroke-width:0.8;"/>
   </g>
   <g id="legend_7">
    <g id="line2d_86">
     <path d="M 54.482813 415.72 
L 70.482813 415.72 
" style="fill:none;stroke:#e277c1;stroke-linecap:square;stroke-width:1.5;"/>
    </g>
    <g id="line2d_87"/>
    <g id="text_87">
     <!-- 6 -->
     <g transform="translate(76.882812 418.52)scale(0.08 -0.08)">
      <use xlink:href="#TimesNewRomanPSMT-54"/>
     </g>
    </g>
   </g>
  </g>
  <g id="axes_8">
   <g id="patch_37">
    <path d="M 402.962812 500.92 
L 709.002812 500.92 
L 709.002812 405.72 
L 402.962812 405.72 
z
" style="fill:#ffffff;"/>
   </g>
   <g id="matplotlib.axis_15">
    <g id="xtick_36">
     <g id="line2d_88">
      <g>
       <use style="stroke:#000000;stroke-width:0.8;" x="447.786853" xlink:href="#m351a1a0e35" y="500.92"/>
      </g>
     </g>
     <g id="text_88">
      <!-- 2 -->
      <g transform="translate(445.786853 513.475)scale(0.08 -0.08)">
       <use xlink:href="#TimesNewRomanPSMT-50"/>
      </g>
     </g>
    </g>
    <g id="xtick_37">
     <g id="line2d_89">
      <g>
       <use style="stroke:#000000;stroke-width:0.8;" x="509.613116" xlink:href="#m351a1a0e35" y="500.92"/>
      </g>
     </g>
     <g id="text_89">
      <!-- 4 -->
      <g transform="translate(507.613116 513.475)scale(0.08 -0.08)">
       <use xlink:href="#TimesNewRomanPSMT-52"/>
      </g>
     </g>
    </g>
    <g id="xtick_38">
     <g id="line2d_90">
      <g>
       <use style="stroke:#000000;stroke-width:0.8;" x="571.439378" xlink:href="#m351a1a0e35" y="500.92"/>
      </g>
     </g>
     <g id="text_90">
      <!-- 6 -->
      <g transform="translate(569.439378 513.475)scale(0.08 -0.08)">
       <use xlink:href="#TimesNewRomanPSMT-54"/>
      </g>
     </g>
    </g>
    <g id="xtick_39">
     <g id="line2d_91">
      <g>
       <use style="stroke:#000000;stroke-width:0.8;" x="633.265641" xlink:href="#m351a1a0e35" y="500.92"/>
      </g>
     </g>
     <g id="text_91">
      <!-- 8 -->
      <g transform="translate(631.265641 513.475)scale(0.08 -0.08)">
       <use xlink:href="#TimesNewRomanPSMT-56"/>
      </g>
     </g>
    </g>
    <g id="xtick_40">
     <g id="line2d_92">
      <g>
       <use style="stroke:#000000;stroke-width:0.8;" x="695.091903" xlink:href="#m351a1a0e35" y="500.92"/>
      </g>
     </g>
     <g id="text_92">
      <!-- 10 -->
      <g transform="translate(691.091903 513.475)scale(0.08 -0.08)">
       <use xlink:href="#TimesNewRomanPSMT-49"/>
       <use x="50" xlink:href="#TimesNewRomanPSMT-48"/>
      </g>
     </g>
    </g>
    <g id="text_93">
     <!-- X label -->
     <g transform="translate(541.404687 526.13)scale(0.1 -0.1)">
      <use xlink:href="#TimesNewRomanPSMT-88"/>
      <use x="72.216797" xlink:href="#TimesNewRomanPSMT-32"/>
      <use x="97.216797" xlink:href="#TimesNewRomanPSMT-108"/>
      <use x="125" xlink:href="#TimesNewRomanPSMT-97"/>
      <use x="169.384766" xlink:href="#TimesNewRomanPSMT-98"/>
      <use x="219.384766" xlink:href="#TimesNewRomanPSMT-101"/>
      <use x="263.769531" xlink:href="#TimesNewRomanPSMT-108"/>
     </g>
    </g>
   </g>
   <g id="matplotlib.axis_16">
    <g id="ytick_32">
     <g id="line2d_93">
      <g>
       <use style="stroke:#000000;stroke-width:0.8;" x="402.962812" xlink:href="#m97da6c18e3" y="496.592727"/>
      </g>
     </g>
     <g id="text_94">
      <!-- 0 -->
      <g transform="translate(391.962812 499.370227)scale(0.08 -0.08)">
       <use xlink:href="#TimesNewRomanPSMT-48"/>
      </g>
     </g>
    </g>
    <g id="ytick_33">
     <g id="line2d_94">
      <g>
       <use style="stroke:#000000;stroke-width:0.8;" x="402.962812" xlink:href="#m97da6c18e3" y="459.006514"/>
      </g>
     </g>
     <g id="text_95">
      <!-- 1 -->
      <g transform="translate(391.962812 461.784014)scale(0.08 -0.08)">
       <use xlink:href="#TimesNewRomanPSMT-49"/>
      </g>
     </g>
    </g>
    <g id="ytick_34">
     <g id="line2d_95">
      <g>
       <use style="stroke:#000000;stroke-width:0.8;" x="402.962812" xlink:href="#m97da6c18e3" y="421.420301"/>
      </g>
     </g>
     <g id="text_96">
      <!-- 2 -->
      <g transform="translate(391.962812 424.197801)scale(0.08 -0.08)">
       <use xlink:href="#TimesNewRomanPSMT-50"/>
      </g>
     </g>
    </g>
    <g id="text_97">
     <!-- Y label -->
     <g transform="translate(385.82375 467.710625)rotate(-90)scale(0.1 -0.1)">
      <use xlink:href="#TimesNewRomanPSMT-89"/>
      <use x="68.466797" xlink:href="#TimesNewRomanPSMT-32"/>
      <use x="93.466797" xlink:href="#TimesNewRomanPSMT-108"/>
      <use x="121.25" xlink:href="#TimesNewRomanPSMT-97"/>
      <use x="165.634766" xlink:href="#TimesNewRomanPSMT-98"/>
      <use x="215.634766" xlink:href="#TimesNewRomanPSMT-101"/>
      <use x="260.019531" xlink:href="#TimesNewRomanPSMT-108"/>
     </g>
    </g>
   </g>
   <g id="line2d_96">
    <path clip-path="url(#pa5101975c1)" d="M 416.873722 496.592727 
L 422.551644 490.254838 
L 428.229566 484.833041 
L 433.907488 480.095648 
L 439.58541 475.889077 
L 445.263332 472.106268 
L 450.941254 468.669603 
L 456.619176 465.52101 
L 462.297098 462.615909 
L 467.97502 459.919327 
L 473.652942 457.403325 
L 479.330864 455.045229 
L 485.008787 452.826382 
L 490.686709 450.731252 
L 496.364631 448.746768 
L 502.042553 446.861827 
L 507.720475 445.066919 
L 513.398397 443.353833 
L 519.076319 441.715434 
L 524.754241 440.14548 
L 530.432163 438.638481 
L 536.110085 437.189582 
L 541.788007 435.79447 
L 547.465929 434.449293 
L 553.143851 433.1506 
L 558.821774 431.895285 
L 564.499696 430.680544 
L 570.177618 429.503836 
L 575.85554 428.362851 
L 581.533462 427.255485 
L 587.211384 426.179813 
L 592.889306 425.13407 
L 598.567228 424.116637 
L 604.24515 423.12602 
L 609.923072 422.160843 
L 615.600994 421.219832 
L 621.278916 420.301805 
L 626.956838 419.405668 
L 632.634761 418.5304 
L 638.312683 417.675051 
L 643.990605 416.838734 
L 649.668527 416.020623 
L 655.346449 415.219939 
L 661.024371 414.435957 
L 666.702293 413.667994 
L 672.380215 412.915409 
L 678.058137 412.177597 
L 683.736059 411.45399 
L 689.413981 410.74405 
L 695.091903 410.047273 
" style="fill:none;stroke:#7f7f7f;stroke-linecap:square;stroke-width:1.5;"/>
   </g>
   <g id="patch_38">
    <path d="M 402.962812 500.92 
L 402.962812 405.72 
" style="fill:none;stroke:#000000;stroke-linecap:square;stroke-linejoin:miter;stroke-width:0.8;"/>
   </g>
   <g id="patch_39">
    <path d="M 709.002812 500.92 
L 709.002812 405.72 
" style="fill:none;stroke:#000000;stroke-linecap:square;stroke-linejoin:miter;stroke-width:0.8;"/>
   </g>
   <g id="patch_40">
    <path d="M 402.962812 500.92 
L 709.002812 500.92 
" style="fill:none;stroke:#000000;stroke-linecap:square;stroke-linejoin:miter;stroke-width:0.8;"/>
   </g>
   <g id="patch_41">
    <path d="M 402.962812 405.72 
L 709.002812 405.72 
" style="fill:none;stroke:#000000;stroke-linecap:square;stroke-linejoin:miter;stroke-width:0.8;"/>
   </g>
   <g id="legend_8">
    <g id="line2d_97">
     <path d="M 410.162812 415.72 
L 426.162812 415.72 
" style="fill:none;stroke:#7f7f7f;stroke-linecap:square;stroke-width:1.5;"/>
    </g>
    <g id="line2d_98"/>
    <g id="text_98">
     <!-- 7 -->
     <g transform="translate(432.562812 418.52)scale(0.08 -0.08)">
      <use xlink:href="#TimesNewRomanPSMT-55"/>
     </g>
    </g>
   </g>
  </g>
 </g>
 <defs>
  <clipPath id="p0f812b0b0f">
   <rect height="95.2" width="306.04" x="47.282813" y="7.2"/>
  </clipPath>
  <clipPath id="p125132985a">
   <rect height="95.2" width="306.04" x="402.962812" y="7.2"/>
  </clipPath>
  <clipPath id="pfc82b2e88e">
   <rect height="95.2" width="306.04" x="47.282813" y="140.04"/>
  </clipPath>
  <clipPath id="pc78a53187a">
   <rect height="95.2" width="306.04" x="402.962812" y="140.04"/>
  </clipPath>
  <clipPath id="padb4cbbb4c">
   <rect height="95.2" width="306.04" x="47.282813" y="272.88"/>
  </clipPath>
  <clipPath id="p26d552d4ff">
   <rect height="95.2" width="306.04" x="402.962812" y="272.88"/>
  </clipPath>
  <clipPath id="pe8adede55c">
   <rect height="95.2" width="306.04" x="47.282813" y="405.72"/>
  </clipPath>
  <clipPath id="pa5101975c1">
   <rect height="95.2" width="306.04" x="402.962812" y="405.72"/>
  </clipPath>
 </defs>
</svg>
