<?xml version="1.0" encoding="utf-8" standalone="no"?>
<!DOCTYPE svg PUBLIC "-//W3C//DTD SVG 1.1//EN"
  "http://www.w3.org/Graphics/SVG/1.1/DTD/svg11.dtd">
<!-- Created with matplotlib (https://matplotlib.org/) -->
<svg height="693.149062pt" version="1.1" viewBox="0 0 411.642812 693.149062" width="411.642812pt" xmlns="http://www.w3.org/2000/svg" xmlns:xlink="http://www.w3.org/1999/xlink">
 <metadata>
  <rdf:RDF xmlns:cc="http://creativecommons.org/ns#" xmlns:dc="http://purl.org/dc/elements/1.1/" xmlns:rdf="http://www.w3.org/1999/02/22-rdf-syntax-ns#">
   <cc:Work>
    <dc:type rdf:resource="http://purl.org/dc/dcmitype/StillImage"/>
    <dc:date>2022-05-30T15:02:07.527326</dc:date>
    <dc:format>image/svg+xml</dc:format>
    <dc:creator>
     <cc:Agent>
      <dc:title>Matplotlib v3.3.4, https://matplotlib.org/</dc:title>
     </cc:Agent>
    </dc:creator>
   </cc:Work>
  </rdf:RDF>
 </metadata>
 <defs>
  <style type="text/css">*{stroke-linecap:butt;stroke-linejoin:round;}</style>
 </defs>
 <g id="figure_1">
  <g id="patch_1">
   <path d="M 0 693.149062 
L 411.642812 693.149062 
L 411.642812 0 
L 0 0 
z
" style="fill:none;"/>
  </g>
  <g id="axes_1">
   <g id="patch_2">
    <path d="M 47.282813 141.82 
L 201.042812 141.82 
L 201.042812 7.2 
L 47.282813 7.2 
z
" style="fill:#ffffff;"/>
   </g>
   <g id="matplotlib.axis_1">
    <g id="xtick_1">
     <g id="line2d_1">
      <defs>
       <path d="M 0 0 
L 0 3.5 
" id="m3923f8da2c" style="stroke:#000000;stroke-width:0.8;"/>
      </defs>
      <g>
       <use style="stroke:#000000;stroke-width:0.8;" x="69.803217" xlink:href="#m3923f8da2c" y="141.82"/>
      </g>
     </g>
     <g id="text_1">
      <!-- 2 -->
      <g transform="translate(67.803217 154.375)scale(0.08 -0.08)">
       <defs>
        <path d="M 45.84375 12.75 
L 41.21875 0 
L 2.15625 0 
L 2.15625 1.8125 
Q 19.390625 17.53125 26.421875 27.484375 
Q 33.453125 37.453125 33.453125 45.703125 
Q 33.453125 52 29.59375 56.046875 
Q 25.734375 60.109375 20.359375 60.109375 
Q 15.484375 60.109375 11.59375 57.25 
Q 7.71875 54.390625 5.859375 48.875 
L 4.046875 48.875 
Q 5.28125 57.90625 10.328125 62.734375 
Q 15.375 67.578125 22.953125 67.578125 
Q 31 67.578125 36.390625 62.40625 
Q 41.796875 57.234375 41.796875 50.203125 
Q 41.796875 45.171875 39.453125 40.140625 
Q 35.84375 32.234375 27.734375 23.390625 
Q 15.578125 10.109375 12.546875 7.375 
L 29.828125 7.375 
Q 35.109375 7.375 37.234375 7.765625 
Q 39.359375 8.15625 41.0625 9.34375 
Q 42.78125 10.546875 44.046875 12.75 
z
" id="TimesNewRomanPSMT-50"/>
       </defs>
       <use xlink:href="#TimesNewRomanPSMT-50"/>
      </g>
     </g>
    </g>
    <g id="xtick_2">
     <g id="line2d_2">
      <g>
       <use style="stroke:#000000;stroke-width:0.8;" x="100.865843" xlink:href="#m3923f8da2c" y="141.82"/>
      </g>
     </g>
     <g id="text_2">
      <!-- 4 -->
      <g transform="translate(98.865843 154.375)scale(0.08 -0.08)">
       <defs>
        <path d="M 46.53125 24.421875 
L 46.53125 17.484375 
L 37.640625 17.484375 
L 37.640625 0 
L 29.59375 0 
L 29.59375 17.484375 
L 1.5625 17.484375 
L 1.5625 23.734375 
L 32.28125 67.578125 
L 37.640625 67.578125 
L 37.640625 24.421875 
z
M 29.59375 24.421875 
L 29.59375 57.28125 
L 6.34375 24.421875 
z
" id="TimesNewRomanPSMT-52"/>
       </defs>
       <use xlink:href="#TimesNewRomanPSMT-52"/>
      </g>
     </g>
    </g>
    <g id="xtick_3">
     <g id="line2d_3">
      <g>
       <use style="stroke:#000000;stroke-width:0.8;" x="131.928469" xlink:href="#m3923f8da2c" y="141.82"/>
      </g>
     </g>
     <g id="text_3">
      <!-- 6 -->
      <g transform="translate(129.928469 154.375)scale(0.08 -0.08)">
       <defs>
        <path d="M 44.828125 67.578125 
L 44.828125 65.765625 
Q 38.375 65.140625 34.296875 63.203125 
Q 30.21875 61.28125 26.234375 57.328125 
Q 22.265625 53.375 19.65625 48.515625 
Q 17.046875 43.65625 15.28125 36.96875 
Q 22.3125 41.796875 29.390625 41.796875 
Q 36.1875 41.796875 41.15625 36.328125 
Q 46.140625 30.859375 46.140625 22.265625 
Q 46.140625 13.96875 41.109375 7.125 
Q 35.0625 -1.171875 25.09375 -1.171875 
Q 18.3125 -1.171875 13.578125 3.328125 
Q 4.296875 12.0625 4.296875 25.984375 
Q 4.296875 34.859375 7.859375 42.859375 
Q 11.421875 50.875 18.03125 57.078125 
Q 24.65625 63.28125 30.703125 65.421875 
Q 36.765625 67.578125 42 67.578125 
z
M 14.453125 33.40625 
Q 13.578125 26.8125 13.578125 22.75 
Q 13.578125 18.0625 15.3125 12.5625 
Q 17.046875 7.078125 20.453125 3.859375 
Q 22.953125 1.5625 26.515625 1.5625 
Q 30.765625 1.5625 34.109375 5.5625 
Q 37.453125 9.578125 37.453125 17 
Q 37.453125 25.34375 34.125 31.4375 
Q 30.8125 37.546875 24.703125 37.546875 
Q 22.859375 37.546875 20.734375 36.765625 
Q 18.609375 35.984375 14.453125 33.40625 
z
" id="TimesNewRomanPSMT-54"/>
       </defs>
       <use xlink:href="#TimesNewRomanPSMT-54"/>
      </g>
     </g>
    </g>
    <g id="xtick_4">
     <g id="line2d_4">
      <g>
       <use style="stroke:#000000;stroke-width:0.8;" x="162.991095" xlink:href="#m3923f8da2c" y="141.82"/>
      </g>
     </g>
     <g id="text_4">
      <!-- 8 -->
      <g transform="translate(160.991095 154.375)scale(0.08 -0.08)">
       <defs>
        <path d="M 19.1875 33.34375 
Q 11.328125 39.796875 9.046875 43.703125 
Q 6.78125 47.609375 6.78125 51.8125 
Q 6.78125 58.25 11.765625 62.90625 
Q 16.75 67.578125 25 67.578125 
Q 33.015625 67.578125 37.890625 63.234375 
Q 42.78125 58.890625 42.78125 53.328125 
Q 42.78125 49.609375 40.140625 45.75 
Q 37.5 41.890625 29.15625 36.671875 
Q 37.75 30.03125 40.53125 26.21875 
Q 44.234375 21.234375 44.234375 15.71875 
Q 44.234375 8.734375 38.90625 3.78125 
Q 33.59375 -1.171875 24.953125 -1.171875 
Q 15.53125 -1.171875 10.25 4.734375 
Q 6.0625 9.46875 6.0625 15.09375 
Q 6.0625 19.484375 9.015625 23.796875 
Q 11.96875 28.125 19.1875 33.34375 
z
M 26.859375 38.578125 
Q 32.71875 43.84375 34.28125 46.890625 
Q 35.84375 49.953125 35.84375 53.8125 
Q 35.84375 58.9375 32.953125 61.84375 
Q 30.078125 64.75 25.09375 64.75 
Q 20.125 64.75 17 61.859375 
Q 13.875 58.984375 13.875 55.125 
Q 13.875 52.59375 15.15625 50.046875 
Q 16.453125 47.515625 18.84375 45.21875 
z
M 21.484375 31.5 
Q 17.4375 28.078125 15.484375 24.046875 
Q 13.53125 20.015625 13.53125 15.328125 
Q 13.53125 9.03125 16.96875 5.25 
Q 20.40625 1.46875 25.734375 1.46875 
Q 31 1.46875 34.171875 4.4375 
Q 37.359375 7.421875 37.359375 11.671875 
Q 37.359375 15.1875 35.5 17.96875 
Q 32.03125 23.140625 21.484375 31.5 
z
" id="TimesNewRomanPSMT-56"/>
       </defs>
       <use xlink:href="#TimesNewRomanPSMT-56"/>
      </g>
     </g>
    </g>
    <g id="xtick_5">
     <g id="line2d_5">
      <g>
       <use style="stroke:#000000;stroke-width:0.8;" x="194.053722" xlink:href="#m3923f8da2c" y="141.82"/>
      </g>
     </g>
     <g id="text_5">
      <!-- 10 -->
      <g transform="translate(190.053722 154.375)scale(0.08 -0.08)">
       <defs>
        <path d="M 11.71875 59.71875 
L 27.828125 67.578125 
L 29.4375 67.578125 
L 29.4375 11.671875 
Q 29.4375 6.109375 29.90625 4.734375 
Q 30.375 3.375 31.828125 2.640625 
Q 33.296875 1.90625 37.796875 1.8125 
L 37.796875 0 
L 12.890625 0 
L 12.890625 1.8125 
Q 17.578125 1.90625 18.9375 2.609375 
Q 20.3125 3.328125 20.84375 4.515625 
Q 21.390625 5.71875 21.390625 11.671875 
L 21.390625 47.40625 
Q 21.390625 54.640625 20.90625 56.6875 
Q 20.5625 58.25 19.65625 58.984375 
Q 18.75 59.71875 17.484375 59.71875 
Q 15.671875 59.71875 12.453125 58.203125 
z
" id="TimesNewRomanPSMT-49"/>
        <path d="M 3.609375 32.71875 
Q 3.609375 44.046875 7.03125 52.21875 
Q 10.453125 60.40625 16.109375 64.40625 
Q 20.515625 67.578125 25.203125 67.578125 
Q 32.8125 67.578125 38.875 59.8125 
Q 46.4375 50.203125 46.4375 33.734375 
Q 46.4375 22.21875 43.109375 14.15625 
Q 39.796875 6.109375 34.640625 2.46875 
Q 29.5 -1.171875 24.703125 -1.171875 
Q 15.234375 -1.171875 8.9375 10.015625 
Q 3.609375 19.4375 3.609375 32.71875 
z
M 13.1875 31.5 
Q 13.1875 17.828125 16.546875 9.1875 
Q 19.34375 1.90625 24.859375 1.90625 
Q 27.484375 1.90625 30.3125 4.265625 
Q 33.15625 6.640625 34.625 12.203125 
Q 36.859375 20.609375 36.859375 35.890625 
Q 36.859375 47.21875 34.515625 54.78125 
Q 32.765625 60.40625 29.984375 62.75 
Q 27.984375 64.359375 25.140625 64.359375 
Q 21.828125 64.359375 19.234375 61.375 
Q 15.71875 57.328125 14.453125 48.625 
Q 13.1875 39.9375 13.1875 31.5 
z
" id="TimesNewRomanPSMT-48"/>
       </defs>
       <use xlink:href="#TimesNewRomanPSMT-49"/>
       <use x="50" xlink:href="#TimesNewRomanPSMT-48"/>
      </g>
     </g>
    </g>
    <g id="text_6">
     <!-- X label -->
     <g transform="translate(109.584687 167.03)scale(0.1 -0.1)">
      <defs>
       <path d="M 40.828125 36.671875 
L 55.03125 15.484375 
Q 60.9375 6.6875 63.796875 4.359375 
Q 66.65625 2.046875 71.046875 1.8125 
L 71.046875 0 
L 42.625 0 
L 42.625 1.8125 
Q 45.453125 1.859375 46.828125 2.390625 
Q 47.859375 2.828125 48.515625 3.734375 
Q 49.171875 4.640625 49.171875 5.5625 
Q 49.171875 6.6875 48.734375 7.8125 
Q 48.390625 8.640625 46.046875 12.109375 
L 34.8125 29.109375 
L 20.953125 11.328125 
Q 18.75 8.5 18.3125 7.546875 
Q 17.875 6.59375 17.875 5.5625 
Q 17.875 4 19.1875 2.96875 
Q 20.515625 1.953125 24.21875 1.8125 
L 24.21875 0 
L 0.734375 0 
L 0.734375 1.8125 
Q 3.21875 2.046875 5.03125 2.828125 
Q 8.0625 4.109375 10.796875 6.25 
Q 13.53125 8.40625 17.046875 12.84375 
L 32.671875 32.5625 
L 19.625 51.65625 
Q 14.3125 59.421875 10.59375 61.84375 
Q 6.890625 64.265625 2.046875 64.40625 
L 2.046875 66.21875 
L 32.671875 66.21875 
L 32.671875 64.40625 
Q 28.765625 64.265625 27.3125 63.140625 
Q 25.875 62.015625 25.875 60.640625 
Q 25.875 58.84375 28.21875 55.375 
L 38.375 40.1875 
L 50.140625 55.078125 
Q 52.203125 57.71875 52.65625 58.6875 
Q 53.125 59.671875 53.125 60.6875 
Q 53.125 61.71875 52.546875 62.5 
Q 51.8125 63.53125 50.6875 63.9375 
Q 49.5625 64.359375 46.046875 64.40625 
L 46.046875 66.21875 
L 69.53125 66.21875 
L 69.53125 64.40625 
Q 66.75 64.265625 64.984375 63.53125 
Q 62.359375 62.40625 60.15625 60.5 
Q 57.953125 58.59375 53.953125 53.46875 
z
" id="TimesNewRomanPSMT-88"/>
       <path id="TimesNewRomanPSMT-32"/>
       <path d="M 18.5 69.4375 
L 18.5 10.109375 
Q 18.5 5.90625 19.109375 4.53125 
Q 19.734375 3.171875 21 2.46875 
Q 22.265625 1.765625 25.734375 1.765625 
L 25.734375 0 
L 3.8125 0 
L 3.8125 1.765625 
Q 6.890625 1.765625 8 2.390625 
Q 9.125 3.03125 9.765625 4.484375 
Q 10.40625 5.953125 10.40625 10.109375 
L 10.40625 50.734375 
Q 10.40625 58.296875 10.0625 60.03125 
Q 9.71875 61.765625 8.953125 62.390625 
Q 8.203125 63.03125 7.03125 63.03125 
Q 5.765625 63.03125 3.8125 62.25 
L 2.984375 63.96875 
L 16.3125 69.4375 
z
" id="TimesNewRomanPSMT-108"/>
       <path d="M 28.46875 6.453125 
Q 21.578125 1.125 19.828125 0.296875 
Q 17.1875 -0.921875 14.203125 -0.921875 
Q 9.578125 -0.921875 6.5625 2.25 
Q 3.5625 5.421875 3.5625 10.59375 
Q 3.5625 13.875 5.03125 16.265625 
Q 7.03125 19.578125 11.984375 22.5 
Q 16.9375 25.4375 28.46875 29.640625 
L 28.46875 31.390625 
Q 28.46875 38.09375 26.34375 40.578125 
Q 24.21875 43.0625 20.171875 43.0625 
Q 17.09375 43.0625 15.28125 41.40625 
Q 13.421875 39.75 13.421875 37.59375 
L 13.53125 34.765625 
Q 13.53125 32.515625 12.375 31.296875 
Q 11.234375 30.078125 9.375 30.078125 
Q 7.5625 30.078125 6.421875 31.34375 
Q 5.28125 32.625 5.28125 34.8125 
Q 5.28125 39.015625 9.578125 42.53125 
Q 13.875 46.046875 21.625 46.046875 
Q 27.59375 46.046875 31.390625 44.046875 
Q 34.28125 42.53125 35.640625 39.3125 
Q 36.53125 37.203125 36.53125 30.71875 
L 36.53125 15.53125 
Q 36.53125 9.125 36.765625 7.6875 
Q 37.015625 6.25 37.578125 5.765625 
Q 38.140625 5.28125 38.875 5.28125 
Q 39.65625 5.28125 40.234375 5.609375 
Q 41.265625 6.25 44.1875 9.1875 
L 44.1875 6.453125 
Q 38.71875 -0.875 33.734375 -0.875 
Q 31.34375 -0.875 29.921875 0.78125 
Q 28.515625 2.4375 28.46875 6.453125 
z
M 28.46875 9.625 
L 28.46875 26.65625 
Q 21.09375 23.734375 18.953125 22.515625 
Q 15.09375 20.359375 13.421875 18.015625 
Q 11.765625 15.671875 11.765625 12.890625 
Q 11.765625 9.375 13.859375 7.046875 
Q 15.96875 4.734375 18.703125 4.734375 
Q 22.40625 4.734375 28.46875 9.625 
z
" id="TimesNewRomanPSMT-97"/>
       <path d="M 15.375 37.015625 
Q 21.875 46.046875 29.390625 46.046875 
Q 36.28125 46.046875 41.40625 40.15625 
Q 46.53125 34.28125 46.53125 24.078125 
Q 46.53125 12.15625 38.625 4.890625 
Q 31.84375 -1.375 23.484375 -1.375 
Q 19.578125 -1.375 15.546875 0.046875 
Q 11.53125 1.46875 7.328125 4.296875 
L 7.328125 50.640625 
Q 7.328125 58.25 6.953125 60 
Q 6.59375 61.765625 5.8125 62.390625 
Q 5.03125 63.03125 3.859375 63.03125 
Q 2.484375 63.03125 0.4375 62.25 
L -0.25 63.96875 
L 13.1875 69.4375 
L 15.375 69.4375 
z
M 15.375 33.890625 
L 15.375 7.125 
Q 17.875 4.6875 20.53125 3.4375 
Q 23.1875 2.203125 25.984375 2.203125 
Q 30.421875 2.203125 34.25 7.078125 
Q 38.09375 11.96875 38.09375 21.296875 
Q 38.09375 29.890625 34.25 34.5 
Q 30.421875 39.109375 25.53125 39.109375 
Q 22.953125 39.109375 20.359375 37.796875 
Q 18.40625 36.8125 15.375 33.890625 
z
" id="TimesNewRomanPSMT-98"/>
       <path d="M 10.640625 27.875 
Q 10.59375 17.921875 15.484375 12.25 
Q 20.359375 6.59375 26.953125 6.59375 
Q 31.34375 6.59375 34.59375 9 
Q 37.84375 11.421875 40.046875 17.28125 
L 41.546875 16.3125 
Q 40.53125 9.625 35.59375 4.125 
Q 30.671875 -1.375 23.25 -1.375 
Q 15.1875 -1.375 9.453125 4.90625 
Q 3.71875 11.1875 3.71875 21.78125 
Q 3.71875 33.25 9.59375 39.671875 
Q 15.484375 46.09375 24.359375 46.09375 
Q 31.890625 46.09375 36.71875 41.140625 
Q 41.546875 36.1875 41.546875 27.875 
z
M 10.640625 30.71875 
L 31.34375 30.71875 
Q 31.109375 35.015625 30.328125 36.765625 
Q 29.109375 39.5 26.6875 41.0625 
Q 24.265625 42.625 21.625 42.625 
Q 17.578125 42.625 14.375 39.46875 
Q 11.1875 36.328125 10.640625 30.71875 
z
" id="TimesNewRomanPSMT-101"/>
      </defs>
      <use xlink:href="#TimesNewRomanPSMT-88"/>
      <use x="72.216797" xlink:href="#TimesNewRomanPSMT-32"/>
      <use x="97.216797" xlink:href="#TimesNewRomanPSMT-108"/>
      <use x="125" xlink:href="#TimesNewRomanPSMT-97"/>
      <use x="169.384766" xlink:href="#TimesNewRomanPSMT-98"/>
      <use x="219.384766" xlink:href="#TimesNewRomanPSMT-101"/>
      <use x="263.769531" xlink:href="#TimesNewRomanPSMT-108"/>
     </g>
    </g>
   </g>
   <g id="matplotlib.axis_2">
    <g id="ytick_1">
     <g id="line2d_6">
      <defs>
       <path d="M 0 0 
L -3.5 0 
" id="ma1eed96662" style="stroke:#000000;stroke-width:0.8;"/>
      </defs>
      <g>
       <use style="stroke:#000000;stroke-width:0.8;" x="47.282813" xlink:href="#ma1eed96662" y="135.747269"/>
      </g>
     </g>
     <g id="text_7">
      <!-- −1.0 -->
      <g transform="translate(25.771563 138.524769)scale(0.08 -0.08)">
       <defs>
        <path d="M 54.4375 31.25 
L 1.8125 31.25 
L 1.8125 35.25 
L 54.4375 35.25 
z
" id="TimesNewRomanPSMT-8722"/>
        <path d="M 12.5 9.46875 
Q 14.796875 9.46875 16.359375 7.875 
Q 17.921875 6.296875 17.921875 4.046875 
Q 17.921875 1.8125 16.328125 0.21875 
Q 14.75 -1.375 12.5 -1.375 
Q 10.25 -1.375 8.65625 0.21875 
Q 7.078125 1.8125 7.078125 4.046875 
Q 7.078125 6.34375 8.65625 7.90625 
Q 10.25 9.46875 12.5 9.46875 
z
" id="TimesNewRomanPSMT-46"/>
       </defs>
       <use xlink:href="#TimesNewRomanPSMT-8722"/>
       <use x="56.396484" xlink:href="#TimesNewRomanPSMT-49"/>
       <use x="106.396484" xlink:href="#TimesNewRomanPSMT-46"/>
       <use x="131.396484" xlink:href="#TimesNewRomanPSMT-48"/>
      </g>
     </g>
    </g>
    <g id="ytick_2">
     <g id="line2d_7">
      <g>
       <use style="stroke:#000000;stroke-width:0.8;" x="47.282813" xlink:href="#ma1eed96662" y="105.137232"/>
      </g>
     </g>
     <g id="text_8">
      <!-- −0.5 -->
      <g transform="translate(25.771563 107.914732)scale(0.08 -0.08)">
       <defs>
        <path d="M 43.40625 66.21875 
L 39.59375 57.90625 
L 19.671875 57.90625 
L 15.328125 49.03125 
Q 28.265625 47.125 35.84375 39.40625 
Q 42.328125 32.765625 42.328125 23.78125 
Q 42.328125 18.5625 40.203125 14.109375 
Q 38.09375 9.671875 34.859375 6.546875 
Q 31.640625 3.421875 27.6875 1.515625 
Q 22.078125 -1.171875 16.15625 -1.171875 
Q 10.203125 -1.171875 7.484375 0.84375 
Q 4.78125 2.875 4.78125 5.328125 
Q 4.78125 6.6875 5.90625 7.734375 
Q 7.03125 8.796875 8.734375 8.796875 
Q 10.015625 8.796875 10.96875 8.40625 
Q 11.921875 8.015625 14.203125 6.390625 
Q 17.875 3.859375 21.625 3.859375 
Q 27.34375 3.859375 31.65625 8.171875 
Q 35.984375 12.5 35.984375 18.703125 
Q 35.984375 24.703125 32.125 29.90625 
Q 28.265625 35.109375 21.484375 37.9375 
Q 16.15625 40.140625 6.984375 40.484375 
L 19.671875 66.21875 
z
" id="TimesNewRomanPSMT-53"/>
       </defs>
       <use xlink:href="#TimesNewRomanPSMT-8722"/>
       <use x="56.396484" xlink:href="#TimesNewRomanPSMT-48"/>
       <use x="106.396484" xlink:href="#TimesNewRomanPSMT-46"/>
       <use x="131.396484" xlink:href="#TimesNewRomanPSMT-53"/>
      </g>
     </g>
    </g>
    <g id="ytick_3">
     <g id="line2d_8">
      <g>
       <use style="stroke:#000000;stroke-width:0.8;" x="47.282813" xlink:href="#ma1eed96662" y="74.527195"/>
      </g>
     </g>
     <g id="text_9">
      <!-- 0.0 -->
      <g transform="translate(30.282813 77.304695)scale(0.08 -0.08)">
       <use xlink:href="#TimesNewRomanPSMT-48"/>
       <use x="50" xlink:href="#TimesNewRomanPSMT-46"/>
       <use x="75" xlink:href="#TimesNewRomanPSMT-48"/>
      </g>
     </g>
    </g>
    <g id="ytick_4">
     <g id="line2d_9">
      <g>
       <use style="stroke:#000000;stroke-width:0.8;" x="47.282813" xlink:href="#ma1eed96662" y="43.917157"/>
      </g>
     </g>
     <g id="text_10">
      <!-- 0.5 -->
      <g transform="translate(30.282813 46.694657)scale(0.08 -0.08)">
       <use xlink:href="#TimesNewRomanPSMT-48"/>
       <use x="50" xlink:href="#TimesNewRomanPSMT-46"/>
       <use x="75" xlink:href="#TimesNewRomanPSMT-53"/>
      </g>
     </g>
    </g>
    <g id="ytick_5">
     <g id="line2d_10">
      <g>
       <use style="stroke:#000000;stroke-width:0.8;" x="47.282813" xlink:href="#ma1eed96662" y="13.30712"/>
      </g>
     </g>
     <g id="text_11">
      <!-- 1.0 -->
      <g transform="translate(30.282813 16.08462)scale(0.08 -0.08)">
       <use xlink:href="#TimesNewRomanPSMT-49"/>
       <use x="50" xlink:href="#TimesNewRomanPSMT-46"/>
       <use x="75" xlink:href="#TimesNewRomanPSMT-48"/>
      </g>
     </g>
    </g>
    <g id="text_12">
     <!-- Y label -->
     <g transform="translate(19.6325 88.900625)rotate(-90)scale(0.1 -0.1)">
      <defs>
       <path d="M 47.65625 66.21875 
L 70.75 66.21875 
L 70.75 64.40625 
L 69.484375 64.40625 
Q 68.21875 64.40625 65.765625 63.28125 
Q 63.328125 62.15625 61.328125 60.046875 
Q 59.328125 57.953125 56.390625 53.21875 
L 40.4375 28.078125 
L 40.4375 11.46875 
Q 40.4375 5.375 41.796875 3.859375 
Q 43.65625 1.8125 47.65625 1.8125 
L 49.8125 1.8125 
L 49.8125 0 
L 21.6875 0 
L 21.6875 1.8125 
L 24.03125 1.8125 
Q 28.21875 1.8125 29.984375 4.34375 
Q 31.0625 5.90625 31.0625 11.46875 
L 31.0625 27.15625 
L 12.890625 54.890625 
Q 9.671875 59.765625 8.515625 60.984375 
Q 7.375 62.203125 3.765625 63.921875 
Q 2.78125 64.40625 0.921875 64.40625 
L 0.921875 66.21875 
L 29.25 66.21875 
L 29.25 64.40625 
L 27.78125 64.40625 
Q 25.484375 64.40625 23.546875 63.328125 
Q 21.625 62.25 21.625 60.109375 
Q 21.625 58.34375 24.609375 53.765625 
L 38.421875 32.421875 
L 51.421875 52.828125 
Q 54.34375 57.421875 54.34375 59.671875 
Q 54.34375 61.03125 53.640625 62.109375 
Q 52.9375 63.1875 51.609375 63.796875 
Q 50.296875 64.40625 47.65625 64.40625 
z
" id="TimesNewRomanPSMT-89"/>
      </defs>
      <use xlink:href="#TimesNewRomanPSMT-89"/>
      <use x="68.466797" xlink:href="#TimesNewRomanPSMT-32"/>
      <use x="93.466797" xlink:href="#TimesNewRomanPSMT-108"/>
      <use x="121.25" xlink:href="#TimesNewRomanPSMT-97"/>
      <use x="165.634766" xlink:href="#TimesNewRomanPSMT-98"/>
      <use x="215.634766" xlink:href="#TimesNewRomanPSMT-101"/>
      <use x="260.019531" xlink:href="#TimesNewRomanPSMT-108"/>
     </g>
    </g>
   </g>
   <g id="line2d_11">
    <path clip-path="url(#pe8a39a0b93)" d="M 54.271903 23.012278 
L 57.124594 17.837462 
L 59.977284 14.569756 
L 62.829974 13.319091 
L 65.682664 14.12754 
L 68.535354 16.967907 
L 71.388044 21.744638 
L 74.240735 28.297037 
L 77.093425 36.404675 
L 79.946115 45.794801 
L 82.798805 56.151519 
L 85.651495 67.126417 
L 88.504185 78.350285 
L 91.356876 89.445541 
L 94.209566 100.038925 
L 97.062256 109.774064 
L 99.914946 118.323456 
L 102.767636 125.399489 
L 105.620326 130.764116 
L 108.473017 134.236865 
L 111.325707 135.700909 
L 114.178397 135.106995 
L 117.031087 132.475104 
L 119.883777 127.893775 
L 122.736467 121.51713 
L 125.589158 113.559687 
L 128.441848 104.289143 
L 131.294538 94.017372 
L 134.147228 83.089928 
L 136.999918 71.874423 
L 139.852608 60.74816 
L 142.705299 50.085441 
L 145.557989 40.244972 
L 148.410679 31.557798 
L 151.263369 24.316167 
L 154.116059 18.763695 
L 156.968749 15.087174 
L 159.82144 13.410288 
L 162.67413 13.789448 
L 165.52682 16.2119 
L 168.37951 20.596148 
L 171.2322 26.794702 
L 174.08489 34.599034 
L 176.937581 43.746598 
L 179.790271 53.929658 
L 182.642961 64.805645 
L 185.495651 76.008676 
L 188.348341 87.161868 
L 191.201031 97.890015 
L 194.053722 107.832208 
" style="fill:none;stroke:#1f77b3;stroke-linecap:square;stroke-width:1.5;"/>
   </g>
   <g id="patch_3">
    <path d="M 47.282813 141.82 
L 47.282813 7.2 
" style="fill:none;stroke:#000000;stroke-linecap:square;stroke-linejoin:miter;stroke-width:0.8;"/>
   </g>
   <g id="patch_4">
    <path d="M 201.042812 141.82 
L 201.042812 7.2 
" style="fill:none;stroke:#000000;stroke-linecap:square;stroke-linejoin:miter;stroke-width:0.8;"/>
   </g>
   <g id="patch_5">
    <path d="M 47.282813 141.82 
L 201.042812 141.82 
" style="fill:none;stroke:#000000;stroke-linecap:square;stroke-linejoin:miter;stroke-width:0.8;"/>
   </g>
   <g id="patch_6">
    <path d="M 47.282813 7.2 
L 201.042812 7.2 
" style="fill:none;stroke:#000000;stroke-linecap:square;stroke-linejoin:miter;stroke-width:0.8;"/>
   </g>
   <g id="legend_1">
    <g id="line2d_12">
     <path d="M 54.482813 130.10875 
L 70.482813 130.10875 
" style="fill:none;stroke:#1f77b3;stroke-linecap:square;stroke-width:1.5;"/>
    </g>
    <g id="line2d_13"/>
    <g id="text_13">
     <!-- 0 -->
     <g transform="translate(76.882812 132.90875)scale(0.08 -0.08)">
      <use xlink:href="#TimesNewRomanPSMT-48"/>
     </g>
    </g>
   </g>
  </g>
  <g id="axes_2">
   <g id="patch_7">
    <path d="M 250.682812 141.82 
L 404.442812 141.82 
L 404.442812 7.2 
L 250.682812 7.2 
z
" style="fill:#ffffff;"/>
   </g>
   <g id="matplotlib.axis_3">
    <g id="xtick_6">
     <g id="line2d_14">
      <g>
       <use style="stroke:#000000;stroke-width:0.8;" x="273.203217" xlink:href="#m3923f8da2c" y="141.82"/>
      </g>
     </g>
     <g id="text_14">
      <!-- 2 -->
      <g transform="translate(271.203217 154.375)scale(0.08 -0.08)">
       <use xlink:href="#TimesNewRomanPSMT-50"/>
      </g>
     </g>
    </g>
    <g id="xtick_7">
     <g id="line2d_15">
      <g>
       <use style="stroke:#000000;stroke-width:0.8;" x="304.265843" xlink:href="#m3923f8da2c" y="141.82"/>
      </g>
     </g>
     <g id="text_15">
      <!-- 4 -->
      <g transform="translate(302.265843 154.375)scale(0.08 -0.08)">
       <use xlink:href="#TimesNewRomanPSMT-52"/>
      </g>
     </g>
    </g>
    <g id="xtick_8">
     <g id="line2d_16">
      <g>
       <use style="stroke:#000000;stroke-width:0.8;" x="335.328469" xlink:href="#m3923f8da2c" y="141.82"/>
      </g>
     </g>
     <g id="text_16">
      <!-- 6 -->
      <g transform="translate(333.328469 154.375)scale(0.08 -0.08)">
       <use xlink:href="#TimesNewRomanPSMT-54"/>
      </g>
     </g>
    </g>
    <g id="xtick_9">
     <g id="line2d_17">
      <g>
       <use style="stroke:#000000;stroke-width:0.8;" x="366.391095" xlink:href="#m3923f8da2c" y="141.82"/>
      </g>
     </g>
     <g id="text_17">
      <!-- 8 -->
      <g transform="translate(364.391095 154.375)scale(0.08 -0.08)">
       <use xlink:href="#TimesNewRomanPSMT-56"/>
      </g>
     </g>
    </g>
    <g id="xtick_10">
     <g id="line2d_18">
      <g>
       <use style="stroke:#000000;stroke-width:0.8;" x="397.453722" xlink:href="#m3923f8da2c" y="141.82"/>
      </g>
     </g>
     <g id="text_18">
      <!-- 10 -->
      <g transform="translate(393.453722 154.375)scale(0.08 -0.08)">
       <use xlink:href="#TimesNewRomanPSMT-49"/>
       <use x="50" xlink:href="#TimesNewRomanPSMT-48"/>
      </g>
     </g>
    </g>
    <g id="text_19">
     <!-- X label -->
     <g transform="translate(312.984687 167.03)scale(0.1 -0.1)">
      <use xlink:href="#TimesNewRomanPSMT-88"/>
      <use x="72.216797" xlink:href="#TimesNewRomanPSMT-32"/>
      <use x="97.216797" xlink:href="#TimesNewRomanPSMT-108"/>
      <use x="125" xlink:href="#TimesNewRomanPSMT-97"/>
      <use x="169.384766" xlink:href="#TimesNewRomanPSMT-98"/>
      <use x="219.384766" xlink:href="#TimesNewRomanPSMT-101"/>
      <use x="263.769531" xlink:href="#TimesNewRomanPSMT-108"/>
     </g>
    </g>
   </g>
   <g id="matplotlib.axis_4">
    <g id="ytick_6">
     <g id="line2d_19">
      <g>
       <use style="stroke:#000000;stroke-width:0.8;" x="250.682812" xlink:href="#ma1eed96662" y="135.71884"/>
      </g>
     </g>
     <g id="text_20">
      <!-- −1.0 -->
      <g transform="translate(229.171562 138.49634)scale(0.08 -0.08)">
       <use xlink:href="#TimesNewRomanPSMT-8722"/>
       <use x="56.396484" xlink:href="#TimesNewRomanPSMT-49"/>
       <use x="106.396484" xlink:href="#TimesNewRomanPSMT-46"/>
       <use x="131.396484" xlink:href="#TimesNewRomanPSMT-48"/>
      </g>
     </g>
    </g>
    <g id="ytick_7">
     <g id="line2d_20">
      <g>
       <use style="stroke:#000000;stroke-width:0.8;" x="250.682812" xlink:href="#ma1eed96662" y="105.104525"/>
      </g>
     </g>
     <g id="text_21">
      <!-- −0.5 -->
      <g transform="translate(229.171562 107.882025)scale(0.08 -0.08)">
       <use xlink:href="#TimesNewRomanPSMT-8722"/>
       <use x="56.396484" xlink:href="#TimesNewRomanPSMT-48"/>
       <use x="106.396484" xlink:href="#TimesNewRomanPSMT-46"/>
       <use x="131.396484" xlink:href="#TimesNewRomanPSMT-53"/>
      </g>
     </g>
    </g>
    <g id="ytick_8">
     <g id="line2d_21">
      <g>
       <use style="stroke:#000000;stroke-width:0.8;" x="250.682812" xlink:href="#ma1eed96662" y="74.49021"/>
      </g>
     </g>
     <g id="text_22">
      <!-- 0.0 -->
      <g transform="translate(233.682812 77.26771)scale(0.08 -0.08)">
       <use xlink:href="#TimesNewRomanPSMT-48"/>
       <use x="50" xlink:href="#TimesNewRomanPSMT-46"/>
       <use x="75" xlink:href="#TimesNewRomanPSMT-48"/>
      </g>
     </g>
    </g>
    <g id="ytick_9">
     <g id="line2d_22">
      <g>
       <use style="stroke:#000000;stroke-width:0.8;" x="250.682812" xlink:href="#ma1eed96662" y="43.875896"/>
      </g>
     </g>
     <g id="text_23">
      <!-- 0.5 -->
      <g transform="translate(233.682812 46.653396)scale(0.08 -0.08)">
       <use xlink:href="#TimesNewRomanPSMT-48"/>
       <use x="50" xlink:href="#TimesNewRomanPSMT-46"/>
       <use x="75" xlink:href="#TimesNewRomanPSMT-53"/>
      </g>
     </g>
    </g>
    <g id="ytick_10">
     <g id="line2d_23">
      <g>
       <use style="stroke:#000000;stroke-width:0.8;" x="250.682812" xlink:href="#ma1eed96662" y="13.261581"/>
      </g>
     </g>
     <g id="text_24">
      <!-- 1.0 -->
      <g transform="translate(233.682812 16.039081)scale(0.08 -0.08)">
       <use xlink:href="#TimesNewRomanPSMT-49"/>
       <use x="50" xlink:href="#TimesNewRomanPSMT-46"/>
       <use x="75" xlink:href="#TimesNewRomanPSMT-48"/>
      </g>
     </g>
    </g>
    <g id="text_25">
     <!-- Y label -->
     <g transform="translate(223.0325 88.900625)rotate(-90)scale(0.1 -0.1)">
      <use xlink:href="#TimesNewRomanPSMT-89"/>
      <use x="68.466797" xlink:href="#TimesNewRomanPSMT-32"/>
      <use x="93.466797" xlink:href="#TimesNewRomanPSMT-108"/>
      <use x="121.25" xlink:href="#TimesNewRomanPSMT-97"/>
      <use x="165.634766" xlink:href="#TimesNewRomanPSMT-98"/>
      <use x="215.634766" xlink:href="#TimesNewRomanPSMT-101"/>
      <use x="260.019531" xlink:href="#TimesNewRomanPSMT-108"/>
     </g>
    </g>
   </g>
   <g id="line2d_24">
    <path clip-path="url(#pf210fd1db6)" d="M 257.671903 41.408241 
L 260.524594 51.374826 
L 263.377284 62.119041 
L 266.229974 73.279437 
L 269.082664 84.480565 
L 271.935354 95.345605 
L 274.788044 105.509044 
L 277.640735 114.628973 
L 280.493425 122.398585 
L 283.346115 128.556502 
L 286.198805 132.895563 
L 289.051495 135.269797 
L 291.904185 135.599334 
L 294.756876 133.873085 
L 297.609566 130.149125 
L 300.462256 124.552731 
L 303.314946 117.272174 
L 306.167636 108.552381 
L 309.020326 98.686694 
L 311.873017 88.007009 
L 314.725707 76.872602 
L 317.578397 65.658049 
L 320.431087 54.74062 
L 323.283777 44.487592 
L 326.136467 35.243887 
L 328.989158 27.320477 
L 331.841848 20.983913 
L 334.694538 16.447366 
L 337.547228 13.86345 
L 340.399918 13.319091 
L 343.252608 14.832603 
L 346.105299 18.353068 
L 348.957989 23.762055 
L 351.810679 30.877598 
L 354.663369 39.460323 
L 357.516059 49.221494 
L 360.368749 59.832736 
L 363.22144 70.937073 
L 366.07413 82.160942 
L 368.92682 93.126759 
L 371.77951 103.465619 
L 374.6322 112.829711 
L 377.48489 120.904017 
L 380.337581 127.416906 
L 383.190271 132.149277 
L 386.042961 134.941927 
L 388.895651 135.700909 
L 391.748341 134.400689 
L 394.601031 131.085008 
L 397.453722 125.86541 
" style="fill:none;stroke:#fe7f0e;stroke-linecap:square;stroke-width:1.5;"/>
   </g>
   <g id="patch_8">
    <path d="M 250.682812 141.82 
L 250.682812 7.2 
" style="fill:none;stroke:#000000;stroke-linecap:square;stroke-linejoin:miter;stroke-width:0.8;"/>
   </g>
   <g id="patch_9">
    <path d="M 404.442812 141.82 
L 404.442812 7.2 
" style="fill:none;stroke:#000000;stroke-linecap:square;stroke-linejoin:miter;stroke-width:0.8;"/>
   </g>
   <g id="patch_10">
    <path d="M 250.682812 141.82 
L 404.442812 141.82 
" style="fill:none;stroke:#000000;stroke-linecap:square;stroke-linejoin:miter;stroke-width:0.8;"/>
   </g>
   <g id="patch_11">
    <path d="M 250.682812 7.2 
L 404.442812 7.2 
" style="fill:none;stroke:#000000;stroke-linecap:square;stroke-linejoin:miter;stroke-width:0.8;"/>
   </g>
   <g id="legend_2">
    <g id="line2d_25">
     <path d="M 370.842812 17.2 
L 386.842812 17.2 
" style="fill:none;stroke:#fe7f0e;stroke-linecap:square;stroke-width:1.5;"/>
    </g>
    <g id="line2d_26"/>
    <g id="text_26">
     <!-- 1 -->
     <g transform="translate(393.242812 20)scale(0.08 -0.08)">
      <use xlink:href="#TimesNewRomanPSMT-49"/>
     </g>
    </g>
   </g>
  </g>
  <g id="axes_3">
   <g id="patch_12">
    <path d="M 47.282813 314.08 
L 201.042812 314.08 
L 201.042812 179.46 
L 47.282813 179.46 
z
" style="fill:#ffffff;"/>
   </g>
   <g id="matplotlib.axis_5">
    <g id="xtick_11">
     <g id="line2d_27">
      <g>
       <use style="stroke:#000000;stroke-width:0.8;" x="69.803217" xlink:href="#m3923f8da2c" y="314.08"/>
      </g>
     </g>
     <g id="text_27">
      <!-- 2 -->
      <g transform="translate(67.803217 326.635)scale(0.08 -0.08)">
       <use xlink:href="#TimesNewRomanPSMT-50"/>
      </g>
     </g>
    </g>
    <g id="xtick_12">
     <g id="line2d_28">
      <g>
       <use style="stroke:#000000;stroke-width:0.8;" x="100.865843" xlink:href="#m3923f8da2c" y="314.08"/>
      </g>
     </g>
     <g id="text_28">
      <!-- 4 -->
      <g transform="translate(98.865843 326.635)scale(0.08 -0.08)">
       <use xlink:href="#TimesNewRomanPSMT-52"/>
      </g>
     </g>
    </g>
    <g id="xtick_13">
     <g id="line2d_29">
      <g>
       <use style="stroke:#000000;stroke-width:0.8;" x="131.928469" xlink:href="#m3923f8da2c" y="314.08"/>
      </g>
     </g>
     <g id="text_29">
      <!-- 6 -->
      <g transform="translate(129.928469 326.635)scale(0.08 -0.08)">
       <use xlink:href="#TimesNewRomanPSMT-54"/>
      </g>
     </g>
    </g>
    <g id="xtick_14">
     <g id="line2d_30">
      <g>
       <use style="stroke:#000000;stroke-width:0.8;" x="162.991095" xlink:href="#m3923f8da2c" y="314.08"/>
      </g>
     </g>
     <g id="text_30">
      <!-- 8 -->
      <g transform="translate(160.991095 326.635)scale(0.08 -0.08)">
       <use xlink:href="#TimesNewRomanPSMT-56"/>
      </g>
     </g>
    </g>
    <g id="xtick_15">
     <g id="line2d_31">
      <g>
       <use style="stroke:#000000;stroke-width:0.8;" x="194.053722" xlink:href="#m3923f8da2c" y="314.08"/>
      </g>
     </g>
     <g id="text_31">
      <!-- 10 -->
      <g transform="translate(190.053722 326.635)scale(0.08 -0.08)">
       <use xlink:href="#TimesNewRomanPSMT-49"/>
       <use x="50" xlink:href="#TimesNewRomanPSMT-48"/>
      </g>
     </g>
    </g>
    <g id="text_32">
     <!-- X label -->
     <g transform="translate(109.584687 339.29)scale(0.1 -0.1)">
      <use xlink:href="#TimesNewRomanPSMT-88"/>
      <use x="72.216797" xlink:href="#TimesNewRomanPSMT-32"/>
      <use x="97.216797" xlink:href="#TimesNewRomanPSMT-108"/>
      <use x="125" xlink:href="#TimesNewRomanPSMT-97"/>
      <use x="169.384766" xlink:href="#TimesNewRomanPSMT-98"/>
      <use x="219.384766" xlink:href="#TimesNewRomanPSMT-101"/>
      <use x="263.769531" xlink:href="#TimesNewRomanPSMT-108"/>
     </g>
    </g>
   </g>
   <g id="matplotlib.axis_6">
    <g id="ytick_11">
     <g id="line2d_32">
      <g>
       <use style="stroke:#000000;stroke-width:0.8;" x="47.282813" xlink:href="#ma1eed96662" y="312.315439"/>
      </g>
     </g>
     <g id="text_33">
      <!-- −10 -->
      <g transform="translate(27.771563 315.092939)scale(0.08 -0.08)">
       <use xlink:href="#TimesNewRomanPSMT-8722"/>
       <use x="56.396484" xlink:href="#TimesNewRomanPSMT-49"/>
       <use x="106.396484" xlink:href="#TimesNewRomanPSMT-48"/>
      </g>
     </g>
    </g>
    <g id="ytick_12">
     <g id="line2d_33">
      <g>
       <use style="stroke:#000000;stroke-width:0.8;" x="47.282813" xlink:href="#ma1eed96662" y="291.388022"/>
      </g>
     </g>
     <g id="text_34">
      <!-- 0 -->
      <g transform="translate(36.282813 294.165522)scale(0.08 -0.08)">
       <use xlink:href="#TimesNewRomanPSMT-48"/>
      </g>
     </g>
    </g>
    <g id="ytick_13">
     <g id="line2d_34">
      <g>
       <use style="stroke:#000000;stroke-width:0.8;" x="47.282813" xlink:href="#ma1eed96662" y="270.460606"/>
      </g>
     </g>
     <g id="text_35">
      <!-- 10 -->
      <g transform="translate(32.282813 273.238106)scale(0.08 -0.08)">
       <use xlink:href="#TimesNewRomanPSMT-49"/>
       <use x="50" xlink:href="#TimesNewRomanPSMT-48"/>
      </g>
     </g>
    </g>
    <g id="ytick_14">
     <g id="line2d_35">
      <g>
       <use style="stroke:#000000;stroke-width:0.8;" x="47.282813" xlink:href="#ma1eed96662" y="249.53319"/>
      </g>
     </g>
     <g id="text_36">
      <!-- 20 -->
      <g transform="translate(32.282813 252.31069)scale(0.08 -0.08)">
       <use xlink:href="#TimesNewRomanPSMT-50"/>
       <use x="50" xlink:href="#TimesNewRomanPSMT-48"/>
      </g>
     </g>
    </g>
    <g id="ytick_15">
     <g id="line2d_36">
      <g>
       <use style="stroke:#000000;stroke-width:0.8;" x="47.282813" xlink:href="#ma1eed96662" y="228.605773"/>
      </g>
     </g>
     <g id="text_37">
      <!-- 30 -->
      <g transform="translate(32.282813 231.383273)scale(0.08 -0.08)">
       <defs>
        <path d="M 5.078125 53.609375 
Q 7.90625 60.296875 12.21875 63.9375 
Q 16.546875 67.578125 23 67.578125 
Q 30.953125 67.578125 35.203125 62.40625 
Q 38.421875 58.546875 38.421875 54.15625 
Q 38.421875 46.921875 29.34375 39.203125 
Q 35.453125 36.8125 38.578125 32.375 
Q 41.703125 27.9375 41.703125 21.921875 
Q 41.703125 13.328125 36.234375 7.03125 
Q 29.109375 -1.171875 15.578125 -1.171875 
Q 8.890625 -1.171875 6.46875 0.484375 
Q 4.046875 2.15625 4.046875 4.046875 
Q 4.046875 5.46875 5.1875 6.546875 
Q 6.34375 7.625 7.953125 7.625 
Q 9.1875 7.625 10.453125 7.234375 
Q 11.28125 6.984375 14.203125 5.4375 
Q 17.140625 3.90625 18.265625 3.609375 
Q 20.0625 3.078125 22.125 3.078125 
Q 27.09375 3.078125 30.78125 6.9375 
Q 34.46875 10.796875 34.46875 16.0625 
Q 34.46875 19.921875 32.765625 23.578125 
Q 31.5 26.3125 29.984375 27.734375 
Q 27.875 29.6875 24.21875 31.265625 
Q 20.5625 32.859375 16.75 32.859375 
L 15.1875 32.859375 
L 15.1875 34.328125 
Q 19.046875 34.8125 22.921875 37.109375 
Q 26.8125 39.40625 28.5625 42.625 
Q 30.328125 45.84375 30.328125 49.703125 
Q 30.328125 54.734375 27.171875 57.828125 
Q 24.03125 60.9375 19.34375 60.9375 
Q 11.765625 60.9375 6.6875 52.828125 
z
" id="TimesNewRomanPSMT-51"/>
       </defs>
       <use xlink:href="#TimesNewRomanPSMT-51"/>
       <use x="50" xlink:href="#TimesNewRomanPSMT-48"/>
      </g>
     </g>
    </g>
    <g id="ytick_16">
     <g id="line2d_37">
      <g>
       <use style="stroke:#000000;stroke-width:0.8;" x="47.282813" xlink:href="#ma1eed96662" y="207.678357"/>
      </g>
     </g>
     <g id="text_38">
      <!-- 40 -->
      <g transform="translate(32.282813 210.455857)scale(0.08 -0.08)">
       <use xlink:href="#TimesNewRomanPSMT-52"/>
       <use x="50" xlink:href="#TimesNewRomanPSMT-48"/>
      </g>
     </g>
    </g>
    <g id="ytick_17">
     <g id="line2d_38">
      <g>
       <use style="stroke:#000000;stroke-width:0.8;" x="47.282813" xlink:href="#ma1eed96662" y="186.75094"/>
      </g>
     </g>
     <g id="text_39">
      <!-- 50 -->
      <g transform="translate(32.282813 189.52844)scale(0.08 -0.08)">
       <use xlink:href="#TimesNewRomanPSMT-53"/>
       <use x="50" xlink:href="#TimesNewRomanPSMT-48"/>
      </g>
     </g>
    </g>
    <g id="text_40">
     <!-- Y label -->
     <g transform="translate(21.6325 261.160625)rotate(-90)scale(0.1 -0.1)">
      <use xlink:href="#TimesNewRomanPSMT-89"/>
      <use x="68.466797" xlink:href="#TimesNewRomanPSMT-32"/>
      <use x="93.466797" xlink:href="#TimesNewRomanPSMT-108"/>
      <use x="121.25" xlink:href="#TimesNewRomanPSMT-97"/>
      <use x="165.634766" xlink:href="#TimesNewRomanPSMT-98"/>
      <use x="215.634766" xlink:href="#TimesNewRomanPSMT-101"/>
      <use x="260.019531" xlink:href="#TimesNewRomanPSMT-108"/>
     </g>
    </g>
   </g>
   <g id="line2d_39">
    <path clip-path="url(#p06fdcaf53d)" d="M 54.271903 288.12877 
L 57.124594 286.254924 
L 59.977284 281.244037 
L 62.829974 185.579091 
L 65.682664 304.042081 
L 68.535354 297.164636 
L 71.388044 294.94959 
L 74.240735 293.798692 
L 77.093425 293.053529 
L 79.946115 292.500321 
L 82.798805 292.046539 
L 85.651495 291.642879 
L 88.504185 291.257079 
L 91.356876 290.862204 
L 94.209566 290.428663 
L 97.062256 289.914407 
L 99.914946 289.245365 
L 102.767636 288.262049 
L 105.620326 286.52344 
L 108.473017 282.142166 
L 111.325707 237.644272 
L 114.178397 305.744144 
L 117.031087 297.529261 
L 119.883777 295.110966 
L 122.736467 293.894029 
L 125.589158 293.119987 
L 128.441848 292.552236 
L 131.294538 292.090841 
L 134.147228 291.683636 
L 136.999918 291.297255 
L 139.852608 290.904597 
L 142.705299 290.476729 
L 145.557989 289.973544 
L 148.410679 289.325857 
L 151.263369 288.387916 
L 154.116059 286.769074 
L 156.968749 282.900203 
L 159.82144 255.386098 
L 162.67413 307.960909 
L 165.52682 297.937298 
L 168.37951 295.283723 
L 171.2322 293.99384 
L 174.08489 293.188586 
L 176.937581 292.605269 
L 179.790271 292.135716 
L 182.642961 291.724614 
L 185.495651 291.337365 
L 188.348341 290.946617 
L 191.201031 290.524 
L 194.053722 290.031171 
" style="fill:none;stroke:#2c9f2c;stroke-linecap:square;stroke-width:1.5;"/>
   </g>
   <g id="patch_13">
    <path d="M 47.282813 314.08 
L 47.282813 179.46 
" style="fill:none;stroke:#000000;stroke-linecap:square;stroke-linejoin:miter;stroke-width:0.8;"/>
   </g>
   <g id="patch_14">
    <path d="M 201.042812 314.08 
L 201.042812 179.46 
" style="fill:none;stroke:#000000;stroke-linecap:square;stroke-linejoin:miter;stroke-width:0.8;"/>
   </g>
   <g id="patch_15">
    <path d="M 47.282813 314.08 
L 201.042812 314.08 
" style="fill:none;stroke:#000000;stroke-linecap:square;stroke-linejoin:miter;stroke-width:0.8;"/>
   </g>
   <g id="patch_16">
    <path d="M 47.282813 179.46 
L 201.042812 179.46 
" style="fill:none;stroke:#000000;stroke-linecap:square;stroke-linejoin:miter;stroke-width:0.8;"/>
   </g>
   <g id="legend_3">
    <g id="line2d_40">
     <path d="M 167.442812 189.46 
L 183.442812 189.46 
" style="fill:none;stroke:#2c9f2c;stroke-linecap:square;stroke-width:1.5;"/>
    </g>
    <g id="line2d_41"/>
    <g id="text_41">
     <!-- 2 -->
     <g transform="translate(189.842812 192.26)scale(0.08 -0.08)">
      <use xlink:href="#TimesNewRomanPSMT-50"/>
     </g>
    </g>
   </g>
  </g>
  <g id="axes_4">
   <g id="patch_17">
    <path d="M 250.682812 314.08 
L 404.442812 314.08 
L 404.442812 179.46 
L 250.682812 179.46 
z
" style="fill:#ffffff;"/>
   </g>
   <g id="matplotlib.axis_7">
    <g id="xtick_16">
     <g id="line2d_42">
      <g>
       <use style="stroke:#000000;stroke-width:0.8;" x="273.203217" xlink:href="#m3923f8da2c" y="314.08"/>
      </g>
     </g>
     <g id="text_42">
      <!-- 2 -->
      <g transform="translate(271.203217 326.635)scale(0.08 -0.08)">
       <use xlink:href="#TimesNewRomanPSMT-50"/>
      </g>
     </g>
    </g>
    <g id="xtick_17">
     <g id="line2d_43">
      <g>
       <use style="stroke:#000000;stroke-width:0.8;" x="304.265843" xlink:href="#m3923f8da2c" y="314.08"/>
      </g>
     </g>
     <g id="text_43">
      <!-- 4 -->
      <g transform="translate(302.265843 326.635)scale(0.08 -0.08)">
       <use xlink:href="#TimesNewRomanPSMT-52"/>
      </g>
     </g>
    </g>
    <g id="xtick_18">
     <g id="line2d_44">
      <g>
       <use style="stroke:#000000;stroke-width:0.8;" x="335.328469" xlink:href="#m3923f8da2c" y="314.08"/>
      </g>
     </g>
     <g id="text_44">
      <!-- 6 -->
      <g transform="translate(333.328469 326.635)scale(0.08 -0.08)">
       <use xlink:href="#TimesNewRomanPSMT-54"/>
      </g>
     </g>
    </g>
    <g id="xtick_19">
     <g id="line2d_45">
      <g>
       <use style="stroke:#000000;stroke-width:0.8;" x="366.391095" xlink:href="#m3923f8da2c" y="314.08"/>
      </g>
     </g>
     <g id="text_45">
      <!-- 8 -->
      <g transform="translate(364.391095 326.635)scale(0.08 -0.08)">
       <use xlink:href="#TimesNewRomanPSMT-56"/>
      </g>
     </g>
    </g>
    <g id="xtick_20">
     <g id="line2d_46">
      <g>
       <use style="stroke:#000000;stroke-width:0.8;" x="397.453722" xlink:href="#m3923f8da2c" y="314.08"/>
      </g>
     </g>
     <g id="text_46">
      <!-- 10 -->
      <g transform="translate(393.453722 326.635)scale(0.08 -0.08)">
       <use xlink:href="#TimesNewRomanPSMT-49"/>
       <use x="50" xlink:href="#TimesNewRomanPSMT-48"/>
      </g>
     </g>
    </g>
    <g id="text_47">
     <!-- X label -->
     <g transform="translate(312.984687 339.29)scale(0.1 -0.1)">
      <use xlink:href="#TimesNewRomanPSMT-88"/>
      <use x="72.216797" xlink:href="#TimesNewRomanPSMT-32"/>
      <use x="97.216797" xlink:href="#TimesNewRomanPSMT-108"/>
      <use x="125" xlink:href="#TimesNewRomanPSMT-97"/>
      <use x="169.384766" xlink:href="#TimesNewRomanPSMT-98"/>
      <use x="219.384766" xlink:href="#TimesNewRomanPSMT-101"/>
      <use x="263.769531" xlink:href="#TimesNewRomanPSMT-108"/>
     </g>
    </g>
   </g>
   <g id="matplotlib.axis_8">
    <g id="ytick_18">
     <g id="line2d_47">
      <g>
       <use style="stroke:#000000;stroke-width:0.8;" x="250.682812" xlink:href="#ma1eed96662" y="307.97397"/>
      </g>
     </g>
     <g id="text_48">
      <!-- 0 -->
      <g transform="translate(239.682812 310.75147)scale(0.08 -0.08)">
       <use xlink:href="#TimesNewRomanPSMT-48"/>
      </g>
     </g>
    </g>
    <g id="ytick_19">
     <g id="line2d_48">
      <g>
       <use style="stroke:#000000;stroke-width:0.8;" x="250.682812" xlink:href="#ma1eed96662" y="285.747094"/>
      </g>
     </g>
     <g id="text_49">
      <!-- 2000 -->
      <g transform="translate(227.682812 288.524594)scale(0.08 -0.08)">
       <use xlink:href="#TimesNewRomanPSMT-50"/>
       <use x="50" xlink:href="#TimesNewRomanPSMT-48"/>
       <use x="100" xlink:href="#TimesNewRomanPSMT-48"/>
       <use x="150" xlink:href="#TimesNewRomanPSMT-48"/>
      </g>
     </g>
    </g>
    <g id="ytick_20">
     <g id="line2d_49">
      <g>
       <use style="stroke:#000000;stroke-width:0.8;" x="250.682812" xlink:href="#ma1eed96662" y="263.520218"/>
      </g>
     </g>
     <g id="text_50">
      <!-- 4000 -->
      <g transform="translate(227.682812 266.297718)scale(0.08 -0.08)">
       <use xlink:href="#TimesNewRomanPSMT-52"/>
       <use x="50" xlink:href="#TimesNewRomanPSMT-48"/>
       <use x="100" xlink:href="#TimesNewRomanPSMT-48"/>
       <use x="150" xlink:href="#TimesNewRomanPSMT-48"/>
      </g>
     </g>
    </g>
    <g id="ytick_21">
     <g id="line2d_50">
      <g>
       <use style="stroke:#000000;stroke-width:0.8;" x="250.682812" xlink:href="#ma1eed96662" y="241.293343"/>
      </g>
     </g>
     <g id="text_51">
      <!-- 6000 -->
      <g transform="translate(227.682812 244.070843)scale(0.08 -0.08)">
       <use xlink:href="#TimesNewRomanPSMT-54"/>
       <use x="50" xlink:href="#TimesNewRomanPSMT-48"/>
       <use x="100" xlink:href="#TimesNewRomanPSMT-48"/>
       <use x="150" xlink:href="#TimesNewRomanPSMT-48"/>
      </g>
     </g>
    </g>
    <g id="ytick_22">
     <g id="line2d_51">
      <g>
       <use style="stroke:#000000;stroke-width:0.8;" x="250.682812" xlink:href="#ma1eed96662" y="219.066467"/>
      </g>
     </g>
     <g id="text_52">
      <!-- 8000 -->
      <g transform="translate(227.682812 221.843967)scale(0.08 -0.08)">
       <use xlink:href="#TimesNewRomanPSMT-56"/>
       <use x="50" xlink:href="#TimesNewRomanPSMT-48"/>
       <use x="100" xlink:href="#TimesNewRomanPSMT-48"/>
       <use x="150" xlink:href="#TimesNewRomanPSMT-48"/>
      </g>
     </g>
    </g>
    <g id="ytick_23">
     <g id="line2d_52">
      <g>
       <use style="stroke:#000000;stroke-width:0.8;" x="250.682812" xlink:href="#ma1eed96662" y="196.839591"/>
      </g>
     </g>
     <g id="text_53">
      <!-- 10000 -->
      <g transform="translate(223.682812 199.617091)scale(0.08 -0.08)">
       <use xlink:href="#TimesNewRomanPSMT-49"/>
       <use x="50" xlink:href="#TimesNewRomanPSMT-48"/>
       <use x="100" xlink:href="#TimesNewRomanPSMT-48"/>
       <use x="150" xlink:href="#TimesNewRomanPSMT-48"/>
       <use x="200" xlink:href="#TimesNewRomanPSMT-48"/>
      </g>
     </g>
    </g>
    <g id="text_54">
     <!-- Y label -->
     <g transform="translate(217.54375 261.160625)rotate(-90)scale(0.1 -0.1)">
      <use xlink:href="#TimesNewRomanPSMT-89"/>
      <use x="68.466797" xlink:href="#TimesNewRomanPSMT-32"/>
      <use x="93.466797" xlink:href="#TimesNewRomanPSMT-108"/>
      <use x="121.25" xlink:href="#TimesNewRomanPSMT-97"/>
      <use x="165.634766" xlink:href="#TimesNewRomanPSMT-98"/>
      <use x="215.634766" xlink:href="#TimesNewRomanPSMT-101"/>
      <use x="260.019531" xlink:href="#TimesNewRomanPSMT-108"/>
     </g>
    </g>
   </g>
   <g id="line2d_53">
    <path clip-path="url(#p13edd3d081)" d="M 257.671903 307.960909 
L 260.524594 307.957521 
L 263.377284 307.953576 
L 266.229974 307.948941 
L 269.082664 307.943459 
L 271.935354 307.936945 
L 274.788044 307.929179 
L 277.640735 307.919897 
L 280.493425 307.908786 
L 283.346115 307.89547 
L 286.198805 307.879498 
L 289.051495 307.86033 
L 291.904185 307.837317 
L 294.756876 307.809682 
L 297.609566 307.776488 
L 300.462256 307.736613 
L 303.314946 307.688709 
L 306.167636 307.631154 
L 309.020326 307.562001 
L 311.873017 307.47891 
L 314.725707 307.379072 
L 317.578397 307.259107 
L 320.431087 307.114958 
L 323.283777 306.941748 
L 326.136467 306.733617 
L 328.989158 306.483524 
L 331.841848 306.183007 
L 334.694538 305.821901 
L 337.547228 305.387988 
L 340.399918 304.86659 
L 343.252608 304.240065 
L 346.105299 303.48722 
L 348.957989 302.582584 
L 351.810679 301.495552 
L 354.663369 300.18935 
L 357.516059 298.619787 
L 360.368749 296.733763 
L 363.22144 294.467474 
L 366.07413 291.744248 
L 368.92682 288.471955 
L 371.77951 284.539893 
L 374.6322 279.815034 
L 377.48489 274.137533 
L 380.337581 267.315316 
L 383.190271 259.11758 
L 386.042961 249.266989 
L 388.895651 237.430288 
L 391.748341 223.207031 
L 394.601031 206.116034 
L 397.453722 185.579091 
" style="fill:none;stroke:#d52728;stroke-linecap:square;stroke-width:1.5;"/>
   </g>
   <g id="patch_18">
    <path d="M 250.682812 314.08 
L 250.682812 179.46 
" style="fill:none;stroke:#000000;stroke-linecap:square;stroke-linejoin:miter;stroke-width:0.8;"/>
   </g>
   <g id="patch_19">
    <path d="M 404.442812 314.08 
L 404.442812 179.46 
" style="fill:none;stroke:#000000;stroke-linecap:square;stroke-linejoin:miter;stroke-width:0.8;"/>
   </g>
   <g id="patch_20">
    <path d="M 250.682812 314.08 
L 404.442812 314.08 
" style="fill:none;stroke:#000000;stroke-linecap:square;stroke-linejoin:miter;stroke-width:0.8;"/>
   </g>
   <g id="patch_21">
    <path d="M 250.682812 179.46 
L 404.442812 179.46 
" style="fill:none;stroke:#000000;stroke-linecap:square;stroke-linejoin:miter;stroke-width:0.8;"/>
   </g>
   <g id="legend_4">
    <g id="line2d_54">
     <path d="M 257.882812 189.46 
L 273.882812 189.46 
" style="fill:none;stroke:#d52728;stroke-linecap:square;stroke-width:1.5;"/>
    </g>
    <g id="line2d_55"/>
    <g id="text_55">
     <!-- 3 -->
     <g transform="translate(280.282812 192.26)scale(0.08 -0.08)">
      <use xlink:href="#TimesNewRomanPSMT-51"/>
     </g>
    </g>
   </g>
  </g>
  <g id="axes_5">
   <g id="patch_22">
    <path d="M 47.282813 486.34 
L 201.042812 486.34 
L 201.042812 351.72 
L 47.282813 351.72 
z
" style="fill:#ffffff;"/>
   </g>
   <g id="matplotlib.axis_9">
    <g id="xtick_21">
     <g id="line2d_56">
      <g>
       <use style="stroke:#000000;stroke-width:0.8;" x="69.803217" xlink:href="#m3923f8da2c" y="486.34"/>
      </g>
     </g>
     <g id="text_56">
      <!-- 2 -->
      <g transform="translate(67.803217 498.895)scale(0.08 -0.08)">
       <use xlink:href="#TimesNewRomanPSMT-50"/>
      </g>
     </g>
    </g>
    <g id="xtick_22">
     <g id="line2d_57">
      <g>
       <use style="stroke:#000000;stroke-width:0.8;" x="100.865843" xlink:href="#m3923f8da2c" y="486.34"/>
      </g>
     </g>
     <g id="text_57">
      <!-- 4 -->
      <g transform="translate(98.865843 498.895)scale(0.08 -0.08)">
       <use xlink:href="#TimesNewRomanPSMT-52"/>
      </g>
     </g>
    </g>
    <g id="xtick_23">
     <g id="line2d_58">
      <g>
       <use style="stroke:#000000;stroke-width:0.8;" x="131.928469" xlink:href="#m3923f8da2c" y="486.34"/>
      </g>
     </g>
     <g id="text_58">
      <!-- 6 -->
      <g transform="translate(129.928469 498.895)scale(0.08 -0.08)">
       <use xlink:href="#TimesNewRomanPSMT-54"/>
      </g>
     </g>
    </g>
    <g id="xtick_24">
     <g id="line2d_59">
      <g>
       <use style="stroke:#000000;stroke-width:0.8;" x="162.991095" xlink:href="#m3923f8da2c" y="486.34"/>
      </g>
     </g>
     <g id="text_59">
      <!-- 8 -->
      <g transform="translate(160.991095 498.895)scale(0.08 -0.08)">
       <use xlink:href="#TimesNewRomanPSMT-56"/>
      </g>
     </g>
    </g>
    <g id="xtick_25">
     <g id="line2d_60">
      <g>
       <use style="stroke:#000000;stroke-width:0.8;" x="194.053722" xlink:href="#m3923f8da2c" y="486.34"/>
      </g>
     </g>
     <g id="text_60">
      <!-- 10 -->
      <g transform="translate(190.053722 498.895)scale(0.08 -0.08)">
       <use xlink:href="#TimesNewRomanPSMT-49"/>
       <use x="50" xlink:href="#TimesNewRomanPSMT-48"/>
      </g>
     </g>
    </g>
    <g id="text_61">
     <!-- X label -->
     <g transform="translate(109.584687 511.55)scale(0.1 -0.1)">
      <use xlink:href="#TimesNewRomanPSMT-88"/>
      <use x="72.216797" xlink:href="#TimesNewRomanPSMT-32"/>
      <use x="97.216797" xlink:href="#TimesNewRomanPSMT-108"/>
      <use x="125" xlink:href="#TimesNewRomanPSMT-97"/>
      <use x="169.384766" xlink:href="#TimesNewRomanPSMT-98"/>
      <use x="219.384766" xlink:href="#TimesNewRomanPSMT-101"/>
      <use x="263.769531" xlink:href="#TimesNewRomanPSMT-108"/>
     </g>
    </g>
   </g>
   <g id="matplotlib.axis_10">
    <g id="ytick_24">
     <g id="line2d_61">
      <g>
       <use style="stroke:#000000;stroke-width:0.8;" x="47.282813" xlink:href="#ma1eed96662" y="480.238059"/>
      </g>
     </g>
     <g id="text_62">
      <!-- 0 -->
      <g transform="translate(36.282813 483.015559)scale(0.08 -0.08)">
       <use xlink:href="#TimesNewRomanPSMT-48"/>
      </g>
     </g>
    </g>
    <g id="ytick_25">
     <g id="line2d_62">
      <g>
       <use style="stroke:#000000;stroke-width:0.8;" x="47.282813" xlink:href="#ma1eed96662" y="458.01044"/>
      </g>
     </g>
     <g id="text_63">
      <!-- 2000 -->
      <g transform="translate(24.282813 460.78794)scale(0.08 -0.08)">
       <use xlink:href="#TimesNewRomanPSMT-50"/>
       <use x="50" xlink:href="#TimesNewRomanPSMT-48"/>
       <use x="100" xlink:href="#TimesNewRomanPSMT-48"/>
       <use x="150" xlink:href="#TimesNewRomanPSMT-48"/>
      </g>
     </g>
    </g>
    <g id="ytick_26">
     <g id="line2d_63">
      <g>
       <use style="stroke:#000000;stroke-width:0.8;" x="47.282813" xlink:href="#ma1eed96662" y="435.782822"/>
      </g>
     </g>
     <g id="text_64">
      <!-- 4000 -->
      <g transform="translate(24.282813 438.560322)scale(0.08 -0.08)">
       <use xlink:href="#TimesNewRomanPSMT-52"/>
       <use x="50" xlink:href="#TimesNewRomanPSMT-48"/>
       <use x="100" xlink:href="#TimesNewRomanPSMT-48"/>
       <use x="150" xlink:href="#TimesNewRomanPSMT-48"/>
      </g>
     </g>
    </g>
    <g id="ytick_27">
     <g id="line2d_64">
      <g>
       <use style="stroke:#000000;stroke-width:0.8;" x="47.282813" xlink:href="#ma1eed96662" y="413.555204"/>
      </g>
     </g>
     <g id="text_65">
      <!-- 6000 -->
      <g transform="translate(24.282813 416.332704)scale(0.08 -0.08)">
       <use xlink:href="#TimesNewRomanPSMT-54"/>
       <use x="50" xlink:href="#TimesNewRomanPSMT-48"/>
       <use x="100" xlink:href="#TimesNewRomanPSMT-48"/>
       <use x="150" xlink:href="#TimesNewRomanPSMT-48"/>
      </g>
     </g>
    </g>
    <g id="ytick_28">
     <g id="line2d_65">
      <g>
       <use style="stroke:#000000;stroke-width:0.8;" x="47.282813" xlink:href="#ma1eed96662" y="391.327586"/>
      </g>
     </g>
     <g id="text_66">
      <!-- 8000 -->
      <g transform="translate(24.282813 394.105086)scale(0.08 -0.08)">
       <use xlink:href="#TimesNewRomanPSMT-56"/>
       <use x="50" xlink:href="#TimesNewRomanPSMT-48"/>
       <use x="100" xlink:href="#TimesNewRomanPSMT-48"/>
       <use x="150" xlink:href="#TimesNewRomanPSMT-48"/>
      </g>
     </g>
    </g>
    <g id="ytick_29">
     <g id="line2d_66">
      <g>
       <use style="stroke:#000000;stroke-width:0.8;" x="47.282813" xlink:href="#ma1eed96662" y="369.099968"/>
      </g>
     </g>
     <g id="text_67">
      <!-- 10000 -->
      <g transform="translate(20.282813 371.877468)scale(0.08 -0.08)">
       <use xlink:href="#TimesNewRomanPSMT-49"/>
       <use x="50" xlink:href="#TimesNewRomanPSMT-48"/>
       <use x="100" xlink:href="#TimesNewRomanPSMT-48"/>
       <use x="150" xlink:href="#TimesNewRomanPSMT-48"/>
       <use x="200" xlink:href="#TimesNewRomanPSMT-48"/>
      </g>
     </g>
    </g>
    <g id="text_68">
     <!-- Y label -->
     <g transform="translate(14.14375 433.420625)rotate(-90)scale(0.1 -0.1)">
      <use xlink:href="#TimesNewRomanPSMT-89"/>
      <use x="68.466797" xlink:href="#TimesNewRomanPSMT-32"/>
      <use x="93.466797" xlink:href="#TimesNewRomanPSMT-108"/>
      <use x="121.25" xlink:href="#TimesNewRomanPSMT-97"/>
      <use x="165.634766" xlink:href="#TimesNewRomanPSMT-98"/>
      <use x="215.634766" xlink:href="#TimesNewRomanPSMT-101"/>
      <use x="260.019531" xlink:href="#TimesNewRomanPSMT-108"/>
     </g>
    </g>
   </g>
   <g id="line2d_67">
    <path clip-path="url(#p4bd66355c9)" d="M 54.271903 480.220909 
L 57.124594 480.218207 
L 59.977284 480.214832 
L 62.829974 480.210672 
L 65.682664 480.205586 
L 68.535354 480.199401 
L 71.388044 480.191908 
L 74.240735 480.182854 
L 77.093425 480.171932 
L 79.946115 480.158773 
L 82.798805 480.142932 
L 85.651495 480.123873 
L 88.504185 480.100951 
L 91.356876 480.07339 
L 94.209566 480.040258 
L 97.062256 480.000434 
L 99.914946 479.952572 
L 102.767636 479.895051 
L 105.620326 479.825926 
L 108.473017 479.742858 
L 111.325707 479.643037 
L 114.178397 479.523086 
L 117.031087 479.378947 
L 119.883777 479.205743 
L 122.736467 478.997615 
L 125.589158 478.747521 
L 128.441848 478.447002 
L 131.294538 478.085889 
L 134.147228 477.651967 
L 136.999918 477.130555 
L 139.852608 476.504013 
L 142.705299 475.751145 
L 145.557989 474.846481 
L 148.410679 473.759415 
L 151.263369 472.453171 
L 154.116059 470.883557 
L 156.968749 468.997471 
L 159.82144 466.731107 
L 162.67413 464.007791 
L 165.52682 460.73539 
L 168.37951 456.803196 
L 171.2322 452.07818 
L 174.08489 446.40049 
L 176.937581 439.578045 
L 179.790271 431.380036 
L 182.642961 421.529116 
L 185.495651 409.69202 
L 188.348341 395.468288 
L 191.201031 378.37672 
L 194.053722 357.839091 
" style="fill:none;stroke:#9367bc;stroke-linecap:square;stroke-width:1.5;"/>
   </g>
   <g id="patch_23">
    <path d="M 47.282813 486.34 
L 47.282813 351.72 
" style="fill:none;stroke:#000000;stroke-linecap:square;stroke-linejoin:miter;stroke-width:0.8;"/>
   </g>
   <g id="patch_24">
    <path d="M 201.042812 486.34 
L 201.042812 351.72 
" style="fill:none;stroke:#000000;stroke-linecap:square;stroke-linejoin:miter;stroke-width:0.8;"/>
   </g>
   <g id="patch_25">
    <path d="M 47.282813 486.34 
L 201.042812 486.34 
" style="fill:none;stroke:#000000;stroke-linecap:square;stroke-linejoin:miter;stroke-width:0.8;"/>
   </g>
   <g id="patch_26">
    <path d="M 47.282813 351.72 
L 201.042812 351.72 
" style="fill:none;stroke:#000000;stroke-linecap:square;stroke-linejoin:miter;stroke-width:0.8;"/>
   </g>
   <g id="legend_5">
    <g id="line2d_68">
     <path d="M 54.482813 361.72 
L 70.482813 361.72 
" style="fill:none;stroke:#9367bc;stroke-linecap:square;stroke-width:1.5;"/>
    </g>
    <g id="line2d_69"/>
    <g id="text_69">
     <!-- 4 -->
     <g transform="translate(76.882812 364.52)scale(0.08 -0.08)">
      <use xlink:href="#TimesNewRomanPSMT-52"/>
     </g>
    </g>
   </g>
  </g>
  <g id="axes_6">
   <g id="patch_27">
    <path d="M 250.682812 486.34 
L 404.442812 486.34 
L 404.442812 351.72 
L 250.682812 351.72 
z
" style="fill:#ffffff;"/>
   </g>
   <g id="matplotlib.axis_11">
    <g id="xtick_26">
     <g id="line2d_70">
      <g>
       <use style="stroke:#000000;stroke-width:0.8;" x="273.203217" xlink:href="#m3923f8da2c" y="486.34"/>
      </g>
     </g>
     <g id="text_70">
      <!-- 2 -->
      <g transform="translate(271.203217 498.895)scale(0.08 -0.08)">
       <use xlink:href="#TimesNewRomanPSMT-50"/>
      </g>
     </g>
    </g>
    <g id="xtick_27">
     <g id="line2d_71">
      <g>
       <use style="stroke:#000000;stroke-width:0.8;" x="304.265843" xlink:href="#m3923f8da2c" y="486.34"/>
      </g>
     </g>
     <g id="text_71">
      <!-- 4 -->
      <g transform="translate(302.265843 498.895)scale(0.08 -0.08)">
       <use xlink:href="#TimesNewRomanPSMT-52"/>
      </g>
     </g>
    </g>
    <g id="xtick_28">
     <g id="line2d_72">
      <g>
       <use style="stroke:#000000;stroke-width:0.8;" x="335.328469" xlink:href="#m3923f8da2c" y="486.34"/>
      </g>
     </g>
     <g id="text_72">
      <!-- 6 -->
      <g transform="translate(333.328469 498.895)scale(0.08 -0.08)">
       <use xlink:href="#TimesNewRomanPSMT-54"/>
      </g>
     </g>
    </g>
    <g id="xtick_29">
     <g id="line2d_73">
      <g>
       <use style="stroke:#000000;stroke-width:0.8;" x="366.391095" xlink:href="#m3923f8da2c" y="486.34"/>
      </g>
     </g>
     <g id="text_73">
      <!-- 8 -->
      <g transform="translate(364.391095 498.895)scale(0.08 -0.08)">
       <use xlink:href="#TimesNewRomanPSMT-56"/>
      </g>
     </g>
    </g>
    <g id="xtick_30">
     <g id="line2d_74">
      <g>
       <use style="stroke:#000000;stroke-width:0.8;" x="397.453722" xlink:href="#m3923f8da2c" y="486.34"/>
      </g>
     </g>
     <g id="text_74">
      <!-- 10 -->
      <g transform="translate(393.453722 498.895)scale(0.08 -0.08)">
       <use xlink:href="#TimesNewRomanPSMT-49"/>
       <use x="50" xlink:href="#TimesNewRomanPSMT-48"/>
      </g>
     </g>
    </g>
    <g id="text_75">
     <!-- X label -->
     <g transform="translate(312.984687 511.55)scale(0.1 -0.1)">
      <use xlink:href="#TimesNewRomanPSMT-88"/>
      <use x="72.216797" xlink:href="#TimesNewRomanPSMT-32"/>
      <use x="97.216797" xlink:href="#TimesNewRomanPSMT-108"/>
      <use x="125" xlink:href="#TimesNewRomanPSMT-97"/>
      <use x="169.384766" xlink:href="#TimesNewRomanPSMT-98"/>
      <use x="219.384766" xlink:href="#TimesNewRomanPSMT-101"/>
      <use x="263.769531" xlink:href="#TimesNewRomanPSMT-108"/>
     </g>
    </g>
   </g>
   <g id="matplotlib.axis_12">
    <g id="ytick_30">
     <g id="line2d_75">
      <g>
       <use style="stroke:#000000;stroke-width:0.8;" x="250.682812" xlink:href="#ma1eed96662" y="486.172583"/>
      </g>
     </g>
     <g id="text_76">
      <!-- 0.75 -->
      <g transform="translate(229.682812 488.950083)scale(0.08 -0.08)">
       <defs>
        <path d="M 10.0625 66.21875 
L 45.5625 66.21875 
L 45.5625 64.359375 
L 23.484375 -1.375 
L 18.015625 -1.375 
L 37.796875 58.25 
L 19.578125 58.25 
Q 14.0625 58.25 11.71875 56.9375 
Q 7.625 54.6875 5.125 50 
L 3.71875 50.53125 
z
" id="TimesNewRomanPSMT-55"/>
       </defs>
       <use xlink:href="#TimesNewRomanPSMT-48"/>
       <use x="50" xlink:href="#TimesNewRomanPSMT-46"/>
       <use x="75" xlink:href="#TimesNewRomanPSMT-55"/>
       <use x="125" xlink:href="#TimesNewRomanPSMT-53"/>
      </g>
     </g>
    </g>
    <g id="ytick_31">
     <g id="line2d_76">
      <g>
       <use style="stroke:#000000;stroke-width:0.8;" x="250.682812" xlink:href="#ma1eed96662" y="460.505884"/>
      </g>
     </g>
     <g id="text_77">
      <!-- 0.80 -->
      <g transform="translate(229.682812 463.283384)scale(0.08 -0.08)">
       <use xlink:href="#TimesNewRomanPSMT-48"/>
       <use x="50" xlink:href="#TimesNewRomanPSMT-46"/>
       <use x="75" xlink:href="#TimesNewRomanPSMT-56"/>
       <use x="125" xlink:href="#TimesNewRomanPSMT-48"/>
      </g>
     </g>
    </g>
    <g id="ytick_32">
     <g id="line2d_77">
      <g>
       <use style="stroke:#000000;stroke-width:0.8;" x="250.682812" xlink:href="#ma1eed96662" y="434.839185"/>
      </g>
     </g>
     <g id="text_78">
      <!-- 0.85 -->
      <g transform="translate(229.682812 437.616685)scale(0.08 -0.08)">
       <use xlink:href="#TimesNewRomanPSMT-48"/>
       <use x="50" xlink:href="#TimesNewRomanPSMT-46"/>
       <use x="75" xlink:href="#TimesNewRomanPSMT-56"/>
       <use x="125" xlink:href="#TimesNewRomanPSMT-53"/>
      </g>
     </g>
    </g>
    <g id="ytick_33">
     <g id="line2d_78">
      <g>
       <use style="stroke:#000000;stroke-width:0.8;" x="250.682812" xlink:href="#ma1eed96662" y="409.172487"/>
      </g>
     </g>
     <g id="text_79">
      <!-- 0.90 -->
      <g transform="translate(229.682812 411.949987)scale(0.08 -0.08)">
       <defs>
        <path d="M 5.28125 -1.375 
L 5.28125 0.4375 
Q 11.625 0.53125 17.09375 3.390625 
Q 22.5625 6.25 27.65625 13.375 
Q 32.765625 20.515625 34.765625 29.046875 
Q 27.09375 24.125 20.90625 24.125 
Q 13.921875 24.125 8.9375 29.515625 
Q 3.953125 34.90625 3.953125 43.84375 
Q 3.953125 52.546875 8.9375 59.328125 
Q 14.9375 67.578125 24.609375 67.578125 
Q 32.765625 67.578125 38.578125 60.84375 
Q 45.703125 52.484375 45.703125 40.234375 
Q 45.703125 29.203125 40.28125 19.65625 
Q 34.859375 10.109375 25.203125 3.8125 
Q 17.328125 -1.375 8.0625 -1.375 
z
M 35.546875 32.671875 
Q 36.421875 39.015625 36.421875 42.828125 
Q 36.421875 47.5625 34.8125 53.046875 
Q 33.203125 58.546875 30.25 61.46875 
Q 27.296875 64.40625 23.53125 64.40625 
Q 19.1875 64.40625 15.90625 60.5 
Q 12.640625 56.59375 12.640625 48.875 
Q 12.640625 38.578125 17 32.765625 
Q 20.171875 28.5625 24.8125 28.5625 
Q 27.046875 28.5625 30.125 29.640625 
Q 33.203125 30.71875 35.546875 32.671875 
z
" id="TimesNewRomanPSMT-57"/>
       </defs>
       <use xlink:href="#TimesNewRomanPSMT-48"/>
       <use x="50" xlink:href="#TimesNewRomanPSMT-46"/>
       <use x="75" xlink:href="#TimesNewRomanPSMT-57"/>
       <use x="125" xlink:href="#TimesNewRomanPSMT-48"/>
      </g>
     </g>
    </g>
    <g id="ytick_34">
     <g id="line2d_79">
      <g>
       <use style="stroke:#000000;stroke-width:0.8;" x="250.682812" xlink:href="#ma1eed96662" y="383.505788"/>
      </g>
     </g>
     <g id="text_80">
      <!-- 0.95 -->
      <g transform="translate(229.682812 386.283288)scale(0.08 -0.08)">
       <use xlink:href="#TimesNewRomanPSMT-48"/>
       <use x="50" xlink:href="#TimesNewRomanPSMT-46"/>
       <use x="75" xlink:href="#TimesNewRomanPSMT-57"/>
       <use x="125" xlink:href="#TimesNewRomanPSMT-53"/>
      </g>
     </g>
    </g>
    <g id="ytick_35">
     <g id="line2d_80">
      <g>
       <use style="stroke:#000000;stroke-width:0.8;" x="250.682812" xlink:href="#ma1eed96662" y="357.839089"/>
      </g>
     </g>
     <g id="text_81">
      <!-- 1.00 -->
      <g transform="translate(229.682812 360.616589)scale(0.08 -0.08)">
       <use xlink:href="#TimesNewRomanPSMT-49"/>
       <use x="50" xlink:href="#TimesNewRomanPSMT-46"/>
       <use x="75" xlink:href="#TimesNewRomanPSMT-48"/>
       <use x="125" xlink:href="#TimesNewRomanPSMT-48"/>
      </g>
     </g>
    </g>
    <g id="text_82">
     <!-- Y label -->
     <g transform="translate(223.54375 433.420625)rotate(-90)scale(0.1 -0.1)">
      <use xlink:href="#TimesNewRomanPSMT-89"/>
      <use x="68.466797" xlink:href="#TimesNewRomanPSMT-32"/>
      <use x="93.466797" xlink:href="#TimesNewRomanPSMT-108"/>
      <use x="121.25" xlink:href="#TimesNewRomanPSMT-97"/>
      <use x="165.634766" xlink:href="#TimesNewRomanPSMT-98"/>
      <use x="215.634766" xlink:href="#TimesNewRomanPSMT-101"/>
      <use x="260.019531" xlink:href="#TimesNewRomanPSMT-108"/>
     </g>
    </g>
   </g>
   <g id="line2d_81">
    <path clip-path="url(#p921f42af49)" d="M 257.671903 480.220909 
L 260.524594 445.821233 
L 263.377284 420.421611 
L 266.229974 402.00958 
L 269.082664 388.840257 
L 271.935354 379.510728 
L 274.788044 372.946239 
L 277.640735 368.349383 
L 280.493425 365.141178 
L 283.346115 362.907374 
L 286.198805 361.354563 
L 289.051495 360.276364 
L 291.904185 359.528304 
L 294.756876 359.009579 
L 297.609566 358.650019 
L 300.462256 358.40085 
L 303.314946 358.228213 
L 306.167636 358.108616 
L 309.020326 358.02577 
L 311.873017 357.968386 
L 314.725707 357.928639 
L 317.578397 357.90111 
L 320.431087 357.882044 
L 323.283777 357.868839 
L 326.136467 357.859693 
L 328.989158 357.853359 
L 331.841848 357.848972 
L 334.694538 357.845933 
L 337.547228 357.843829 
L 340.399918 357.842372 
L 343.252608 357.841363 
L 346.105299 357.840664 
L 348.957989 357.840179 
L 351.810679 357.839844 
L 354.663369 357.839612 
L 357.516059 357.839451 
L 360.368749 357.83934 
L 363.22144 357.839263 
L 366.07413 357.839209 
L 368.92682 357.839172 
L 371.77951 357.839147 
L 374.6322 357.839129 
L 377.48489 357.839116 
L 380.337581 357.839108 
L 383.190271 357.839102 
L 386.042961 357.839098 
L 388.895651 357.839095 
L 391.748341 357.839093 
L 394.601031 357.839092 
L 397.453722 357.839091 
" style="fill:none;stroke:#8b564b;stroke-linecap:square;stroke-width:1.5;"/>
   </g>
   <g id="patch_28">
    <path d="M 250.682812 486.34 
L 250.682812 351.72 
" style="fill:none;stroke:#000000;stroke-linecap:square;stroke-linejoin:miter;stroke-width:0.8;"/>
   </g>
   <g id="patch_29">
    <path d="M 404.442812 486.34 
L 404.442812 351.72 
" style="fill:none;stroke:#000000;stroke-linecap:square;stroke-linejoin:miter;stroke-width:0.8;"/>
   </g>
   <g id="patch_30">
    <path d="M 250.682812 486.34 
L 404.442812 486.34 
" style="fill:none;stroke:#000000;stroke-linecap:square;stroke-linejoin:miter;stroke-width:0.8;"/>
   </g>
   <g id="patch_31">
    <path d="M 250.682812 351.72 
L 404.442812 351.72 
" style="fill:none;stroke:#000000;stroke-linecap:square;stroke-linejoin:miter;stroke-width:0.8;"/>
   </g>
   <g id="legend_6">
    <g id="line2d_82">
     <path d="M 370.842812 474.62875 
L 386.842812 474.62875 
" style="fill:none;stroke:#8b564b;stroke-linecap:square;stroke-width:1.5;"/>
    </g>
    <g id="line2d_83"/>
    <g id="text_83">
     <!-- 5 -->
     <g transform="translate(393.242812 477.42875)scale(0.08 -0.08)">
      <use xlink:href="#TimesNewRomanPSMT-53"/>
     </g>
    </g>
   </g>
  </g>
  <g id="axes_7">
   <g id="patch_32">
    <path d="M 47.282813 658.6 
L 201.042812 658.6 
L 201.042812 523.98 
L 47.282813 523.98 
z
" style="fill:#ffffff;"/>
   </g>
   <g id="matplotlib.axis_13">
    <g id="xtick_31">
     <g id="line2d_84">
      <g>
       <use style="stroke:#000000;stroke-width:0.8;" x="69.803217" xlink:href="#m3923f8da2c" y="658.6"/>
      </g>
     </g>
     <g id="text_84">
      <!-- 2 -->
      <g transform="translate(67.803217 671.155)scale(0.08 -0.08)">
       <use xlink:href="#TimesNewRomanPSMT-50"/>
      </g>
     </g>
    </g>
    <g id="xtick_32">
     <g id="line2d_85">
      <g>
       <use style="stroke:#000000;stroke-width:0.8;" x="100.865843" xlink:href="#m3923f8da2c" y="658.6"/>
      </g>
     </g>
     <g id="text_85">
      <!-- 4 -->
      <g transform="translate(98.865843 671.155)scale(0.08 -0.08)">
       <use xlink:href="#TimesNewRomanPSMT-52"/>
      </g>
     </g>
    </g>
    <g id="xtick_33">
     <g id="line2d_86">
      <g>
       <use style="stroke:#000000;stroke-width:0.8;" x="131.928469" xlink:href="#m3923f8da2c" y="658.6"/>
      </g>
     </g>
     <g id="text_86">
      <!-- 6 -->
      <g transform="translate(129.928469 671.155)scale(0.08 -0.08)">
       <use xlink:href="#TimesNewRomanPSMT-54"/>
      </g>
     </g>
    </g>
    <g id="xtick_34">
     <g id="line2d_87">
      <g>
       <use style="stroke:#000000;stroke-width:0.8;" x="162.991095" xlink:href="#m3923f8da2c" y="658.6"/>
      </g>
     </g>
     <g id="text_87">
      <!-- 8 -->
      <g transform="translate(160.991095 671.155)scale(0.08 -0.08)">
       <use xlink:href="#TimesNewRomanPSMT-56"/>
      </g>
     </g>
    </g>
    <g id="xtick_35">
     <g id="line2d_88">
      <g>
       <use style="stroke:#000000;stroke-width:0.8;" x="194.053722" xlink:href="#m3923f8da2c" y="658.6"/>
      </g>
     </g>
     <g id="text_88">
      <!-- 10 -->
      <g transform="translate(190.053722 671.155)scale(0.08 -0.08)">
       <use xlink:href="#TimesNewRomanPSMT-49"/>
       <use x="50" xlink:href="#TimesNewRomanPSMT-48"/>
      </g>
     </g>
    </g>
    <g id="text_89">
     <!-- X label -->
     <g transform="translate(109.584687 683.81)scale(0.1 -0.1)">
      <use xlink:href="#TimesNewRomanPSMT-88"/>
      <use x="72.216797" xlink:href="#TimesNewRomanPSMT-32"/>
      <use x="97.216797" xlink:href="#TimesNewRomanPSMT-108"/>
      <use x="125" xlink:href="#TimesNewRomanPSMT-97"/>
      <use x="169.384766" xlink:href="#TimesNewRomanPSMT-98"/>
      <use x="219.384766" xlink:href="#TimesNewRomanPSMT-101"/>
      <use x="263.769531" xlink:href="#TimesNewRomanPSMT-108"/>
     </g>
    </g>
   </g>
   <g id="matplotlib.axis_14">
    <g id="ytick_36">
     <g id="line2d_89">
      <g>
       <use style="stroke:#000000;stroke-width:0.8;" x="47.282813" xlink:href="#ma1eed96662" y="652.496014"/>
      </g>
     </g>
     <g id="text_90">
      <!-- 0 -->
      <g transform="translate(36.282813 655.273514)scale(0.08 -0.08)">
       <use xlink:href="#TimesNewRomanPSMT-48"/>
      </g>
     </g>
    </g>
    <g id="ytick_37">
     <g id="line2d_90">
      <g>
       <use style="stroke:#000000;stroke-width:0.8;" x="47.282813" xlink:href="#ma1eed96662" y="624.711955"/>
      </g>
     </g>
     <g id="text_91">
      <!-- 5000 -->
      <g transform="translate(24.282813 627.489455)scale(0.08 -0.08)">
       <use xlink:href="#TimesNewRomanPSMT-53"/>
       <use x="50" xlink:href="#TimesNewRomanPSMT-48"/>
       <use x="100" xlink:href="#TimesNewRomanPSMT-48"/>
       <use x="150" xlink:href="#TimesNewRomanPSMT-48"/>
      </g>
     </g>
    </g>
    <g id="ytick_38">
     <g id="line2d_91">
      <g>
       <use style="stroke:#000000;stroke-width:0.8;" x="47.282813" xlink:href="#ma1eed96662" y="596.927897"/>
      </g>
     </g>
     <g id="text_92">
      <!-- 10000 -->
      <g transform="translate(20.282813 599.705397)scale(0.08 -0.08)">
       <use xlink:href="#TimesNewRomanPSMT-49"/>
       <use x="50" xlink:href="#TimesNewRomanPSMT-48"/>
       <use x="100" xlink:href="#TimesNewRomanPSMT-48"/>
       <use x="150" xlink:href="#TimesNewRomanPSMT-48"/>
       <use x="200" xlink:href="#TimesNewRomanPSMT-48"/>
      </g>
     </g>
    </g>
    <g id="ytick_39">
     <g id="line2d_92">
      <g>
       <use style="stroke:#000000;stroke-width:0.8;" x="47.282813" xlink:href="#ma1eed96662" y="569.143838"/>
      </g>
     </g>
     <g id="text_93">
      <!-- 15000 -->
      <g transform="translate(20.282813 571.921338)scale(0.08 -0.08)">
       <use xlink:href="#TimesNewRomanPSMT-49"/>
       <use x="50" xlink:href="#TimesNewRomanPSMT-53"/>
       <use x="100" xlink:href="#TimesNewRomanPSMT-48"/>
       <use x="150" xlink:href="#TimesNewRomanPSMT-48"/>
       <use x="200" xlink:href="#TimesNewRomanPSMT-48"/>
      </g>
     </g>
    </g>
    <g id="ytick_40">
     <g id="line2d_93">
      <g>
       <use style="stroke:#000000;stroke-width:0.8;" x="47.282813" xlink:href="#ma1eed96662" y="541.35978"/>
      </g>
     </g>
     <g id="text_94">
      <!-- 20000 -->
      <g transform="translate(20.282813 544.13728)scale(0.08 -0.08)">
       <use xlink:href="#TimesNewRomanPSMT-50"/>
       <use x="50" xlink:href="#TimesNewRomanPSMT-48"/>
       <use x="100" xlink:href="#TimesNewRomanPSMT-48"/>
       <use x="150" xlink:href="#TimesNewRomanPSMT-48"/>
       <use x="200" xlink:href="#TimesNewRomanPSMT-48"/>
      </g>
     </g>
    </g>
    <g id="text_95">
     <!-- Y label -->
     <g transform="translate(14.14375 605.680625)rotate(-90)scale(0.1 -0.1)">
      <use xlink:href="#TimesNewRomanPSMT-89"/>
      <use x="68.466797" xlink:href="#TimesNewRomanPSMT-32"/>
      <use x="93.466797" xlink:href="#TimesNewRomanPSMT-108"/>
      <use x="121.25" xlink:href="#TimesNewRomanPSMT-97"/>
      <use x="165.634766" xlink:href="#TimesNewRomanPSMT-98"/>
      <use x="215.634766" xlink:href="#TimesNewRomanPSMT-101"/>
      <use x="260.019531" xlink:href="#TimesNewRomanPSMT-108"/>
     </g>
    </g>
   </g>
   <g id="line2d_94">
    <path clip-path="url(#p11128a0d50)" d="M 54.271903 652.480909 
L 57.124594 652.477864 
L 59.977284 652.474204 
L 62.829974 652.469807 
L 65.682664 652.464523 
L 68.535354 652.458173 
L 71.388044 652.450544 
L 74.240735 652.441376 
L 77.093425 652.430359 
L 79.946115 652.417122 
L 82.798805 652.401215 
L 85.651495 652.382101 
L 88.504185 652.359134 
L 91.356876 652.331536 
L 94.209566 652.298373 
L 97.062256 652.258524 
L 99.914946 652.21064 
L 102.767636 652.153102 
L 105.620326 652.083963 
L 108.473017 652.000884 
L 111.325707 651.901054 
L 114.178397 651.781096 
L 117.031087 651.636952 
L 119.883777 651.463745 
L 122.736467 651.255616 
L 125.589158 651.005523 
L 128.441848 650.705005 
L 131.294538 650.343895 
L 134.147228 649.909978 
L 136.999918 649.388572 
L 139.852608 648.762039 
L 142.705299 648.009183 
L 145.557989 647.104532 
L 148.410679 646.017483 
L 151.263369 644.71126 
L 154.116059 643.141672 
L 156.968749 641.255617 
L 159.82144 638.989291 
L 162.67413 636.266019 
L 165.52682 632.993673 
L 168.37951 629.061544 
L 171.2322 624.336607 
L 174.08489 618.659012 
L 176.937581 611.836681 
L 179.790271 603.638808 
L 182.642961 593.788052 
L 185.495651 581.951154 
L 188.348341 567.72766 
L 191.201031 550.636377 
L 194.053722 530.099091 
" style="fill:none;stroke:#e277c1;stroke-linecap:square;stroke-width:1.5;"/>
   </g>
   <g id="patch_33">
    <path d="M 47.282813 658.6 
L 47.282813 523.98 
" style="fill:none;stroke:#000000;stroke-linecap:square;stroke-linejoin:miter;stroke-width:0.8;"/>
   </g>
   <g id="patch_34">
    <path d="M 201.042812 658.6 
L 201.042812 523.98 
" style="fill:none;stroke:#000000;stroke-linecap:square;stroke-linejoin:miter;stroke-width:0.8;"/>
   </g>
   <g id="patch_35">
    <path d="M 47.282813 658.6 
L 201.042812 658.6 
" style="fill:none;stroke:#000000;stroke-linecap:square;stroke-linejoin:miter;stroke-width:0.8;"/>
   </g>
   <g id="patch_36">
    <path d="M 47.282813 523.98 
L 201.042812 523.98 
" style="fill:none;stroke:#000000;stroke-linecap:square;stroke-linejoin:miter;stroke-width:0.8;"/>
   </g>
   <g id="legend_7">
    <g id="line2d_95">
     <path d="M 54.482813 533.98 
L 70.482813 533.98 
" style="fill:none;stroke:#e277c1;stroke-linecap:square;stroke-width:1.5;"/>
    </g>
    <g id="line2d_96"/>
    <g id="text_96">
     <!-- 6 -->
     <g transform="translate(76.882812 536.78)scale(0.08 -0.08)">
      <use xlink:href="#TimesNewRomanPSMT-54"/>
     </g>
    </g>
   </g>
  </g>
  <g id="axes_8">
   <g id="patch_37">
    <path d="M 250.682812 658.6 
L 404.442812 658.6 
L 404.442812 523.98 
L 250.682812 523.98 
z
" style="fill:#ffffff;"/>
   </g>
   <g id="matplotlib.axis_15">
    <g id="xtick_36">
     <g id="line2d_97">
      <g>
       <use style="stroke:#000000;stroke-width:0.8;" x="273.203217" xlink:href="#m3923f8da2c" y="658.6"/>
      </g>
     </g>
     <g id="text_97">
      <!-- 2 -->
      <g transform="translate(271.203217 671.155)scale(0.08 -0.08)">
       <use xlink:href="#TimesNewRomanPSMT-50"/>
      </g>
     </g>
    </g>
    <g id="xtick_37">
     <g id="line2d_98">
      <g>
       <use style="stroke:#000000;stroke-width:0.8;" x="304.265843" xlink:href="#m3923f8da2c" y="658.6"/>
      </g>
     </g>
     <g id="text_98">
      <!-- 4 -->
      <g transform="translate(302.265843 671.155)scale(0.08 -0.08)">
       <use xlink:href="#TimesNewRomanPSMT-52"/>
      </g>
     </g>
    </g>
    <g id="xtick_38">
     <g id="line2d_99">
      <g>
       <use style="stroke:#000000;stroke-width:0.8;" x="335.328469" xlink:href="#m3923f8da2c" y="658.6"/>
      </g>
     </g>
     <g id="text_99">
      <!-- 6 -->
      <g transform="translate(333.328469 671.155)scale(0.08 -0.08)">
       <use xlink:href="#TimesNewRomanPSMT-54"/>
      </g>
     </g>
    </g>
    <g id="xtick_39">
     <g id="line2d_100">
      <g>
       <use style="stroke:#000000;stroke-width:0.8;" x="366.391095" xlink:href="#m3923f8da2c" y="658.6"/>
      </g>
     </g>
     <g id="text_100">
      <!-- 8 -->
      <g transform="translate(364.391095 671.155)scale(0.08 -0.08)">
       <use xlink:href="#TimesNewRomanPSMT-56"/>
      </g>
     </g>
    </g>
    <g id="xtick_40">
     <g id="line2d_101">
      <g>
       <use style="stroke:#000000;stroke-width:0.8;" x="397.453722" xlink:href="#m3923f8da2c" y="658.6"/>
      </g>
     </g>
     <g id="text_101">
      <!-- 10 -->
      <g transform="translate(393.453722 671.155)scale(0.08 -0.08)">
       <use xlink:href="#TimesNewRomanPSMT-49"/>
       <use x="50" xlink:href="#TimesNewRomanPSMT-48"/>
      </g>
     </g>
    </g>
    <g id="text_102">
     <!-- X label -->
     <g transform="translate(312.984687 683.81)scale(0.1 -0.1)">
      <use xlink:href="#TimesNewRomanPSMT-88"/>
      <use x="72.216797" xlink:href="#TimesNewRomanPSMT-32"/>
      <use x="97.216797" xlink:href="#TimesNewRomanPSMT-108"/>
      <use x="125" xlink:href="#TimesNewRomanPSMT-97"/>
      <use x="169.384766" xlink:href="#TimesNewRomanPSMT-98"/>
      <use x="219.384766" xlink:href="#TimesNewRomanPSMT-101"/>
      <use x="263.769531" xlink:href="#TimesNewRomanPSMT-108"/>
     </g>
    </g>
   </g>
   <g id="matplotlib.axis_16">
    <g id="ytick_41">
     <g id="line2d_102">
      <g>
       <use style="stroke:#000000;stroke-width:0.8;" x="250.682812" xlink:href="#ma1eed96662" y="652.480909"/>
      </g>
     </g>
     <g id="text_103">
      <!-- 0.0 -->
      <g transform="translate(233.682812 655.258409)scale(0.08 -0.08)">
       <use xlink:href="#TimesNewRomanPSMT-48"/>
       <use x="50" xlink:href="#TimesNewRomanPSMT-46"/>
       <use x="75" xlink:href="#TimesNewRomanPSMT-48"/>
      </g>
     </g>
    </g>
    <g id="ytick_42">
     <g id="line2d_103">
      <g>
       <use style="stroke:#000000;stroke-width:0.8;" x="250.682812" xlink:href="#ma1eed96662" y="625.906035"/>
      </g>
     </g>
     <g id="text_104">
      <!-- 0.5 -->
      <g transform="translate(233.682812 628.683535)scale(0.08 -0.08)">
       <use xlink:href="#TimesNewRomanPSMT-48"/>
       <use x="50" xlink:href="#TimesNewRomanPSMT-46"/>
       <use x="75" xlink:href="#TimesNewRomanPSMT-53"/>
      </g>
     </g>
    </g>
    <g id="ytick_43">
     <g id="line2d_104">
      <g>
       <use style="stroke:#000000;stroke-width:0.8;" x="250.682812" xlink:href="#ma1eed96662" y="599.331161"/>
      </g>
     </g>
     <g id="text_105">
      <!-- 1.0 -->
      <g transform="translate(233.682812 602.108661)scale(0.08 -0.08)">
       <use xlink:href="#TimesNewRomanPSMT-49"/>
       <use x="50" xlink:href="#TimesNewRomanPSMT-46"/>
       <use x="75" xlink:href="#TimesNewRomanPSMT-48"/>
      </g>
     </g>
    </g>
    <g id="ytick_44">
     <g id="line2d_105">
      <g>
       <use style="stroke:#000000;stroke-width:0.8;" x="250.682812" xlink:href="#ma1eed96662" y="572.756287"/>
      </g>
     </g>
     <g id="text_106">
      <!-- 1.5 -->
      <g transform="translate(233.682812 575.533787)scale(0.08 -0.08)">
       <use xlink:href="#TimesNewRomanPSMT-49"/>
       <use x="50" xlink:href="#TimesNewRomanPSMT-46"/>
       <use x="75" xlink:href="#TimesNewRomanPSMT-53"/>
      </g>
     </g>
    </g>
    <g id="ytick_45">
     <g id="line2d_106">
      <g>
       <use style="stroke:#000000;stroke-width:0.8;" x="250.682812" xlink:href="#ma1eed96662" y="546.181412"/>
      </g>
     </g>
     <g id="text_107">
      <!-- 2.0 -->
      <g transform="translate(233.682812 548.958912)scale(0.08 -0.08)">
       <use xlink:href="#TimesNewRomanPSMT-50"/>
       <use x="50" xlink:href="#TimesNewRomanPSMT-46"/>
       <use x="75" xlink:href="#TimesNewRomanPSMT-48"/>
      </g>
     </g>
    </g>
    <g id="text_108">
     <!-- Y label -->
     <g transform="translate(227.54375 605.680625)rotate(-90)scale(0.1 -0.1)">
      <use xlink:href="#TimesNewRomanPSMT-89"/>
      <use x="68.466797" xlink:href="#TimesNewRomanPSMT-32"/>
      <use x="93.466797" xlink:href="#TimesNewRomanPSMT-108"/>
      <use x="121.25" xlink:href="#TimesNewRomanPSMT-97"/>
      <use x="165.634766" xlink:href="#TimesNewRomanPSMT-98"/>
      <use x="215.634766" xlink:href="#TimesNewRomanPSMT-101"/>
      <use x="260.019531" xlink:href="#TimesNewRomanPSMT-108"/>
     </g>
    </g>
   </g>
   <g id="line2d_107">
    <path clip-path="url(#p813016330f)" d="M 257.671903 652.480909 
L 260.524594 643.518654 
L 263.377284 635.851824 
L 266.229974 629.152791 
L 269.082664 623.204382 
L 271.935354 617.855204 
L 274.788044 612.995499 
L 277.640735 608.543151 
L 280.493425 604.435118 
L 283.346115 600.621947 
L 286.198805 597.064131 
L 289.051495 593.729604 
L 291.904185 590.591986 
L 294.756876 587.629314 
L 297.609566 584.823104 
L 300.462256 582.157655 
L 303.314946 579.619519 
L 306.167636 577.197086 
L 309.020326 574.880266 
L 311.873017 572.660232 
L 314.725707 570.529222 
L 317.578397 568.480369 
L 320.431087 566.507575 
L 323.283777 564.605393 
L 326.136467 562.768942 
L 328.989158 560.993832 
L 331.841848 559.276097 
L 334.694538 557.612143 
L 337.547228 555.998704 
L 340.399918 554.432805 
L 343.252608 552.911722 
L 346.105299 551.432963 
L 348.957989 549.994235 
L 351.810679 548.593429 
L 354.663369 547.228596 
L 357.516059 545.897935 
L 360.368749 544.599776 
L 363.22144 543.332569 
L 366.07413 542.094874 
L 368.92682 540.885346 
L 371.77951 539.702731 
L 374.6322 538.545859 
L 377.48489 537.413633 
L 380.337581 536.305023 
L 383.190271 535.219065 
L 386.042961 534.154852 
L 388.895651 533.11153 
L 391.748341 532.088295 
L 394.601031 531.084387 
L 397.453722 530.099091 
" style="fill:none;stroke:#7f7f7f;stroke-linecap:square;stroke-width:1.5;"/>
   </g>
   <g id="patch_38">
    <path d="M 250.682812 658.6 
L 250.682812 523.98 
" style="fill:none;stroke:#000000;stroke-linecap:square;stroke-linejoin:miter;stroke-width:0.8;"/>
   </g>
   <g id="patch_39">
    <path d="M 404.442812 658.6 
L 404.442812 523.98 
" style="fill:none;stroke:#000000;stroke-linecap:square;stroke-linejoin:miter;stroke-width:0.8;"/>
   </g>
   <g id="patch_40">
    <path d="M 250.682812 658.6 
L 404.442812 658.6 
" style="fill:none;stroke:#000000;stroke-linecap:square;stroke-linejoin:miter;stroke-width:0.8;"/>
   </g>
   <g id="patch_41">
    <path d="M 250.682812 523.98 
L 404.442812 523.98 
" style="fill:none;stroke:#000000;stroke-linecap:square;stroke-linejoin:miter;stroke-width:0.8;"/>
   </g>
   <g id="legend_8">
    <g id="line2d_108">
     <path d="M 257.882812 533.98 
L 273.882812 533.98 
" style="fill:none;stroke:#7f7f7f;stroke-linecap:square;stroke-width:1.5;"/>
    </g>
    <g id="line2d_109"/>
    <g id="text_109">
     <!-- 7 -->
     <g transform="translate(280.282812 536.78)scale(0.08 -0.08)">
      <use xlink:href="#TimesNewRomanPSMT-55"/>
     </g>
    </g>
   </g>
  </g>
 </g>
 <defs>
  <clipPath id="pe8a39a0b93">
   <rect height="134.62" width="153.76" x="47.282813" y="7.2"/>
  </clipPath>
  <clipPath id="pf210fd1db6">
   <rect height="134.62" width="153.76" x="250.682812" y="7.2"/>
  </clipPath>
  <clipPath id="p06fdcaf53d">
   <rect height="134.62" width="153.76" x="47.282813" y="179.46"/>
  </clipPath>
  <clipPath id="p13edd3d081">
   <rect height="134.62" width="153.76" x="250.682812" y="179.46"/>
  </clipPath>
  <clipPath id="p4bd66355c9">
   <rect height="134.62" width="153.76" x="47.282813" y="351.72"/>
  </clipPath>
  <clipPath id="p921f42af49">
   <rect height="134.62" width="153.76" x="250.682812" y="351.72"/>
  </clipPath>
  <clipPath id="p11128a0d50">
   <rect height="134.62" width="153.76" x="47.282813" y="523.98"/>
  </clipPath>
  <clipPath id="p813016330f">
   <rect height="134.62" width="153.76" x="250.682812" y="523.98"/>
  </clipPath>
 </defs>
</svg>
